<?xml version="1.0" encoding="utf-8"?>
<!-- Generator: Adobe Illustrator 23.0.1, SVG Export Plug-In . SVG Version: 6.00 Build 0)  -->
<svg version="1.1" id="Layer_1" xmlns="http://www.w3.org/2000/svg" xmlns:xlink="http://www.w3.org/1999/xlink" x="0px" y="0px"
	 viewBox="0 0 405.1 57.7" style="enable-background:new 0 0 405.1 57.7;" xml:space="preserve">
<style type="text/css">
	.st0{fill:#162C39;}
	.st1{enable-background:new    ;}
	.st2{fill:#8690A4;}
</style>
<title>Untitled-1</title>
<path class="st0" d="M40.2,45.2V15.3H6.1c-1.5,0-2.8,1.2-2.8,2.8c0,0.4,0.1,0.8,0.3,1.2l7.3,15.9c0.4,0.9,0.3,1.9-0.2,2.7L0.5,53.4
	c-0.8,1.3-0.5,3,0.8,3.8c0.5,0.3,1,0.5,1.5,0.5h57c1.5,0,2.8-1.2,2.8-2.8l0,0v-5H44.9C42.3,49.9,40.2,47.8,40.2,45.2
	C40.2,45.2,40.2,45.2,40.2,45.2z"/>
<path class="st0" d="M404.7,53.4l-10.2-15.6c-0.5-0.8-0.6-1.8-0.2-2.7l7.3-15.9c0.6-1.4,0-3-1.4-3.7c-0.4-0.2-0.8-0.3-1.2-0.2h-34.1
	v29.9c0,2.6-2.1,4.7-4.7,4.7c0,0,0,0,0,0h-17.6v5c0,1.5,1.2,2.8,2.8,2.8h57c1.5,0,2.8-1.3,2.7-2.8C405.1,54.3,404.9,53.8,404.7,53.4
	z"/>
<path class="st0" d="M47.6,0h309.9c1.9,0,3.4,1.5,3.4,3.4v38.7c0,1.9-1.5,3.4-3.4,3.4H47.6c-1.9,0-3.4-1.5-3.4-3.4V3.4
	C44.2,1.5,45.8,0,47.6,0z"/>
<g class="st1">
	<path class="st2" d="M140.8,27.9h-2.8V17.2h-3.5v-2.3h9.8v2.3h-3.5V27.9z"/>
	<path class="st2" d="M146.4,27.9v-13h2.8v13H146.4z"/>
	<path class="st2" d="M159.9,27.9h-7.5v-13h7.5v2.3h-4.7V20h4.4v2.3h-4.4v3.3h4.7V27.9z"/>
	<path class="st2" d="M176.3,18.9c0,1.4-0.4,2.5-1.3,3.2c-0.9,0.7-2.1,1.1-3.7,1.1H170v4.6h-2.8v-13h4.1c1.6,0,2.8,0.3,3.6,1
		C175.9,16.6,176.3,17.6,176.3,18.9z M170,21h0.9c0.8,0,1.5-0.2,1.9-0.5c0.4-0.3,0.6-0.8,0.6-1.5c0-0.6-0.2-1.1-0.5-1.4
		c-0.4-0.3-0.9-0.5-1.7-0.5H170V21z"/>
	<path class="st2" d="M186.7,27.9l-0.9-3.1H181l-0.9,3.1h-3l4.6-13h3.4l4.6,13H186.7z M185.1,22.5c-0.9-2.8-1.4-4.4-1.5-4.8
		c-0.1-0.4-0.2-0.7-0.2-0.9c-0.2,0.8-0.8,2.6-1.7,5.6H185.1z"/>
	<path class="st2" d="M195.3,20.2l2.7-5.3h3l-4.3,7.9v5.1h-2.7v-5l-4.3-8h3L195.3,20.2z"/>
	<path class="st2" d="M210.3,24.3c0,1.2-0.4,2.1-1.3,2.8s-2,1-3.5,1c-1.4,0-2.6-0.3-3.7-0.8v-2.6c0.9,0.4,1.6,0.7,2.2,0.8
		c0.6,0.2,1.2,0.2,1.7,0.2c0.6,0,1.1-0.1,1.4-0.3c0.3-0.2,0.5-0.6,0.5-1c0-0.3-0.1-0.5-0.2-0.7c-0.1-0.2-0.4-0.4-0.6-0.6
		c-0.3-0.2-0.8-0.5-1.7-0.9c-0.8-0.4-1.4-0.7-1.8-1.1c-0.4-0.3-0.7-0.7-1-1.2s-0.4-1-0.4-1.6c0-1.1,0.4-2.1,1.2-2.7s1.9-1,3.2-1
		c0.7,0,1.3,0.1,1.9,0.2c0.6,0.2,1.3,0.4,1.9,0.7l-0.9,2.1c-0.7-0.3-1.3-0.5-1.7-0.6c-0.5-0.1-0.9-0.2-1.3-0.2
		c-0.5,0-0.9,0.1-1.2,0.4c-0.3,0.2-0.4,0.6-0.4,1c0,0.2,0.1,0.5,0.2,0.6s0.3,0.4,0.5,0.5c0.2,0.2,0.8,0.5,1.7,0.9
		c1.2,0.6,2,1.2,2.5,1.7C210.1,22.7,210.3,23.4,210.3,24.3z"/>
	<path class="st2" d="M220.9,14.7c1.2,0,2.2,0.3,3,0.8s1.1,1.3,1.1,2.3c0,0.7-0.2,1.3-0.6,1.8c-0.4,0.5-1,1-1.8,1.4
		c1,0.5,1.7,1.1,2.1,1.6c0.4,0.6,0.6,1.2,0.6,1.9c0,1.1-0.4,1.9-1.3,2.6s-1.9,1-3.3,1c-1.4,0-2.5-0.3-3.3-0.9
		c-0.8-0.6-1.2-1.5-1.2-2.6c0-0.7,0.2-1.4,0.6-2c0.4-0.6,1-1.1,1.9-1.5c-0.7-0.5-1.3-1-1.6-1.5c-0.3-0.5-0.5-1.1-0.5-1.7
		c0-0.9,0.4-1.7,1.2-2.3C218.7,15,219.7,14.7,220.9,14.7z M218.9,24.4c0,0.5,0.2,0.9,0.5,1.2c0.4,0.3,0.8,0.4,1.5,0.4
		c0.7,0,1.2-0.1,1.5-0.4c0.3-0.3,0.5-0.7,0.5-1.2c0-0.4-0.2-0.8-0.5-1.1c-0.3-0.3-0.9-0.7-1.6-1.1C219.5,22.8,218.9,23.5,218.9,24.4
		z M220.9,16.7c-0.5,0-0.8,0.1-1.1,0.4c-0.3,0.2-0.4,0.6-0.4,1c0,0.4,0.1,0.7,0.3,1c0.2,0.3,0.6,0.6,1.2,0.9c0.6-0.3,1-0.5,1.2-0.8
		c0.2-0.3,0.3-0.6,0.3-1c0-0.4-0.1-0.7-0.4-1C221.8,16.8,221.4,16.7,220.9,16.7z"/>
	<path class="st2" d="M237.5,27.9h-2.8V17.2h-3.5v-2.3h9.8v2.3h-3.5V27.9z"/>
	<path class="st2" d="M254.8,21.4c0,2.1-0.5,3.8-1.6,5c-1.1,1.2-2.6,1.7-4.6,1.7c-2,0-3.5-0.6-4.6-1.7c-1.1-1.2-1.6-2.8-1.6-5
		s0.5-3.8,1.6-5c1.1-1.1,2.6-1.7,4.6-1.7c2,0,3.5,0.6,4.6,1.7C254.3,17.6,254.8,19.2,254.8,21.4z M245.3,21.4c0,1.5,0.3,2.5,0.8,3.3
		c0.6,0.7,1.4,1.1,2.5,1.1c2.2,0,3.3-1.5,3.3-4.4c0-2.9-1.1-4.4-3.3-4.4c-1.1,0-1.9,0.4-2.5,1.1S245.3,19.9,245.3,21.4z"/>
	<path class="st2" d="M268.1,27.9h-2.7v-7.5l0-1.2l0-1.3c-0.5,0.5-0.8,0.8-1,0.9l-1.5,1.2l-1.3-1.7l4.2-3.3h2.3V27.9z"/>
</g>
</svg>
