<svg xmlns="http://www.w3.org/2000/svg" viewBox="0 0 30.59 30.59"><defs><style>.a{opacity:0.6;}.b{fill:#fff;}</style></defs><title>background</title><g class="a"><path class="b" d="M17.61,3.59V.19A16,16,0,0,0,15.3,0,15.88,15.88,0,0,0,13,.19v3.4Z"/></g><g class="a"><path class="b" d="M8.65,5.38,6.25,3a16.54,16.54,0,0,0-1.77,1.5A16.54,16.54,0,0,0,3,6.25l2.4,2.4Z"/></g><g class="a"><path class="b" d="M3.59,13H.19A15.88,15.88,0,0,0,0,15.3a16,16,0,0,0,.19,2.31h3.4Z"/></g><g class="a"><path class="b" d="M5.38,21.94,3,24.34a14.78,14.78,0,0,0,1.5,1.77,15.46,15.46,0,0,0,1.77,1.5l2.4-2.4Z"/></g><g class="a"><path class="b" d="M13,27V30.4a14.14,14.14,0,0,0,4.62,0V27Z"/></g><g class="a"><path class="b" d="M21.94,25.21l2.4,2.4a14.1,14.1,0,0,0,3.27-3.27l-2.4-2.4Z"/></g><g class="a"><path class="b" d="M27,17.61H30.4a14.14,14.14,0,0,0,0-4.62H27Z"/></g><g class="a"><path class="b" d="M25.21,8.65l2.4-2.4a15.46,15.46,0,0,0-1.5-1.77A14.78,14.78,0,0,0,24.34,3l-2.4,2.4Z"/></g></svg>