<svg class="icon" style="width: 1em; height: 1em;vertical-align: middle;fill: rgb(183, 191, 214);overflow: hidden;" viewBox="0 0 1024 1024" version="1.1" xmlns="http://www.w3.org/2000/svg"><path d="M512 213.333333c212.053333 0 384 114.773333 384 256 0 71.68-44.373333 136.533333-115.626667 183.04 45.653333-37.12 72.96-84.053333 72.96-134.826666C853.333333 396.373333 700.586667 298.666667 512 298.666667v128L341.333333 256l170.666667-170.666667v128m0 597.333334c-212.053333 0-384-114.773333-384-256 0-71.68 44.373333-136.533333 115.626667-183.04C197.973333 408.746667 170.666667 455.68 170.666667 506.88 170.666667 627.626667 323.413333 725.333333 512 725.333333v-128l170.666667 170.666667-170.666667 170.666667v-128z" fill="" /></svg>