<svg width="100" height="100" viewBox="0 0 100 100" fill="none" xmlns="http://www.w3.org/2000/svg">
<path d="M85.0371 47.4956C85.1665 66.8554 69.5772 82.6546 50.2174 82.7841C30.8575 82.9136 15.0583 67.3243 14.9288 47.9644C14.7993 28.6045 30.3887 12.8053 49.7485 12.6759C69.1084 12.5464 84.9076 28.1357 85.0371 47.4956Z" fill="#F86A66"/>
<path d="M40.5118 25.1512L36.3987 15.4059C32.1938 17.1751 28.4093 19.741 25.23 22.9118L40.5118 25.1512Z" fill="#FF91A4"/>
<path d="M24.9761 23.1673C21.8248 26.3751 19.2856 30.1845 17.5489 34.4078L27.4198 38.4194L24.9761 23.1673Z" fill="#FF91A4"/>
<path d="M40.5117 25.1512L25.2299 22.9119C25.1449 22.9967 25.0603 23.0818 24.9761 23.1674L27.4198 38.4194L49.9819 47.5886L40.5117 25.1512Z" fill="#FF5371"/>
<path d="M27.4199 38.4194L14.9296 47.717C14.9295 47.7872 14.9279 47.8569 14.9283 47.9272L27.5445 57.0588L49.982 47.5886L27.4199 38.4194Z" fill="#FF3658"/>
<path d="M27.4198 38.4193L17.5488 34.4078C15.8604 38.513 14.9307 43.0078 14.9296 47.717L27.4198 38.4193Z" fill="#FF5371"/>
<path d="M27.5445 57.0588L14.9283 47.9272C14.9284 47.9396 14.928 47.9519 14.928 47.9644C14.9595 52.6713 15.9196 57.1542 17.6295 61.2436L27.5445 57.0588Z" fill="#FF5371"/>
<path d="M63.1337 15.2272C59.0636 13.5786 54.6156 12.6726 49.9579 12.6764L59.1512 25.0265L63.1337 15.2272Z" fill="#FF5371"/>
<path d="M49.958 12.6764C49.8879 12.6764 49.8185 12.6747 49.7485 12.6752C49.6784 12.6756 49.609 12.6783 49.5391 12.6792L40.5118 25.1512L49.982 47.5886L59.1512 25.0265L49.958 12.6764Z" fill="#FF3658"/>
<path d="M49.5391 12.6792C44.8818 12.7376 40.4463 13.7031 36.3987 15.4059L40.5117 25.1512L49.5391 12.6792Z" fill="#FF5371"/>
<path d="M59.1513 25.0266L74.4017 22.5831C71.1803 19.455 67.3618 16.9399 63.1337 15.2272L59.1513 25.0266Z" fill="#FF3658"/>
<path d="M82.2359 33.9752C80.4429 29.7755 77.8529 26.0005 74.659 22.8351L72.4194 38.1184L82.2359 33.9752Z" fill="#FF3658"/>
<path d="M74.4018 22.583L59.1513 25.0265L49.982 47.5886L72.4195 38.1185L74.659 22.8352C74.5737 22.7506 74.488 22.6667 74.4018 22.583Z" fill="#FF5371"/>
<path d="M36.7317 80.1925C40.8899 81.8918 45.4451 82.8166 50.2173 82.7847L40.8127 70.1507L36.7317 80.1925Z" fill="#AB122D"/>
<path d="M50.2174 82.7848C54.9896 82.7529 59.532 81.7672 63.6671 80.0125L59.4521 70.0261L50.2174 82.7848Z" fill="#AB122D"/>
<path d="M49.982 47.5886L40.8128 70.1507L50.2174 82.7848L59.4521 70.0261L49.982 47.5886Z" fill="#D31639"/>
<path d="M17.6296 61.2436C19.4189 65.523 22.0318 69.3698 25.2689 72.5882L27.5445 57.0588L17.6296 61.2436Z" fill="#D31639"/>
<path d="M40.8127 70.1508L25.3147 72.6339C28.5619 75.8507 32.4341 78.4362 36.7316 80.1925L40.8127 70.1508Z" fill="#D31639"/>
<path d="M27.5445 57.0587L25.2689 72.5882C25.2842 72.6033 25.2993 72.6187 25.3147 72.6338L40.8128 70.1506L49.982 47.5885L27.5445 57.0587Z" fill="#FF5371"/>
<path d="M72.544 56.7579L82.5141 60.8097C84.1692 56.6978 85.0692 52.2025 85.0377 47.4955C85.0376 47.483 85.0371 47.4707 85.037 47.4583L72.544 56.7579Z" fill="#FF5371"/>
<path d="M85.0331 47.2482L72.4194 38.1185L49.9821 47.5886L72.5441 56.7579L85.037 47.4583C85.0364 47.388 85.034 47.3183 85.0331 47.2482Z" fill="#FF3658"/>
<path d="M72.4194 38.1185L85.033 47.2482C84.9688 42.5395 83.9789 38.0575 82.2359 33.9752L72.4194 38.1185Z" fill="#FF5371"/>
<path d="M75.0272 72.2555C78.2209 68.9941 80.7823 65.1126 82.5142 60.8097L72.544 56.7579L75.0272 72.2555Z" fill="#D31639"/>
<path d="M72.544 56.7578L49.982 47.5886L59.4522 70.026L74.982 72.3017C74.9971 72.2865 75.0121 72.2708 75.0271 72.2555L72.544 56.7578Z" fill="#F82C50"/>
<path d="M59.4522 70.0261L63.6671 80.0124C67.9407 78.1988 71.7781 75.5617 74.982 72.3017L59.4522 70.0261Z" fill="#D31639"/>
<path d="M37.0362 16.9277L36.3973 15.3993C36.3973 15.3993 32.701 16.851 28.7863 19.8171C27.8507 20.5566 27.8596 20.6409 27.8596 20.6409L27.9007 20.6462L38.0777 19.3664L37.0362 16.9277Z" fill="#FED5DD"/>
<g opacity="0.0487433">
<path d="M33.2954 24.1346C33.2954 24.1346 33.2181 24.2783 33.2292 24.3525C33.2393 24.4194 33.385 24.5164 33.385 24.5164C33.385 24.5164 33.2287 24.458 33.1668 24.4702C33.1065 24.4821 33.0119 24.6204 33.0119 24.6204C33.0119 24.6204 33.0938 24.4773 33.0673 24.4101C33.0377 24.335 32.9108 24.2358 32.9108 24.2358C32.9108 24.2358 33.0263 24.3174 33.1178 24.3041C33.2022 24.2917 33.2954 24.1346 33.2954 24.1346Z" fill="white"/>
</g>
<ellipse cx="50" cy="89.5" rx="33" ry="6.5" fill="black" fill-opacity="0.2"/>
</svg>
