<svg id="icon-stake-game-diamonds" viewBox="0 0 32 32">
<path d="M30.32 11.493l-5.6-6.667c-0.572-0.674-1.376-1.137-2.287-1.264l-0.019-0.002-5.973-0.733c-0.132-0.019-0.285-0.030-0.44-0.030s-0.308 0.011-0.457 0.032l0.017-0.002-5.973 0.733c-0.931 0.13-1.734 0.592-2.302 1.261l-0.004 0.005-5.6 6.667c-0.223 0.263-0.358 0.606-0.358 0.98s0.135 0.717 0.36 0.982l-0.002-0.002 13.16 15.28c0.28 0.312 0.684 0.507 1.133 0.507s0.854-0.195 1.132-0.506l0.001-0.001 13.16-15.28c0.239-0.267 0.386-0.622 0.386-1.012 0-0.36-0.125-0.691-0.334-0.951l0.002 0.003z"></path>
</svg>