<svg width="100" height="100" viewBox="0 0 100 100" fill="none" xmlns="http://www.w3.org/2000/svg">
<path d="M81.1305 72.0944L81.1351 25.8951L49.9697 12.5633L18.8016 25.8885L18.797 72.0879L49.9624 85.4196L81.1305 72.0944Z" fill="#BE4F91"/>
<path d="M49.9684 12.5622C47.2356 17.7259 45.6561 22.4645 50.0821 24.9888C50.7193 33.6396 56.0922 37.3841 69.1556 33.1613C74.6629 36.3781 78.1917 32.228 81.1339 25.8938L49.9684 12.5622Z" fill="#FF82CC"/>
<path d="M49.9618 85.4193L50.0777 72.9931C50.7165 64.3427 56.09 60.5992 69.1528 64.8243C74.3558 60.9276 78.0289 65.0176 81.1298 72.0942L49.9618 85.4193Z" fill="#BC2A81"/>
<path d="M69.1564 33.1615C51.2357 33.1599 51.2321 64.8219 69.1528 64.8235L81.1294 72.0933L81.1346 25.8939L69.1564 33.1615Z" fill="#FF91D2"/>
<path d="M49.9692 12.5623L50.083 25.6698C49.4442 34.3204 43.8408 37.3831 30.7781 33.158C26.2186 35.6653 22.4882 30.9649 18.8012 25.8883L49.9692 12.5623Z" fill="#FFC6E8"/>
<path d="M49.9631 85.4197L50.0789 71.9723C49.4415 63.3218 43.8385 60.5986 30.775 64.8209C25.6192 60.9609 22.0976 65.9283 18.7969 72.0882L49.9631 85.4197Z" fill="#DB479F"/>
<path d="M30.779 33.1582C48.6994 33.1596 48.6953 64.8218 30.775 64.8203L18.7968 72.0882L18.8027 25.8885L30.779 33.1582Z" fill="#FF91D2"/>
<path d="M69.1203 64.7578L69.1239 33.2271L49.9679 25.0329L30.81 33.2237L30.8064 64.7545L49.9624 72.9487L69.1203 64.7578Z" fill="#FF69C1"/>
<path d="M69.0664 63.8118L48.3097 72.3261L48.3098 72.35L49.9151 73.0211L69.0525 64.9309L69.0664 63.8118Z" fill="#FEC6E7"/>
<path d="M49.9338 12.6118L18.8548 25.8815L29.5602 32.4237L50.042 23.6607L49.9338 12.6118Z" fill="#FAE9F3"/>
<g opacity="0.0214613">
<path d="M29.2004 40.9231C29.2004 40.9231 30.105 40.7825 30.3993 40.4816C30.6646 40.2102 30.6052 39.2298 30.6052 39.2298C30.6052 39.2298 30.8731 40.1268 31.1374 40.3623C31.3949 40.5916 32.334 40.5465 32.334 40.5465C32.334 40.5465 31.4164 40.6649 31.2056 41.0108C30.9697 41.3974 30.9558 42.3012 30.9558 42.3012C30.9558 42.3012 30.9299 41.5082 30.5601 41.1442C30.2189 40.8084 29.2004 40.9231 29.2004 40.9231Z" fill="white"/>
</g>
<ellipse cx="50" cy="89.5" rx="33" ry="6.5" fill="black" fill-opacity="0.2"/>
</svg>
