<svg width="100" height="100" viewBox="0 0 100 100" fill="none" xmlns="http://www.w3.org/2000/svg">
<path d="M81.1761 58.5496L81.1603 58.4164L76.0815 40.7679L76.0536 40.7185L59.4714 21.05L50.7188 10.6682L50.7189 10.6514L50.7117 10.6598L50.7045 10.6512L50.7044 10.6681L41.7533 20.8672L24.7951 40.1896L24.7663 40.2383L19.3482 57.7785L19.3299 57.9114L17.0642 75.0484L17.2114 75.1059L17.2911 75.137L32.6684 81.1259L32.6712 81.1361L49.7927 83.2444L50.2308 83.2489L67.3896 81.4944L67.3926 81.4843L82.8823 75.8138L82.9625 75.7844L83.1109 75.73L81.1761 58.5496Z" fill="#FDE22E"/>
<path d="M30.5141 73.1436L28.8576 66.0889L25.2922 63.0916L17.1967 75.1766L17.2762 75.2077L30.5331 73.2127L30.5141 73.1436Z" fill="#FDCF2E"/>
<path d="M19.3155 57.9768L17.0492 75.1266L17.1963 75.1841L25.2806 63.0884L19.3155 57.9768Z" fill="#FDE22E"/>
<path d="M45.8118 22.8781L50.6796 10.6726L50.68 10.6741L50.6807 10.61L41.7168 20.8314L45.8118 22.8781Z" fill="#FDF990"/>
<path d="M25.2899 63.0672L28.6635 66.0711L36.5303 46.2578L25.2899 63.0672Z" fill="#FDCF2E"/>
<path d="M50.158 70.2244L28.6783 66.0818L30.5598 73.1809L50.1583 70.2396L50.1585 70.2243L50.158 70.2244Z" fill="#FDCF2E"/>
<path d="M30.5711 73.2068L32.6807 81.1902L49.8116 83.2934L30.5711 73.2068Z" fill="#FDF963"/>
<path d="M30.5454 73.2291L17.2825 75.2206L32.6706 81.2008L30.5454 73.2291Z" fill="#FDE22E"/>
<path d="M41.7189 20.8655L24.7553 40.1894L45.816 22.9111L41.7189 20.8655Z" fill="#FDF990"/>
<path d="M19.3247 57.8344L19.3064 57.9675L25.2619 63.0805L25.2619 63.0804L24.7297 40.2749L19.3247 57.8344Z" fill="#FDF990"/>
<path d="M24.7814 40.2059L24.7526 40.2548L25.2848 63.052L36.5237 46.2418L45.8184 22.914L24.7814 40.2059Z" fill="#FDE22E"/>
<path d="M50.5508 25.2593L45.8275 22.8976L36.5304 46.2226L50.5508 25.2593Z" fill="#FDCF2E"/>
<path d="M69.7353 73.4651L71.5307 66.4452L75.1545 63.5204L83.0101 75.7664L82.9299 75.7959L69.7149 73.5338L69.7353 73.4651Z" fill="#FDAC2E"/>
<path d="M81.2242 58.5194L83.1533 75.7116L83.0051 75.7661L75.1598 63.5096L81.2242 58.5194Z" fill="#FDE22E"/>
<path d="M55.3069 22.9614L50.6804 10.66L50.6799 10.6615L50.6805 10.5974L59.4413 20.9978L55.3069 22.9614Z" fill="#FDF990"/>
<path d="M75.1265 63.5154L71.6943 66.4505L64.2187 46.4822L75.1265 63.5154Z" fill="#FDCF2E"/>
<path d="M71.6626 66.459L64.1805 46.5034L50.5796 25.2942L50.5798 25.272L50.5725 25.283L50.5653 25.2718C50.5612 25.2854 50.5571 25.2989 50.5528 25.3124L36.5489 46.2244L28.6749 66.025L30.2882 66.3373L50.1215 70.1581C50.1219 70.1592 50.1224 70.1602 50.1228 70.161L50.1301 70.1599L50.1373 70.1612L50.1373 70.1587L70.0434 66.7386L71.6626 66.459Z" fill="#FDCF2E"/>
<path d="M50.5452 25.228L55.3003 22.9692L50.6881 10.7028L50.6885 10.6684L50.6878 10.6668L50.6811 10.6839L50.6746 10.6667L50.674 10.6682C50.6698 10.6897 50.6663 10.7099 50.6621 10.7314L45.8209 22.8734L50.5273 25.2262C50.5284 25.229 50.5294 25.2321 50.5306 25.2349L50.538 25.2315L50.5451 25.235L50.5452 25.228Z" fill="#FDCF2E"/>
<path d="M50.1529 70.1931L71.7092 66.4865L69.6894 73.546L50.1522 70.2083L50.1523 70.193L50.1529 70.1931Z" fill="#FDCF2E"/>
<path d="M50.1709 70.2559L50.1709 70.2537L50.1637 70.2546L50.1564 70.2535C50.1559 70.2543 50.1555 70.2551 50.1549 70.256L30.5721 73.1943L49.8159 83.2646L50.2543 83.269L69.6934 73.5865L50.1709 70.2559Z" fill="#FDAC2E"/>
<path d="M69.6959 73.5752L67.4305 81.514L50.2619 83.2684L69.6959 73.5752Z" fill="#FD802E"/>
<path d="M69.7196 73.5524L82.941 75.8132L67.439 81.4793L69.7196 73.5524Z" fill="#FDE22E"/>
<path d="M59.4716 21.0016L76.0506 40.664L55.335 22.9641L59.4716 21.0016Z" fill="#FDF963"/>
<path d="M81.1844 58.3795L81.2 58.5129L75.146 63.5048L75.146 63.5047L76.1231 40.7144L81.1844 58.3795Z" fill="#FDF963"/>
<path d="M76.0536 40.6804L76.0814 40.7299L75.1014 63.5118L64.1951 46.4779L55.3606 22.967L76.0536 40.6804Z" fill="#FDE22E"/>
<path d="M50.5633 25.2397L55.3321 22.9739L64.1688 46.4821L50.5633 25.2397Z" fill="#FDCF2E"/>
<path d="M70.1443 62.2447L66.5808 67.2808L66.5376 67.3023L66.5337 67.3291L71.6521 66.4326L71.6871 66.4371L70.1577 62.2919L70.1443 62.2447Z" fill="#FFF2C7"/>
<path d="M55.3153 22.9682L57.6483 29.3169L63.0545 43.4083L64.01 44.8167L62.4752 29.0568L62.4629 29.0464L55.3153 22.9682Z" fill="#FCFF7D"/>
<g opacity="0.433611">
<path d="M22.2891 62.5439C22.2891 62.5439 24.106 62.7759 24.839 62.3609C25.5 61.9865 25.9315 60.0686 25.9315 60.0686C25.9315 60.0686 25.9472 61.9419 26.3241 62.5415C26.6913 63.1254 28.5213 63.56 28.5213 63.56C28.5213 63.56 26.6918 63.2781 26.0941 63.826C25.4257 64.4383 24.8957 66.1682 24.8957 66.1682C24.8957 66.1682 25.2873 64.6293 24.7793 63.7239C24.3105 62.8889 22.2891 62.5439 22.2891 62.5439Z" fill="white"/>
</g>
<g opacity="0.910024">
<path d="M65.4904 48.9472C65.4904 48.9472 66.5888 52.714 68.0301 53.7984C69.33 54.7762 73.4625 53.9821 73.4625 53.9821C73.4625 53.9821 69.7999 55.6163 68.9457 56.8696C68.114 58.0905 68.826 62.0564 68.826 62.0564C68.826 62.0564 67.8146 58.2222 66.2285 57.5173C64.4554 56.7285 60.6076 57.1683 60.6076 57.1683C60.6076 57.1683 63.9623 56.6202 65.3043 54.8477C66.542 53.2124 65.4904 48.9472 65.4904 48.9472Z" fill="white"/>
</g>
<ellipse cx="50" cy="89.5" rx="33" ry="6.5" fill="black" fill-opacity="0.2"/>
</svg>
