<svg width="100" height="100" viewBox="0 0 100 100" fill="none" xmlns="http://www.w3.org/2000/svg">
<path d="M28.7336 18.3376C23.3939 25.9087 20.9394 32.2222 20.2583 37.7629C30.7629 32.5735 39.0348 21.6652 42.9017 13.6869L28.7336 18.3376Z" fill="#9663FA"/>
<path d="M20.2583 37.7629C30.1771 39.8277 40.1119 39.9078 50.0627 38.0031C49.6062 31.3717 46.9116 20.0748 42.9021 13.6521L20.2583 37.7629Z" fill="#C4A8FA"/>
<path d="M25.6072 61.6256C26.1116 55.8032 23.4769 47.0552 20.2582 37.7629C17.5911 35.6603 14.4648 35.8966 11.033 37.6886L25.6072 61.6256Z" fill="#9663FA"/>
<path d="M38.8255 63.8711L38.7894 63.8205L33.5574 61.4169L25.686 61.6963L49.6984 83.2037C48.094 75.9176 44.9656 69.2666 38.8255 63.8711Z" fill="#5B1AD9"/>
<path d="M50.0626 38.0032C47.3618 48.277 43.8981 57.3452 38.8255 63.8711C31.1928 57.2658 25.0037 48.563 20.2583 37.763L50.0626 38.0032Z" fill="#864BFA"/>
<path d="M20.2583 37.763L25.607 61.6256L25.686 61.6963L38.7895 63.8204L20.2583 37.763Z" fill="#6C2DE6"/>
<path d="M71.7061 18.6838C76.6059 26.6453 79.3262 33.1651 79.8672 38.2433C70.7018 32.5224 63.0469 21.3269 57.6146 13.8054L71.7061 18.6838Z" fill="#AB83FA"/>
<path d="M79.8673 38.2433C69.6251 41.1099 59.6488 41.4277 50.0627 38.0031C51.0801 30.6293 53.9433 19.5452 57.6148 13.7706L79.8673 38.2433Z" fill="#9663FA"/>
<path d="M71.7061 18.6838L79.8671 38.2433C82.954 40.6776 86.025 39.8614 89.0923 38.3177L71.7061 18.6838Z" fill="#9663FA"/>
<path d="M28.7335 18.3375L20.2582 37.7629L11.033 37.6886L28.7335 18.3375Z" fill="#C4A8FA"/>
<path d="M74.1345 62.0166C72.3977 55.9143 75.1455 47.5718 79.8673 38.2432L89.0924 38.3176L74.1345 62.0166Z" fill="#864BFA"/>
<path d="M50.0627 38.0032C52.0399 48.3952 55.226 57.5181 60.8816 64.0488C68.0878 58.7421 74.2128 49.3762 79.8672 38.2433L50.0627 38.0032Z" fill="#864BFA"/>
<path d="M49.6985 83.2037L74.1344 62.0167L74.1391 61.9977C70.6059 60.7147 66.4988 60.6686 60.7348 64.1939C55.2757 69.5493 51.729 75.9586 49.6985 83.2037Z" fill="#5B1AD9"/>
<path d="M60.8817 64.0488C60.8322 64.0968 60.784 64.1456 60.7348 64.1938L74.1391 61.9976L79.8673 38.2434L60.8817 64.0488Z" fill="#6C2DE6"/>
<path d="M42.9019 13.6868L50.0626 38.0031L57.6145 13.8054L42.9019 13.6868Z" fill="#AB83FA"/>
<path d="M60.853 64.0978C53.1713 59.378 45.8556 59.5521 38.8533 63.9206L49.6985 83.2036L60.853 64.0978Z" fill="#6C2DE6"/>
<path d="M60.8816 64.0487L50.0628 38.003L38.8255 63.871L38.8533 63.9206L60.853 64.0978L60.8816 64.0487Z" fill="#9663FA"/>
<path d="M50.0919 38.0243L47.9101 38.0279L48.7291 41.062L50.0896 38.0224L50.0851 38.0351L50.0919 38.0243Z" fill="#A880F7"/>
<path d="M21.2097 41.9861L25.6215 61.6669L25.6375 61.68L36.5609 63.5149L21.2097 41.9861Z" fill="#7E44F1"/>
<path d="M25.7298 61.7765L42.2848 76.597L46.2738 77.1811L38.845 63.941L25.7298 61.7765Z" fill="#6C2EE6"/>
<path d="M57.1891 55.142L60.8339 64.0946L79.8893 38.3025L70.1645 38.1799L57.1891 55.142Z" fill="#A880F7"/>
<g opacity="0.657011">
<path d="M42.6147 67.7451C42.6147 67.7451 42.1901 69.8266 42.6071 70.7098C42.9832 71.5064 45.1644 72.1693 45.1644 72.1693C45.1644 72.1693 42.9964 72.0273 42.2705 72.412C41.5636 72.7868 40.9035 74.866 40.9035 74.866C40.9035 74.866 41.3869 72.7743 40.8046 72.0362C40.1539 71.2108 38.1987 70.45 38.1987 70.45C38.1987 70.45 39.9449 71.0344 41.0357 70.5243C42.0418 70.0535 42.6147 67.7451 42.6147 67.7451Z" fill="white"/>
</g>
<path d="M78.696 32.4683C78.696 32.4683 79.8345 35.6971 81.1429 36.5721C82.323 37.3612 85.8871 36.4695 85.8871 36.4695C85.8871 36.4695 82.773 38.0704 82.0886 39.2037C81.4223 40.3076 82.2334 43.7284 82.2334 43.7284C82.2334 43.7284 81.1676 40.4368 79.7511 39.8994C78.1676 39.2979 74.8347 39.8671 74.8347 39.8671L78.8173 37.6182L78.696 32.4683Z" fill="white"/>
<ellipse cx="50" cy="89.5" rx="33" ry="6.5" fill="black" fill-opacity="0.2"/>
</svg>
