<svg width="100" height="100" viewBox="0 0 100 100" fill="none" xmlns="http://www.w3.org/2000/svg">
<path d="M88.1503 49.8542L88.149 49.8528L88.1489 49.8528L50.5882 11.323L12.0573 48.8816L49.6191 87.4128L88.1488 49.8554L88.1489 49.8555L88.1501 49.8544L88.1503 49.8542Z" fill="#03D6DF"/>
<path d="M88.3794 49.6234L88.3797 49.6231L88.3794 49.6234ZM88.3797 49.6231L88.3797 49.623L88.3797 49.6231Z" fill="#E884FF"/>
<path d="M24.6716 36.516L11.8279 49.0355L24.6716 36.516Z" fill="#E884FF"/>
<path d="M63.8561 63.1193L88.2933 49.697L64.2055 35.6533L63.8561 63.1193Z" fill="#03B8BE"/>
<path d="M12.0571 49.1125L49.6192 87.6436L12.0571 49.1125Z" fill="#E884FF"/>
<path d="M50.4323 11.175L50.4321 11.175L36.3892 35.2651L63.8565 35.6154L50.4323 11.175Z" fill="#6BF9FF"/>
<path d="M88.3018 49.6217L75.7825 36.7794L88.3018 49.6217Z" fill="#E884FF"/>
<path d="M49.8484 87.4126L88.3783 49.8554L88.3781 49.8554L49.8484 87.4126Z" fill="#E884FF"/>
<path d="M36.3509 63.1202L49.7752 87.5605L63.8184 63.4705L36.3509 63.1202Z" fill="#03B8BE"/>
<path d="M11.9106 49.0386L36.002 63.0824L36.3514 35.6164L11.9106 49.0386Z" fill="#6BF9FF"/>
<path d="M64.0164 35.8063L64.0032 35.7823L36.5548 35.4315L36.541 35.4551L36.517 35.4684L36.1675 62.9154L36.1911 62.9292L36.2043 62.9534L63.6527 63.3042L63.6665 63.2804L63.6905 63.2671L64.0401 35.8201L64.0164 35.8063Z" fill="#03D6DF"/>
<path d="M50.359 11.2459L24.6716 36.285L50.359 11.2459Z" fill="#F5CCFF"/>
<path d="M11.8279 48.8815L36.2876 35.4684L36.2881 35.4311L36.3255 35.4315L50.3589 11.3231L24.6716 36.362L11.8279 48.8815Z" fill="#3AE7EC"/>
<path d="M36.3519 35.4311L36.3514 35.4684L36.3754 35.4553L36.3892 35.4316L36.3519 35.4311Z" fill="#F5CCFF"/>
<path d="M75.5532 36.7794L50.5119 11.092L50.512 11.092L75.5532 36.7794Z" fill="#F5CCFF"/>
<path d="M88.3783 49.6246L88.3796 49.6233L88.3783 49.6246Z" fill="#F5CCFF"/>
<path d="M64.0032 35.5512L64.0405 35.5517L64.0401 35.589L88.1467 49.6229L88.149 49.6217L75.6296 36.7793L50.5883 11.092L64.0032 35.5512Z" fill="#3AE7EC"/>
<path d="M88.3783 49.6246L88.3785 49.6246L88.3798 49.6232L88.3799 49.6231L88.3783 49.6246Z" fill="#F5CCFF"/>
<path d="M64.0033 35.6155L64.0164 35.6395L64.0403 35.6533L64.0407 35.616L64.0033 35.6155Z" fill="#F5CCFF"/>
<path d="M36.167 63.1838L36.1674 63.1465L12.0572 49.1125L49.6192 87.6435L36.2042 63.1843L36.167 63.1838Z" fill="#3AE7EC"/>
<path d="M36.167 63.1197L36.2043 63.1202L36.1912 63.0963L36.1675 63.0824L36.167 63.1197Z" fill="#F5CCFF"/>
<path d="M88.3784 49.6216L88.3799 49.6235L88.3785 49.6216L88.3784 49.6216Z" fill="#F5CCFF"/>
<path d="M88.376 49.854L63.9199 63.2672L63.9194 63.3046L63.8821 63.3041L49.8486 87.4127L88.3782 49.8554L88.376 49.854Z" fill="#02979E"/>
<path d="M88.3801 49.6234L88.3783 49.6218L88.3801 49.6234Z" fill="#F5CCFF"/>
<path d="M63.8321 63.2806L63.8183 63.3042L63.8557 63.3046L63.8561 63.2673L63.8321 63.2806Z" fill="#F5CCFF"/>
<path d="M88.376 49.6227L88.3778 49.6238L88.3789 49.6228L88.3778 49.6217L88.376 49.6227Z" fill="#F5CCFF"/>
<path d="M15.5321 47.1281L11.8884 49.1478L36.1611 63.0434L36.1604 59.3786L15.5321 47.1281Z" fill="#A6FCFF"/>
<path d="M11.8846 49.1356L36.5878 74.2804L45.2511 79.4209L36.1924 63.1164L11.8846 49.1356Z" fill="#7AFAFF"/>
<g opacity="0.893663">
<path d="M45.0886 73.8364C45.0886 73.8364 45.271 76.9576 46.1978 78.0564C47.0336 79.0474 50.3862 79.1663 50.3862 79.1663C50.3862 79.1663 47.2491 79.7835 46.362 80.6049C45.4983 81.4051 45.345 84.6121 45.345 84.6121C45.345 84.6121 45.2422 81.454 44.1352 80.6242C42.898 79.6958 39.8298 79.3523 39.8298 79.3523C39.8298 79.3523 42.5341 79.524 43.8928 78.3862C45.1458 77.3364 45.0886 73.8364 45.0886 73.8364Z" fill="white"/>
</g>
<g opacity="0.207374">
<path d="M64.7739 58.8907C64.7739 58.8907 64.031 61.2565 64.4091 62.3328C64.7502 63.3036 67.203 64.3383 67.203 64.3383C67.203 64.3383 64.7029 63.9102 63.814 64.2688C62.9483 64.6183 61.9324 66.9529 61.9324 66.9529C61.9324 66.9529 62.7446 64.5823 62.1572 63.6544C61.5009 62.6168 59.3222 61.4958 59.3222 61.4958C59.3222 61.4958 61.2794 62.3866 62.607 61.9266C63.8316 61.502 64.7739 58.8907 64.7739 58.8907Z" fill="white"/>
</g>
</svg>
