<svg width="100" height="100" viewBox="0 0 100 100" fill="none" xmlns="http://www.w3.org/2000/svg">
<path d="M56.4389 11.5216L42.3317 11.7526L14.1434 40.875L14.3733 54.9812L43.4957 83.1653L57.6029 82.9343L85.7912 53.8119L85.5613 39.7057L56.4389 11.5216Z" fill="#00C702"/>
<path d="M75.3695 42.0414L74.9555 54.159L85.9917 54.0761L85.7616 39.9083L75.3695 42.0414Z" fill="#1AD31B"/>
<path d="M85.7772 53.2693L75.1401 52.5305L52.6112 68.8938L56.8773 83.2399L57.5837 83.2283L85.7912 54.1274L85.7772 53.2693Z" fill="#00A202"/>
<path d="M55.1589 72.6436L45.0219 72.9169L43.2493 83.3868L57.3835 83.1569L55.1589 72.6436Z" fill="#008601"/>
<path d="M54.5617 21.9127L44.5466 22.0767L24.5351 42.7513L24.6983 52.7657L45.3729 72.7743L55.3881 72.6103L75.3996 51.9357L75.2364 41.9213L54.5617 21.9127Z" fill="#1CE61D"/>
<path d="M51.9459 63.6849L48.5224 63.741C47.5086 63.7576 46.5493 63.3785 45.8208 62.6735L34.7797 51.9882C34.0512 51.2832 33.6409 50.3367 33.6244 49.3232L33.5686 45.8998C33.5521 44.8862 33.9313 43.9268 34.6365 43.1983L45.3234 32.1573C46.0285 31.4289 46.975 31.0185 47.9887 31.0019L51.4123 30.9458C52.4261 30.9292 53.3854 31.3084 54.1138 32.0134L65.1549 42.6987C65.8834 43.4037 66.2937 44.3501 66.3103 45.3637L66.3661 48.7871C66.3826 49.8006 66.0033 50.7601 65.2982 51.4885L54.6112 62.5295C53.9061 63.258 52.9597 63.6683 51.9459 63.6849ZM47.9963 31.4635C47.1059 31.4781 46.2745 31.8385 45.6551 32.4784L34.9682 43.5194C34.3487 44.1593 34.0158 45.002 34.0303 45.8922L34.0861 49.3156C34.1006 50.2059 34.4608 51.0372 35.1008 51.6564L46.1419 62.3418C46.7817 62.961 47.6244 63.294 48.5148 63.2794L51.9384 63.2234C52.8288 63.2088 53.6601 62.8484 54.2795 62.2085L64.9665 51.1674C65.5859 50.5276 65.9189 49.685 65.9044 48.7947L65.8486 45.3713C65.8341 44.4811 65.4738 43.6497 64.8339 43.0304L53.7928 32.3451C53.1528 31.7259 52.3102 31.3929 51.4198 31.4075L47.9963 31.4635Z" fill="#00C702"/>
<path d="M14.1169 54.7244L24.5051 52.5908L24.4491 42.4513L13.9972 40.6607L14.1169 54.7244Z" fill="#00A202"/>
<path d="M44.6128 22.1002L42.4768 11.4954L56.6487 11.2649L54.8568 21.7165L44.6128 22.1002Z" fill="#36FF36"/>
<path d="M51.9459 63.6849L48.5223 63.741C47.5086 63.7575 46.5493 63.3785 45.8208 62.6735L34.7797 51.9882C34.0512 51.2832 33.6409 50.3367 33.6244 49.3232L33.5686 45.8998C33.5521 44.8862 33.9313 43.9268 34.6365 43.1983L45.3234 32.1573C46.0285 31.4289 46.975 31.0185 47.9887 31.0019L51.4123 30.9458C52.4261 30.9292 53.3854 31.3084 54.1138 32.0134L65.1549 42.6987C65.8834 43.4037 66.2937 44.3501 66.3103 45.3637L66.3661 48.7871C66.3826 49.8006 66.0033 50.7601 65.2982 51.4885L54.6112 62.5295C53.9061 63.258 52.9597 63.6683 51.9459 63.6849ZM47.9962 31.4635C47.1059 31.4781 46.2744 31.8385 45.6551 32.4784L34.9682 43.5193C34.3487 44.1593 34.0158 45.002 34.0303 45.8922L34.0861 49.3156C34.1006 50.2059 34.4608 51.0372 35.1008 51.6564L46.1419 62.3418C46.7817 62.961 47.6244 63.294 48.5148 63.2794L51.9384 63.2233C52.8288 63.2088 53.6601 62.8484 54.2795 62.2085L64.9665 51.1674C65.5859 50.5276 65.9189 49.685 65.9044 48.7947L65.8486 45.3713C65.8341 44.4811 65.4738 43.6497 64.8339 43.0304L53.7928 32.3451C53.1528 31.7259 52.3102 31.3929 51.4198 31.4075L47.9962 31.4635Z" fill="#00C702"/>
</svg>
