<svg width="100" height="100" viewBox="0 0 100 100" fill="none" xmlns="http://www.w3.org/2000/svg">
<path d="M58.0886 73.2348L40.2943 72.629C37.723 69.8583 35.5107 67.4745 32.9393 64.7038L33.9567 32.7052L41.7992 25.2975L59.5935 25.9033C62.1648 28.6739 64.3771 31.0578 66.9484 33.8284L65.931 65.827C63.1894 68.4168 60.8304 70.645 58.0886 73.2348Z" fill="#367CF0"/>
<path d="M65.8776 65.0706L71.8491 68.7163L76.3189 74.5592L64.9682 85.2161L59.2175 80.0039L58.3778 72.1043L65.8776 65.0706Z" fill="#1A60D5"/>
<path d="M33.7643 64.5687L27.5875 68.2679L22.7382 73.3325L33.3946 84.733L38.0326 79.9884L40.7975 72.093L33.7643 64.5687Z" fill="#2C71E2"/>
<path d="M41.0417 72.0092L33.5721 84.3967L64.8885 85.3933L58.2331 72.5563L41.0417 72.0092Z" fill="#0F55C4"/>
<path d="M66.4933 13.7991L77.1497 25.1995L72.7761 30.3157L66.1237 33.9636L59.0903 26.4391L61.4911 19.7916L66.4933 13.7991Z" fill="#498EFF"/>
<path d="M66.3158 14.1355L58.8461 26.5229L41.6547 25.9758L37.6024 21.072L34.9995 13.1389L66.3158 14.1355Z" fill="#73A6F9"/>
<path d="M66.7145 34.1043L77.3083 25.2382L75.8668 74.4007L65.814 64.816L66.7145 34.1043Z" fill="#2C71E2"/>
<path d="M24.0211 24.1315L31.2367 28.2757L34.0738 33.7163L33.1733 64.4279L22.5795 73.2941L24.0211 24.1315Z" fill="#498EFF"/>
<path d="M34.9299 13.3232L41.5178 26.4368L34.0207 33.4641L23.5706 23.9703L34.9299 13.3232Z" fill="#93BBFF"/>
<path d="M54.8188 64.4763L44.1231 64.1096L41.373 61.1246L42.1371 36.846L45.0689 34.0558L55.7646 34.4224L58.5147 37.4075L57.7506 61.686L54.8188 64.4763ZM44.2973 63.7182L54.6696 64.0738L57.3653 61.5082L58.119 37.5585L55.5904 34.8139L45.2181 34.4583L42.5225 37.0239L41.7688 60.9735L44.2973 63.7182Z" fill="#2C71E2"/>
<path d="M40.8566 24.5976L32.3189 31.8083L34.1899 33.4304L41.6534 26.2129L40.8566 24.5976Z" fill="#CBDEFF"/>
<path d="M62.2511 30.2283C62.2511 30.2283 58.8419 37.6732 51.2749 42.3391C43.7079 47.005 34.076 49.7956 34.076 49.7956L33.7333 64.201L40.9504 71.7248L43.9165 71.7543C43.9165 71.7543 50.8558 67.9476 56.1765 64.4609C61.4973 60.9742 65.6089 57.537 65.6089 57.537L66.1823 34.4432L62.2595 30.233L62.2511 30.2283Z" fill="#8BB7FF"/>
<path d="M33.6629 64.4274L28.1815 68.8822L31.7784 73.2209L36.7492 79.217L40.9909 71.9183L40.8997 71.8251L33.6629 64.4274Z" fill="#4285F2"/>
<path d="M54.8133 64.4769L44.1219 64.1127L41.3737 61.128L42.1431 36.8464L45.0744 34.0551L55.7658 34.4193L58.514 37.4041L57.7446 61.6857L54.8133 64.4769ZM44.2961 63.7212L54.6642 64.0744L57.3594 61.5079L58.1185 37.5552L55.5916 34.8108L45.2235 34.4576L42.5284 37.0242L41.7693 60.9768L44.2961 63.7212Z" fill="#2C71E2"/>
<g opacity="0.114728">
<path d="M32.1363 33.6674C32.1363 33.6674 33.4428 33.5015 33.8787 33.0817C34.2719 32.703 34.2284 31.2948 34.2284 31.2948C34.2284 31.2948 34.5752 32.5916 34.9451 32.9398C35.3054 33.2787 36.6574 33.251 36.6574 33.251C36.6574 33.251 35.3331 33.3846 35.0152 33.8723C34.6596 34.4173 34.6008 35.7128 34.6008 35.7128C34.6008 35.7128 34.5975 34.5747 34.0815 34.038C33.6055 33.5431 32.1363 33.6674 32.1363 33.6674Z" fill="white"/>
</g>
<g opacity="0.452807">
<path d="M58.5172 65.2164C58.5172 65.2164 58.8015 68.8987 59.9207 70.1756C60.9301 71.3271 64.8939 71.392 64.8939 71.392C64.8939 71.392 61.2009 72.1916 60.1709 73.1817C59.168 74.1463 59.0574 77.9374 59.0574 77.9374C59.0574 77.9374 58.8664 74.2099 57.5403 73.2547C56.058 72.1861 52.4253 71.8496 52.4253 71.8496C52.4253 71.8496 55.6243 71.9913 57.2045 70.6169C58.6619 69.3489 58.5172 65.2164 58.5172 65.2164Z" fill="white"/>
</g>
<ellipse cx="50" cy="89.5" rx="33" ry="6.5" fill="black" fill-opacity="0.2"/>
</svg>
