<svg height="512pt" viewBox="0 0 512 512" width="512pt" xmlns="http://www.w3.org/2000/svg"><g fill="#cfd8dc"><path d="m341.332031 448h-288c-29.394531 0-53.332031-23.9375-53.332031-53.332031v-293.335938c0-11.773437 9.558594-21.332031 21.332031-21.332031 11.777344 0 21.335938 9.558594 21.335938 21.332031v293.335938c0 5.886719 4.777343 10.664062 10.664062 10.664062h288c11.757813 0 21.335938-9.578125 21.335938-21.332031v-277.332031c0-11.777344 9.554687-21.335938 21.332031-21.335938s21.332031 9.558594 21.332031 21.335938v277.332031c0 35.285156-28.714843 64-64 64zm0 0"/><path d="m385.492188 234.667969h-364.160157c-11.773437 0-21.332031-9.558594-21.332031-21.335938 0-11.773437 9.558594-21.332031 21.332031-21.332031h364.160157c11.777343 0 21.335937 9.558594 21.335937 21.332031 0 11.777344-9.558594 21.335938-21.335937 21.335938zm0 0"/><path d="m384 341.332031h-362.667969c-11.773437 0-21.332031-9.554687-21.332031-21.332031s9.558594-21.332031 21.332031-21.332031h362.667969c11.777344 0 21.332031 9.554687 21.332031 21.332031s-9.554687 21.332031-21.332031 21.332031zm0 0"/><path d="m202.667969 448c-11.777344 0-21.335938-9.558594-21.335938-21.332031v-298.667969c0-11.777344 9.558594-21.332031 21.335938-21.332031 11.773437 0 21.332031 9.554687 21.332031 21.332031v298.667969c0 11.773437-9.558594 21.332031-21.332031 21.332031zm0 0"/></g><path d="m357.332031 0h-309.332031c-26.515625 0-48 21.484375-48 48v80h405.332031v-80c0-26.515625-21.480469-48-48-48zm0 0" fill="#2196f3"/><path d="m512 251.734375c0 11.519531-4.480469 22.1875-12.585938 30.292969l-52.695312 52.691406-90.453125-90.453125 52.695313-52.691406c16.640624-16.855469 43.730468-16.640625 60.371093 0l30.082031 30.078125c8.105469 8.109375 12.585938 18.773437 12.585938 30.082031zm0 0" fill="#607d8b"/><path d="m446.71875 334.71875-150.824219 150.828125c-1.496093 1.492187-3.203125 2.558594-5.121093 2.988281l-98.773438 23.25c-.640625.214844-1.492188.214844-2.347656.214844-2.773438 0-5.546875-1.066406-7.464844-3.199219-2.773438-2.5625-3.839844-6.402343-2.988281-9.8125l23.253906-98.773437c.425781-1.921875 1.492187-3.628906 2.988281-5.121094l150.824219-150.828125zm0 0" fill="#90a4ae"/></svg>