<svg width="297" height="297" viewBox="0 0 297 297" fill="none" xmlns="http://www.w3.org/2000/svg">
<g clip-path="url(#clip0)">
<path d="M167.364 48.003V25H177.864C184.767 25 190.364 19.403 190.364 12.5C190.364 5.597 184.768 0 177.864 0H118.364C111.461 0 105.864 5.597 105.864 12.5C105.864 19.403 111.461 25 118.364 25H128.864V48.003C69.1258 57.288 23.2598 109.074 23.2598 171.373C23.2598 240.218 79.2698 296.227 148.114 296.227C216.958 296.227 272.968 240.217 272.968 171.373C272.968 109.074 227.102 57.288 167.364 48.003V48.003ZM148.114 271.228C93.0538 271.228 48.2598 226.433 48.2598 171.374C48.2598 116.315 93.0548 71.52 148.114 71.52C203.173 71.52 247.968 116.315 247.968 171.374C247.968 226.433 203.174 271.228 148.114 271.228V271.228Z" fill="white"/>
<path d="M160.614 166.18V107.291C160.614 100.388 155.017 94.791 148.114 94.791C141.211 94.791 135.614 100.388 135.614 107.291V173.391C135.614 175.424 136.424 177.373 137.864 178.807L172.833 213.629C177.726 218.501 185.639 218.483 190.511 213.592C195.382 208.7 195.365 200.785 190.474 195.914L160.614 166.18V166.18Z" fill="white"/>
</g>
<defs>
<clipPath id="clip0">
<rect width="296.228" height="296.228" fill="white"/>
</clipPath>
</defs>
</svg>
