<svg id="Flat" height="512" viewBox="0 0 512 512" width="512" xmlns="http://www.w3.org/2000/svg"><path d="m192 88h288v160h-288z" fill="#35a872" transform="matrix(0 -1 1 0 168 504)"/><path d="m288 72v192a16 16 0 0 1 16 16h64a16 16 0 0 1 16-16v-192a16 16 0 0 1 -16-16h-64a16 16 0 0 1 -16 16z" fill="#20754d"/><ellipse cx="336" cy="168" fill="#3dc285" rx="48" ry="32"/><rect fill="#ffd33a" height="272" rx="32" width="192" x="96" y="56"/><path d="m144 56h48v272h-48z" fill="#7e8589"/><path d="m256 128a8 8 0 0 1 -8-8v-32a8 8 0 0 1 16 0v32a8 8 0 0 1 -8 8z" fill="#7e8589"/><rect fill="#8c5237" height="304" rx="16" width="384" x="64" y="184"/><g fill="#ad6643"><path d="m448 440v32a16 16 0 0 1 -16 16h-352a16 16 0 0 1 -16-16v-32.42z"/><path d="m448 200v32h-384v-32a16 16 0 0 1 16-16h352a16 16 0 0 1 16 16z"/><rect height="96.311" rx="16" width="192" x="280" y="287.689"/></g><circle cx="328" cy="336" fill="#8c5237" r="16"/></svg>