<svg xmlns="http://www.w3.org/2000/svg" viewBox="0 0 140 140"><defs><style>.cls-1{fill:#fed02f;}.cls-2{fill:#fe932f;}.cls-3{fill:#fe5c2f;}.cls-4{fill:#fdb32b;}.cls-5{fill:#ffe587;}.cls-6{fill:#fff5d1;}.cls-7{fill:#ffefb3;}</style></defs><title>Artboard 32</title><g id="Layer_2" data-name="Layer 2"><path class="cls-1" d="M115.57,75.92a48,48,0,0,0,1.13-7.64,1,1,0,0,0-1.66-.8c-.49.45-1,.9-1.48,1.34A9.54,9.54,0,0,0,116.64,61a47.39,47.39,0,0,0-2.58-11.88,1.23,1.23,0,0,0-2.24-.14c-.27.5-.53,1-.81,1.53a8.71,8.71,0,0,0,0-8.25,47.58,47.58,0,0,0-9.47-12.08.71.71,0,0,0-1.19.43c-.1.72-.21,1.49-.32,2.27a6.4,6.4,0,0,0-2.57-6.06,47.26,47.26,0,0,0-10.84-6,1.84,1.84,0,0,0-2.45,2.22c3.57,12.16,6,33.9,1.19,47C83.64,74.64,82,79.35,80.66,84H59.34c-1.36-4.65-3-9.36-4.66-13.9-4.84-13.14-2.38-34.88,1.19-47a1.84,1.84,0,0,0-2.45-2.22,47.26,47.26,0,0,0-10.84,6A6.4,6.4,0,0,0,40,32.88c-.11-.78-.22-1.55-.32-2.27a.71.71,0,0,0-1.19-.43A47.58,47.58,0,0,0,29,42.26a8.71,8.71,0,0,0,0,8.25L28.18,49a1.23,1.23,0,0,0-2.24.14A47.39,47.39,0,0,0,23.36,61a9.54,9.54,0,0,0,3.08,7.82c-.5-.44-1-.89-1.48-1.34a1,1,0,0,0-1.66.8,48,48,0,0,0,1.13,7.64,12.11,12.11,0,0,0,7.43,8.47C30.91,84,30,83.66,29,83.28a1.19,1.19,0,0,0-1.54,1.58,48.74,48.74,0,0,0,2.69,5,8.36,8.36,0,0,0,7,3.92l-1.34,0a1.39,1.39,0,0,0-1.11,2.28c.6.7,1.22,1.38,1.87,2.05a7,7,0,0,0,7.06,1.77c-.72.24-1.45.48-2.19.7a1,1,0,0,0-.32,1.66c.71.57,1.43,1.11,2.17,1.63a5.12,5.12,0,0,0,5.94,0c-.55.41-1.1.82-1.66,1.22a.88.88,0,0,0,.06,1.49,46.85,46.85,0,0,0,13.79,5.07A22.07,22.07,0,0,0,62.48,107h15a22.07,22.07,0,0,0,1.08,4.68,46.85,46.85,0,0,0,13.79-5.07.88.88,0,0,0,.06-1.49c-.56-.4-1.11-.81-1.66-1.22a5.12,5.12,0,0,0,5.94,0c.74-.52,1.46-1.06,2.17-1.63a1,1,0,0,0-.32-1.66c-.74-.22-1.47-.46-2.19-.7a7,7,0,0,0,7.06-1.77c.65-.67,1.27-1.35,1.87-2.05a1.39,1.39,0,0,0-1.11-2.28l-1.34,0a8.36,8.36,0,0,0,6.95-3.92,48.74,48.74,0,0,0,2.69-5A1.19,1.19,0,0,0,111,83.28c-.93.38-1.88.75-2.83,1.11A12.11,12.11,0,0,0,115.57,75.92Z"/><path class="cls-1" d="M60,86.43c-1.47-5.43-3.39-11-5.36-16.33-4.84-13.14-2.38-34.88,1.19-47a1.84,1.84,0,0,0-2.45-2.22,47.26,47.26,0,0,0-10.84,6A6.4,6.4,0,0,0,40,32.9C42.24,48.21,47.76,74.93,60,86.43Z"/><path class="cls-2" d="M60.71,89.06l0-.59C49,87.24,35.62,77.35,25,67.48a1,1,0,0,0-1.66.8,48,48,0,0,0,1.13,7.64,12.12,12.12,0,0,0,7.5,8.51C42,88.26,52.41,90.67,60.71,89.06Z"/><path class="cls-2" d="M60.37,87.7l.4-.6C47.32,75.43,41.72,45.66,39.69,30.61a.71.71,0,0,0-1.19-.43A47.58,47.58,0,0,0,29,42.26a8.7,8.7,0,0,0,0,8.26C36.37,64.51,47.7,82,60.37,87.7Z"/><path class="cls-1" d="M61.51,91l-.61-.49C56.19,95,49.17,98.24,41.42,100.59a1,1,0,0,0-.32,1.66c.71.57,1.43,1.11,2.17,1.63a5.12,5.12,0,0,0,6,0C54.5,100,58.87,95.64,61.51,91Z"/><path class="cls-2" d="M61.25,91.41c-3,5-7.9,9.61-13.7,13.71a.88.88,0,0,0,.06,1.49,46.85,46.85,0,0,0,13.79,5.07C63.38,106.22,62.91,99.08,61.25,91.41Z"/><path class="cls-2" d="M60.77,89.71c-6.59,3.43-15.62,4.4-25,4.08a1.39,1.39,0,0,0-1.11,2.28c.6.7,1.22,1.38,1.87,2.05a6.94,6.94,0,0,0,7.2,1.73c7-2.32,13.16-5.44,17.41-9.61Z"/><path class="cls-1" d="M28.18,49a1.23,1.23,0,0,0-2.24.14A47.39,47.39,0,0,0,23.36,61a9.55,9.55,0,0,0,3.13,7.88C36.76,78.16,49.24,87.1,60.3,88.42l.17-.68C47.28,81.92,35.55,63.22,28.18,49Z"/><path class="cls-1" d="M60.86,89.66l-.21-.59c-9.1,1.74-20.72-1.32-31.62-5.79a1.19,1.19,0,0,0-1.54,1.58,48.74,48.74,0,0,0,2.69,5,8.36,8.36,0,0,0,7,3.92C46.08,94,54.59,93,60.86,89.66Z"/><path class="cls-1" d="M80,86.43c1.47-5.43,3.39-11,5.36-16.33,4.84-13.14,2.38-34.88-1.19-47a1.84,1.84,0,0,1,2.45-2.22,47.26,47.26,0,0,1,10.84,6A6.4,6.4,0,0,1,100,32.9C97.76,48.21,92.24,74.93,80,86.43Z"/><path class="cls-2" d="M79.29,89.06l0-.59C91,87.24,104.38,77.35,115,67.48a1,1,0,0,1,1.66.8,48,48,0,0,1-1.13,7.64,12.12,12.12,0,0,1-7.5,8.51C98,88.26,87.59,90.67,79.29,89.06Z"/><path class="cls-2" d="M79.63,87.7l-.4-.6c13.45-11.67,19-41.44,21.08-56.49a.71.71,0,0,1,1.19-.43A47.58,47.58,0,0,1,111,42.26a8.7,8.7,0,0,1,0,8.26C103.63,64.51,92.3,82,79.63,87.7Z"/><path class="cls-1" d="M78.49,91l.61-.49c4.71,4.51,11.73,7.76,19.48,10.11a1,1,0,0,1,.32,1.66c-.71.57-1.43,1.11-2.17,1.63a5.12,5.12,0,0,1-6,0C85.5,100,81.13,95.64,78.49,91Z"/><path class="cls-2" d="M78.75,91.41c3,5,7.9,9.61,13.7,13.71a.88.88,0,0,1-.06,1.49,46.85,46.85,0,0,1-13.79,5.07C76.62,106.22,77.09,99.08,78.75,91.41Z"/><path class="cls-2" d="M79.23,89.71c6.59,3.43,15.62,4.4,25,4.08a1.39,1.39,0,0,1,1.11,2.28c-.6.7-1.22,1.38-1.87,2.05a6.94,6.94,0,0,1-7.2,1.73c-7-2.32-13.16-5.44-17.41-9.61Z"/><path class="cls-1" d="M111.82,49a1.23,1.23,0,0,1,2.24.14A47.39,47.39,0,0,1,116.64,61a9.55,9.55,0,0,1-3.13,7.88C103.24,78.16,90.76,87.1,79.7,88.42l-.17-.68C92.72,81.92,104.45,63.22,111.82,49Z"/><path class="cls-1" d="M79.14,89.66l.21-.59c9.1,1.74,20.72-1.32,31.62-5.79a1.19,1.19,0,0,1,1.54,1.58,48.74,48.74,0,0,1-2.69,5,8.36,8.36,0,0,1-7,3.92C93.92,94,85.41,93,79.14,89.66Z"/><path class="cls-3" d="M52.33,87.1,43.06,99.24s.16.53.41,1.41A7.51,7.51,0,0,0,42,105a4,4,0,0,1,2.14-1.85c.17.68.36,1.43.54,2.22A7.58,7.58,0,0,0,43,110a4,4,0,0,1,2.26-1.9c.15.76.29,1.52.41,2.28A7.61,7.61,0,0,0,44,115a4.09,4.09,0,0,1,2-1.81,13.48,13.48,0,0,1-.26,5.13c-1.64,4.93,4.05-2.94,2.41-6.22s-2.41-11.86-2.41-11.86,4.21-5.85,7-6.62S52.33,87.1,52.33,87.1Z"/><path class="cls-3" d="M87.61,87.1l9.27,12.14s-.16.53-.41,1.41A7.51,7.51,0,0,1,97.94,105a4,4,0,0,0-2.14-1.85c-.17.68-.35,1.43-.54,2.22A7.58,7.58,0,0,1,96.94,110a4,4,0,0,0-2.26-1.9c-.15.76-.29,1.52-.41,2.28A7.61,7.61,0,0,1,95.94,115a4.09,4.09,0,0,0-2-1.81,13.68,13.68,0,0,0,.26,5.13c1.65,4.93-4.05-2.94-2.4-6.22s2.4-11.86,2.4-11.86-4.21-5.85-7-6.62S87.61,87.1,87.61,87.1Z"/><path class="cls-4" d="M54.59,28.06A26,26,0,0,0,54.65,70C50.46,58.49,51.81,40.51,54.59,28.06Z"/><path class="cls-4" d="M96,49A26,26,0,0,0,85.41,28.06c2.78,12.45,4.13,30.43-.06,41.92A25.94,25.94,0,0,0,96,49Z"/><path class="cls-3" d="M85.59,37.65A3.62,3.62,0,0,0,85.76,35a4.76,4.76,0,0,1,1.55,4.25c.71.64,1.41,1.25,2.09,1.81A3.83,3.83,0,0,0,89.76,38a4.75,4.75,0,0,1,1.51,4.5,10.36,10.36,0,0,0,1.79,1s-.13,1.93-.24,4.52a3.63,3.63,0,0,0,2-1.58,4.81,4.81,0,0,1-2.08,3.9c-.12,3.84-.13,8.23.32,10a1.32,1.32,0,0,1,0,.49A6.92,6.92,0,0,1,94.14,65,22.45,22.45,0,0,0,92,63.15c-2.57,3.42-8.62,7.95-8.62,7.95L82,68.43s9.12-6.22,9.22-8c.13-2.16-.9-16-.9-16s-8.32-8-9.71-8.89-1.39-4.44-1.39-4.44S82.2,34.41,85.59,37.65Z"/><path class="cls-3" d="M54.41,37.65A3.62,3.62,0,0,1,54.24,35a4.76,4.76,0,0,0-1.55,4.25c-.71.64-1.41,1.25-2.09,1.81A3.83,3.83,0,0,1,50.24,38a4.75,4.75,0,0,0-1.51,4.5,10.36,10.36,0,0,1-1.79,1s.13,1.93.24,4.52a3.63,3.63,0,0,1-2-1.58,4.81,4.81,0,0,0,2.08,3.9c.12,3.84.13,8.23-.32,10a1.32,1.32,0,0,0,0,.49A6.92,6.92,0,0,0,45.86,65,22.45,22.45,0,0,1,48,63.15c2.57,3.42,8.62,7.95,8.62,7.95L58,68.43s-9.12-6.22-9.22-8c-.13-2.16.9-16,.9-16s8.32-8,9.71-8.89,1.39-4.44,1.39-4.44S57.8,34.41,54.41,37.65Z"/><path class="cls-3" d="M56.43,70.1a27.74,27.74,0,0,0-6,17.63C50.46,101.27,59.21,115,70,115s19.54-13.73,19.54-27.27a27.74,27.74,0,0,0-6-17.63Z"/><path class="cls-3" d="M82.5,69h-25l2.32-4.18C61.44,61.92,65.48,60,70,60h0c4.52,0,8.56,1.92,10.18,4.82Z"/><path class="cls-5" d="M50,88.16c0,12.41,7.16,25,16.58,27.48A1.93,1.93,0,0,0,69,113.77V70.1H56.11A28.47,28.47,0,0,0,50,88.16Z"/><path class="cls-5" d="M83.89,70.1H71v43.67a1.93,1.93,0,0,0,2.42,1.87C82.84,113.12,90,100.57,90,88.16A28.47,28.47,0,0,0,83.89,70.1Z"/><path class="cls-3" d="M80.79,66.55,70,68.1,59.21,66.55a3.92,3.92,0,0,0-4.49,4.29A8.56,8.56,0,0,0,56,74.25c3,4.85,11,1.85,14,8.85,3-7,11-4,14-8.85a8.56,8.56,0,0,0,1.28-3.41A3.92,3.92,0,0,0,80.79,66.55Z"/><circle class="cls-5" cx="70" cy="33.65" r="13.65"/><ellipse class="cls-6" cx="70" cy="28.87" rx="10.01" ry="7.51"/><ellipse class="cls-7" cx="70" cy="44.58" rx="3.64" ry="1.37"/><path class="cls-5" d="M66,61.08A21.09,21.09,0,0,1,61.3,64.6a.58.58,0,0,1-.81-.67c.37-1.33,1.54-3.45,5.25-3.52A.39.39,0,0,1,66,61.08Z"/><path class="cls-5" d="M74,61.08a20.56,20.56,0,0,0,4.73,3.51.58.58,0,0,0,.8-.7c-.39-1.34-1.57-3.42-5.24-3.48A.39.39,0,0,0,74,61.08Z"/></g></svg>