<svg id="e5a5u1v1u3t61" xmlns="http://www.w3.org/2000/svg" xmlns:xlink="http://www.w3.org/1999/xlink" viewBox="0 0 140 140" shape-rendering="geometricPrecision" text-rendering="geometricPrecision"><defs><clipPath id="e5a5u1v1u3t62"><rect id="e5a5u1v1u3t63" width="140" height="140" rx="0" ry="0" fill="rgb(0,0,0)" stroke="none" stroke-width="1"/></clipPath></defs><g id="e5a5u1v1u3t64" clip-path="url(#e5a5u1v1u3t62)"><g id="e5a5u1v1u3t65" transform="matrix(1 0 0 1 -0.25000000000000 -0.25000000000000)" opacity="0"><g id="e5a5u1v1u3t66" transform="matrix(1 0 0 1 70.25000000000000 70.25000000000000)"><path id="e5a5u1v1u3t67" d="M52.055000,-60C56.436001,-60,60,-56.436001,60,-52.055000C60,-52.055000,60,52.055000,60,52.055000C60,56.436001,56.436001,60,52.055000,60C52.055000,60,-52.055000,60,-52.055000,60C-56.436001,60,-60,56.436001,-60,52.055000C-60,52.055000,-60,-52.055000,-60,-52.055000C-60,-56.436001,-56.436001,-60,-52.055000,-60C-52.055000,-60,52.055000,-60,52.055000,-60ZM52.055000,-70C52.055000,-70,-52.055000,-70,-52.055000,-70C-61.966000,-70,-70,-61.966000,-70,-52.055000C-70,-52.055000,-70,52.055000,-70,52.055000C-70,61.966000,-61.966000,70,-52.055000,70C-52.055000,70,52.055000,70,52.055000,70C61.966000,70,70,61.966000,70,52.055000C70,52.055000,70,-52.055000,70,-52.055000C70,-61.966000,61.966000,-70,52.055000,-70Z" fill="rgb(254,208,47)" stroke="none" stroke-width="1"/></g></g><g id="e5a5u1v1u3t68" transform="matrix(1 0 0 1 70 70)" opacity="0"><g id="e5a5u1v1u3t69"><path id="e5a5u1v1u3t610" d="M70,-34C70,-34,60.125000,-27.875000,60.125000,-27.875000C60.125000,-27.875000,60.125000,-5.625000,60.125000,-5.625000C60.125000,-5.625000,70,-16.625000,70,-16.625000C70,-16.625000,70,-34,70,-34Z" fill="rgb(255,229,135)" stroke="none" stroke-width="1"/></g></g><g id="e5a5u1v1u3t611" transform="matrix(1 0 0 1 70.00100000000000 70)" opacity="0"><g id="e5a5u1v1u3t612"><path id="e5a5u1v1u3t613" d="M0.125000,59.875000C0.125000,59.875000,-29.375000,59.875000,-29.375000,59.875000C-29.375000,59.875000,-32.820999,62.187000,-35.223000,64.905998C-37.625000,67.625000,-41,69.875000,-41,69.875000C-41,69.875000,-9.500000,70.125000,-9.500000,70.125000C-9.500000,70.125000,-7.034000,67.827003,-5.017000,65.350998C-3,62.875000,0.125000,59.875000,0.125000,59.875000Z" fill="rgb(255,229,135)" stroke="none" stroke-width="1"/></g></g><g id="e5a5u1v1u3t614" transform="matrix(1 0 0 1 70 70)"><g id="e5a5u1v1u3t615"><path id="e5a5u1v1u3t616" d="M16.750000,-43.250000C16.750000,-43.250000,21.500000,1.250000,21.500000,1.250000C21.500000,1.250000,-3,10.750000,-3,10.750000C-3,10.750000,-22,-4.250000,-22,-4.250000C-22,-4.250000,-26.500000,-41.500000,-26.500000,-41.500000C-26.500000,-41.500000,-31.500000,-38,-31.500000,-38C-31.500000,-38,-39.500000,-24,-39.500000,-24C-39.500000,-24,-42,-19.750000,-42,-19.750000C-42,-19.750000,-44,-6.500000,-44,-6.500000C-44,-6.500000,-44.250000,-2.250000,-44.250000,-2.250000C-44.250000,-2.250000,-40,10.750000,-40,10.750000C-40,10.750000,-38.500000,15.250000,-38.500000,15.250000C-38.500000,15.250000,-34.750000,20.500000,-34.750000,20.500000C-34.750000,20.500000,-33.250000,23.250000,-33.250000,23.250000C-33.250000,23.250000,-28.750000,27.250000,-28.750000,27.250000C-28.750000,27.250000,-26.250000,30.500000,-26.250000,30.500000C-26.250000,30.500000,26.250000,30.750000,26.250000,30.750000C26.250000,30.750000,30.250000,27.750000,30.250000,27.750000C30.250000,27.750000,35.250000,20.500000,35.250000,20.500000C35.250000,20.500000,41.750000,9,41.750000,9C41.750000,9,44.750000,-0.750000,44.750000,-0.750000C44.750000,-0.750000,44.250000,-5.750000,44.250000,-5.750000C44.250000,-5.750000,42,-18,42,-18C42,-18,39.500000,-22,39.500000,-22C39.500000,-22,32,-35.250000,32,-35.250000C32,-35.250000,28,-38.500000,28,-38.500000C28,-38.500000,16.750000,-43.250000,16.750000,-43.250000Z" fill="rgb(254,208,47)" stroke="none" stroke-width="1"/></g></g><g id="e5a5u1v1u3t617"><g id="e5a5u1v1u3t618" transform="matrix(1 0 0 1 49.85400000000000 53.35900000000000)"><path id="e5a5u1v1u3t619" d="M10.183000,33.075001C8.713000,27.643000,6.796000,22.073000,4.830000,16.737000C-0.011000,3.597000,2.450000,-18.136999,6.015000,-30.299999C6.446000,-31.771000,4.992000,-33.075001,3.564000,-32.516998C-0.326000,-30.997000,-3.965000,-28.978001,-7.278000,-26.540001C-9.187000,-25.135000,-10.183000,-22.804001,-9.842000,-20.459000C-7.614000,-5.152000,-2.098000,21.576000,10.183000,33.075001Z" fill="rgb(253,208,46)" stroke="none" stroke-width="1"/></g><g id="e5a5u1v1u3t620" transform="matrix(1 0 0 1 41.97700000000000 78.77300000000000)"><path id="e5a5u1v1u3t621" d="M18.736000,10.287000C18.716000,9.942000,18.723000,10.040000,18.704000,9.694000C6.996000,8.470000,-6.357000,-1.419000,-17.016001,-11.295000C-17.671000,-11.901000,-18.737000,-11.385000,-18.677999,-10.495000C-18.504999,-7.884000,-18.120001,-5.330000,-17.542000,-2.852000C-16.634001,1.045000,-13.788000,4.227000,-10.049000,5.652000C0.011000,9.486000,10.432000,11.900000,18.736000,10.287000Z" fill="rgb(253,146,46)" stroke="none" stroke-width="1"/></g><g id="e5a5u1v1u3t622" transform="matrix(1 0 0 1 44.19600000000000 58.74400000000000)"><path id="e5a5u1v1u3t623" d="M16.174000,28.955999C16.406000,28.605000,16.341999,28.702000,16.573999,28.351999C3.126000,16.683001,-2.474000,-13.080000,-4.506000,-28.135000C-4.582000,-28.702000,-5.272000,-28.955999,-5.693000,-28.568001C-9.466000,-25.091000,-12.674000,-21.011999,-15.165000,-16.482000C-16.575001,-13.918000,-16.572001,-10.812000,-15.206000,-8.223000C-7.826000,5.764000,3.501000,23.297001,16.174000,28.955999Z" fill="rgb(253,146,46)" stroke="none" stroke-width="1"/></g><g id="e5a5u1v1u3t624" transform="matrix(1 0 0 1 51.00100000000000 97.83300000000000)"><path id="e5a5u1v1u3t625" d="M10.505000,-6.866000C10.159000,-7.143000,10.249000,-7.071000,9.904000,-7.348000C5.186000,-2.843000,-1.835000,0.411000,-9.584000,2.759000C-10.325000,2.984000,-10.505000,3.939000,-9.900000,4.421000C-9.193000,4.984000,-8.471000,5.526000,-7.732000,6.048000C-5.921000,7.328000,-3.485000,7.348000,-1.709000,6.020000C3.500000,2.127000,7.868000,-2.192000,10.505000,-6.866000Z" fill="rgb(253,208,46)" stroke="none" stroke-width="1"/></g><g id="e5a5u1v1u3t626" transform="matrix(1 0 0 1 55.20100000000000 101.54500000000000)"><path id="e5a5u1v1u3t627" d="M6.050000,-10.136000C3.091000,-5.122000,-1.849000,-0.523000,-7.652000,3.572000C-8.182000,3.947000,-8.158000,4.753000,-7.591000,5.068000C-3.351000,7.429000,1.286000,9.163000,6.198000,10.136000C8.182000,4.670000,7.714000,-2.468000,6.050000,-10.136000Z" fill="rgb(253,146,46)" stroke="none" stroke-width="1"/></g><g id="e5a5u1v1u3t628" transform="matrix(1 0 0 1 47.52700000000000 95.20200000000000)"><path id="e5a5u1v1u3t629" d="M13.244000,-5.497000C6.655000,-2.059000,-2.376000,-1.092000,-11.741000,-1.409000C-12.939000,-1.449000,-13.632000,-0.044000,-12.851000,0.864000C-12.247000,1.566000,-11.623000,2.250000,-10.980000,2.915000C-9.122000,4.837000,-6.315000,5.497000,-3.780000,4.650000C3.174000,2.325000,9.383000,-0.791000,13.632000,-4.964000C13.411000,-5.267000,13.464000,-5.195000,13.244000,-5.497000Z" fill="rgb(253,146,46)" stroke="none" stroke-width="1"/></g><g id="e5a5u1v1u3t630" transform="matrix(1 0 0 1 41.78600000000000 68.22700000000000)"><path id="e5a5u1v1u3t631" d="M-13.602000,-19.250000C-14.092000,-20.198000,-15.483000,-20.110001,-15.842000,-19.105000C-17.188000,-15.340000,-18.073999,-11.357000,-18.427999,-7.222000C-18.681999,-4.259000,-17.500999,-1.341000,-15.294000,0.653000C-5.025000,9.937000,7.453000,18.868000,18.511999,20.198000C18.610001,19.802000,18.583000,19.910999,18.681999,19.516001C5.498000,13.695000,-6.238000,-5.003000,-13.602000,-19.250000Z" fill="rgb(253,208,46)" stroke="none" stroke-width="1"/></g><g id="e5a5u1v1u3t632" transform="matrix(1 0 0 1 43.95400000000000 88.44100000000000)"><path id="e5a5u1v1u3t633" d="M16.909000,1.216000C16.783001,0.876000,16.819000,0.972000,16.693001,0.633000C7.597000,2.373000,-4.024000,-0.695000,-14.928000,-5.163000C-15.919000,-5.568000,-16.909000,-4.554000,-16.464001,-3.581000C-15.665000,-1.838000,-14.765000,-0.152000,-13.771000,1.470000C-12.283000,3.895000,-9.622000,5.333000,-6.778000,5.391000C2.131000,5.569000,10.638000,4.522000,16.909000,1.216000Z" fill="rgb(253,208,46)" stroke="none" stroke-width="1"/></g><g id="e5a5u1v1u3t634" transform="matrix(1 0 0 1 90.14600000000000 53.35900000000000)"><path id="e5a5u1v1u3t635" d="M-10.183000,33.075001C-8.713000,27.643000,-6.796000,22.073000,-4.830000,16.737000C0.010000,3.597000,-2.451000,-18.136999,-6.015000,-30.299999C-6.447000,-31.771000,-4.992000,-33.075001,-3.565000,-32.516998C0.326000,-30.997000,3.965000,-28.978001,7.278000,-26.540001C9.187000,-25.135000,10.183000,-22.804001,9.841000,-20.459000C7.614000,-5.152000,2.097000,21.576000,-10.183000,33.075001Z" fill="rgb(253,208,46)" stroke="none" stroke-width="1"/></g><g id="e5a5u1v1u3t636" transform="matrix(1 0 0 1 98.02300000000000 78.77300000000000)"><path id="e5a5u1v1u3t637" d="M-18.736000,10.287000C-18.716000,9.942000,-18.723000,10.040000,-18.704000,9.694000C-6.997000,8.470000,6.357000,-1.419000,17.016001,-11.295000C17.670000,-11.901000,18.736000,-11.385000,18.676001,-10.495000C18.503000,-7.884000,18.121000,-5.330000,17.542999,-2.852000C16.635000,1.045000,13.787000,4.227000,10.049000,5.652000C-0.012000,9.486000,-10.432000,11.900000,-18.736000,10.287000Z" fill="rgb(253,146,46)" stroke="none" stroke-width="1"/></g><g id="e5a5u1v1u3t638" transform="matrix(1 0 0 1 95.80400000000000 58.74400000000000)"><path id="e5a5u1v1u3t639" d="M-16.174000,28.955999C-16.406000,28.605000,-16.343000,28.702000,-16.575001,28.351999C-3.126000,16.683001,2.474000,-13.080000,4.506000,-28.135000C4.583000,-28.702000,5.272000,-28.955999,5.693000,-28.568001C9.466000,-25.091000,12.675000,-21.011999,15.165000,-16.482000C16.575001,-13.918000,16.572001,-10.812000,15.206000,-8.223000C7.826000,5.764000,-3.500000,23.297001,-16.174000,28.955999Z" fill="rgb(253,146,46)" stroke="none" stroke-width="1"/></g><g id="e5a5u1v1u3t640" transform="matrix(1 0 0 1 88.99900000000000 97.83300000000000)"><path id="e5a5u1v1u3t641" d="M-10.505000,-6.866000C-10.159000,-7.143000,-10.250000,-7.071000,-9.904000,-7.348000C-5.187000,-2.843000,1.835000,0.411000,9.584000,2.759000C10.325000,2.984000,10.506000,3.939000,9.900000,4.421000C9.193000,4.984000,8.471000,5.526000,7.732000,6.048000C5.922000,7.328000,3.485000,7.348000,1.709000,6.020000C-3.500000,2.127000,-7.868000,-2.192000,-10.505000,-6.866000Z" fill="rgb(253,208,46)" stroke="none" stroke-width="1"/></g><g id="e5a5u1v1u3t642" transform="matrix(1 0 0 1 84.79900000000001 101.54500000000000)"><path id="e5a5u1v1u3t643" d="M-6.050000,-10.136000C-3.091000,-5.122000,1.848000,-0.523000,7.652000,3.572000C8.182000,3.947000,8.158000,4.753000,7.591000,5.068000C3.351000,7.429000,-1.286000,9.163000,-6.198000,10.136000C-8.182000,4.670000,-7.714000,-2.468000,-6.050000,-10.136000Z" fill="rgb(253,146,46)" stroke="none" stroke-width="1"/></g><g id="e5a5u1v1u3t644" transform="matrix(1 0 0 1 92.47300000000000 95.20200000000000)"><path id="e5a5u1v1u3t645" d="M-13.244000,-5.497000C-6.655000,-2.059000,2.375000,-1.092000,11.741000,-1.409000C12.938000,-1.449000,13.632000,-0.044000,12.851000,0.864000C12.246000,1.566000,11.622000,2.250000,10.980000,2.915000C9.122000,4.837000,6.315000,5.497000,3.780000,4.650000C-3.175000,2.325000,-9.384000,-0.791000,-13.632000,-4.964000C-13.412000,-5.267000,-13.464000,-5.195000,-13.244000,-5.497000Z" fill="rgb(253,146,46)" stroke="none" stroke-width="1"/></g><g id="e5a5u1v1u3t646" transform="matrix(1 0 0 1 98.21400000000000 68.22700000000000)"><path id="e5a5u1v1u3t647" d="M13.602000,-19.250000C14.092000,-20.198000,15.483000,-20.110001,15.842000,-19.105000C17.188000,-15.340000,18.073999,-11.357000,18.427000,-7.222000C18.681000,-4.259000,17.500000,-1.341000,15.293000,0.653000C5.024000,9.937000,-7.453000,18.868000,-18.511999,20.198000C-18.610001,19.802000,-18.584000,19.910999,-18.681000,19.516001C-5.498000,13.695000,6.238000,-5.003000,13.602000,-19.250000Z" fill="rgb(253,208,46)" stroke="none" stroke-width="1"/></g><g id="e5a5u1v1u3t648" transform="matrix(1 0 0 1 96.04600000000001 88.44100000000000)"><path id="e5a5u1v1u3t649" d="M-16.909000,1.216000C-16.783001,0.876000,-16.818001,0.972000,-16.691999,0.633000C-7.596000,2.373000,4.025000,-0.695000,14.928000,-5.163000C15.919000,-5.568000,16.909000,-4.554000,16.464001,-3.581000C15.665000,-1.838000,14.766000,-0.152000,13.771000,1.470000C12.283000,3.895000,9.622000,5.333000,6.778000,5.391000C-2.131000,5.569000,-10.638000,4.522000,-16.909000,1.216000Z" fill="rgb(253,208,46)" stroke="none" stroke-width="1"/></g></g><g id="e5a5u1v1u3t650" transform="matrix(1 0 0 1 43.54100000000000 26.79600000000000)"><g id="e5a5u1v1u3t651" transform="matrix(1 0 0 1 5.57300000000000 21.20900000000000)"><path id="e5a5u1v1u3t652" d="M5.266000,-20.959000C-1.156000,-16.225000,-5.324000,-8.610000,-5.324000,-0.020000C-5.324000,8.595000,-1.130000,16.228001,5.324000,20.959000C1.141000,9.465000,2.486000,-8.512000,5.266000,-20.959000Z" fill="rgb(252,179,43)" stroke="none" stroke-width="1"/></g><g id="e5a5u1v1u3t653" transform="matrix(1 0 0 1 46.92700000000000 21.20900000000000)"><path id="e5a5u1v1u3t654" d="M5.323000,-0.020000C5.323000,-8.610000,1.155000,-16.225000,-5.267000,-20.959000C-2.488000,-8.512000,-1.141000,9.465000,-5.323000,20.959000C1.130000,16.228001,5.323000,8.595000,5.323000,-0.020000Z" fill="rgb(252,179,43)" stroke="none" stroke-width="1"/></g></g><g id="e5a5u1v1u3t655" transform="matrix(1 0 0 1 0.23300200000000 0.09500100000000)"><g id="e5a5u1v1u3t656" transform="matrix(1 0 0 1 87.03600000000000 51.09500000000000)"><path id="e5a5u1v1u3t657" d="M-1.441000,-13.442000C-1.162000,-14.083000,-0.920000,-15.034000,-1.271000,-16.094999C-1.271000,-16.094999,0.712000,-14.466000,0.279000,-11.840000C0.984000,-11.201000,1.684000,-10.591000,2.361000,-10.035000C2.690000,-10.619000,3.166000,-11.775000,2.729000,-13.095000C2.729000,-13.095000,4.839000,-11.367000,4.236000,-8.598000C4.898000,-8.137000,5.505000,-7.777000,6.025000,-7.555000C6.025000,-7.555000,5.898000,-5.622000,5.788000,-3.033000C6.438000,-3.259000,7.248000,-3.705000,7.785000,-4.611000C7.785000,-4.611000,7.856000,-2.130000,5.704000,-0.718000C5.585000,3.128000,5.575000,7.513000,6.025000,9.334000C6.062000,9.483000,6.061000,9.648000,6.040000,9.821000C6.560000,10.560000,7.102000,11.824000,7.102000,13.905000C7.102000,13.905000,6.157000,12.967000,4.922000,12.055000C2.353000,15.479000,-3.691000,20,-3.691000,20C-3.691000,20,-5.079000,17.334000,-5.079000,17.334000C-5.079000,17.334000,4.041000,11.112000,4.145000,9.334000C4.271000,7.173000,3.247000,-6.666000,3.247000,-6.666000C3.247000,-6.666000,-5.079000,-14.666000,-6.467000,-15.555000C-7.855000,-16.444000,-7.855000,-20,-7.855000,-20C-7.855000,-20,-4.835000,-16.684000,-1.441000,-13.442000Z" fill="rgb(253,92,46)" stroke="none" stroke-width="1"/></g><g id="e5a5u1v1u3t658" transform="matrix(1 0 0 1 52.96500000000000 51.09500000000000)"><path id="e5a5u1v1u3t659" d="M1.441000,-13.442000C1.162000,-14.083000,0.920000,-15.034000,1.272000,-16.094999C1.272000,-16.094999,-0.712000,-14.466000,-0.279000,-11.840000C-0.983000,-11.201000,-1.684000,-10.591000,-2.361000,-10.035000C-2.689000,-10.619000,-3.166000,-11.775000,-2.728000,-13.095000C-2.728000,-13.095000,-4.840000,-11.367000,-4.236000,-8.598000C-4.899000,-8.137000,-5.505000,-7.777000,-6.025000,-7.555000C-6.025000,-7.555000,-5.897000,-5.622000,-5.788000,-3.033000C-6.437000,-3.259000,-7.248000,-3.705000,-7.784000,-4.611000C-7.784000,-4.611000,-7.855000,-2.130000,-5.703000,-0.718000C-5.585000,3.128000,-5.574000,7.513000,-6.025000,9.334000C-6.061000,9.483000,-6.062000,9.648000,-6.041000,9.821000C-6.561000,10.560000,-7.102000,11.824000,-7.102000,13.905000C-7.102000,13.905000,-6.156000,12.967000,-4.922000,12.055000C-2.352000,15.479000,3.691000,20,3.691000,20C3.691000,20,5.079000,17.334000,5.079000,17.334000C5.079000,17.334000,-4.041000,11.112000,-4.145000,9.334000C-4.271000,7.173000,-3.248000,-6.666000,-3.248000,-6.666000C-3.248000,-6.666000,5.079000,-14.666000,6.467000,-15.555000C7.855000,-16.444000,7.855000,-20,7.855000,-20C7.855000,-20,4.835000,-16.684000,1.441000,-13.442000Z" fill="rgb(253,92,46)" stroke="none" stroke-width="1"/></g></g><g id="e5a5u1v1u3t660"><g id="e5a5u1v1u3t661" transform="matrix(1 0 0 1 70 33.65400000000000)"><path id="e5a5u1v1u3t662" d="M13.654000,0C13.654000,7.541000,7.541000,13.654000,0,13.654000C-7.540000,13.654000,-13.654000,7.541000,-13.654000,0C-13.654000,-7.541000,-7.540000,-13.654000,0,-13.654000C7.541000,-13.654000,13.654000,-7.541000,13.654000,0Z" fill="rgb(255,228,134)" stroke="none" stroke-width="1"/></g><g id="e5a5u1v1u3t663" transform="matrix(1 0 0 1 70 28.87400000000000)"><path id="e5a5u1v1u3t664" d="M10.013000,0.001000C10.013000,4.148000,5.530000,7.510000,0,7.510000C-5.530000,7.510000,-10.013000,4.148000,-10.013000,0.001000C-10.013000,-4.146000,-5.530000,-7.510000,0,-7.510000C5.530000,-7.510000,10.013000,-4.146000,10.013000,0.001000Z" fill="rgb(255,245,209)" stroke="none" stroke-width="1"/></g><g id="e5a5u1v1u3t665" transform="matrix(1 0 0 1 70 44.57700000000000)"><path id="e5a5u1v1u3t666" d="M3.641000,0C3.641000,0.754000,2.011000,1.365000,0,1.365000C-2.011000,1.365000,-3.641000,0.754000,-3.641000,0C-3.641000,-0.754000,-2.011000,-1.365000,0,-1.365000C2.011000,-1.365000,3.641000,-0.754000,3.641000,0Z" fill="rgb(255,238,179)" stroke="none" stroke-width="1"/></g></g><g id="e5a5u1v1u3t667"><g id="e5a5u1v1u3t668" transform="matrix(1 0 0 1 48.81000000000000 105.17400000000001)"><path id="e5a5u1v1u3t669" d="M3.523000,-18.079000C3.523000,-18.079000,-5.753000,-5.938000,-5.753000,-5.938000C-5.753000,-5.938000,-5.589000,-5.407000,-5.340000,-4.521000C-5.933000,-3.705000,-6.811000,-2.169000,-6.811000,-0.174000C-6.811000,-0.174000,-6.092000,-1.581000,-4.673000,-2.029000C-4.498000,-1.342000,-4.314000,-0.594000,-4.132000,0.196000C-4.696000,0.905000,-5.811000,2.586000,-5.811000,4.826000C-5.811000,4.826000,-5.055000,3.322000,-3.548000,2.925000C-3.400000,3.682000,-3.261000,4.448000,-3.141000,5.211000C-3.709000,5.926000,-4.811000,7.598000,-4.811000,9.826000C-4.811000,9.826000,-4.127000,8.499000,-2.786000,8.014000C-2.602000,10.063000,-2.635000,11.901000,-3.051000,13.149000C-4.694000,18.079000,0.998000,10.208000,-0.645000,6.921000C-2.289000,3.635000,-3.051000,-4.931000,-3.051000,-4.931000C-3.051000,-4.931000,1.162000,-10.788000,3.986000,-11.557000C6.811000,-12.326000,3.523000,-18.079000,3.523000,-18.079000Z" fill="rgb(253,92,46)" stroke="none" stroke-width="1"/></g><g id="e5a5u1v1u3t670" transform="matrix(1 0 0 1 91.13100000000000 105.17400000000001)"><path id="e5a5u1v1u3t671" d="M-3.523000,-18.079000C-3.523000,-18.079000,5.753000,-5.938000,5.753000,-5.938000C5.753000,-5.938000,5.590000,-5.407000,5.340000,-4.521000C5.933000,-3.705000,6.811000,-2.169000,6.811000,-0.174000C6.811000,-0.174000,6.093000,-1.581000,4.673000,-2.029000C4.498000,-1.342000,4.315000,-0.594000,4.132000,0.196000C4.697000,0.905000,5.811000,2.586000,5.811000,4.826000C5.811000,4.826000,5.055000,3.322000,3.548000,2.925000C3.401000,3.682000,3.263000,4.448000,3.143000,5.211000C3.710000,5.926000,4.811000,7.598000,4.811000,9.826000C4.811000,9.826000,4.129000,8.499000,2.788000,8.014000C2.604000,10.063000,2.636000,11.901000,3.051000,13.149000C4.695000,18.079000,-0.999000,10.208000,0.645000,6.921000C2.288000,3.635000,3.051000,-4.931000,3.051000,-4.931000C3.051000,-4.931000,-1.161000,-10.788000,-3.986000,-11.557000C-6.811000,-12.326000,-3.523000,-18.079000,-3.523000,-18.079000Z" fill="rgb(253,92,46)" stroke="none" stroke-width="1"/></g><g id="e5a5u1v1u3t672" transform="matrix(1 0 0 1 69.99900000000000 92.54800000000000)"><path id="e5a5u1v1u3t673" d="M-13.566000,-22.452000C-17.246000,-17.993999,-19.538000,-11.743000,-19.538000,-4.816000C-19.538000,8.726000,-10.790000,22.452000,0.001000,22.452000C10.791000,22.452000,19.538000,8.726000,19.538000,-4.816000C19.538000,-11.743000,17.246000,-17.993999,13.566000,-22.452000C13.566000,-22.452000,-13.566000,-22.452000,-13.566000,-22.452000Z" fill="rgb(253,92,46)" stroke="none" stroke-width="1"/></g></g><g id="e5a5u1v1u3t674" transform="matrix(0.99987600000000 -0.01574100000000 0.01574100000000 0.99987600000000 -1.24670999999999 1.11179000000000)"><g id="e5a5u1v1u3t675" transform="matrix(1 0 0 1 80.50000000000000 93.03100000000001)"><path id="e5a5u1v1u3t676" d="M3.386000,-22.936001C3.386000,-22.936001,-9.500000,-22.936001,-9.500000,-22.936001C-9.500000,-22.936001,-9.500000,20.742001,-9.500000,20.742001C-9.500000,22.007999,-8.299000,22.936001,-7.076000,22.608999C2.338000,20.094000,9.500000,7.537000,9.500000,-4.868000C9.500000,-11.964000,7.154000,-18.368000,3.386000,-22.936001Z" fill="rgb(255,228,134)" stroke="none" stroke-width="1"/></g></g><g id="e5a5u1v1u3t677"><g id="e5a5u1v1u3t678" transform="matrix(1 0 0 1 59.50000000000000 93.03100000000001)"><path id="e5a5u1v1u3t679" d="M-9.500000,-4.869000C-9.500000,7.536000,-2.338000,20.093000,7.076000,22.608999C8.298000,22.934999,9.500000,22.007999,9.500000,20.742001C9.500000,20.742001,9.500000,-22.936001,9.500000,-22.936001C9.500000,-22.936001,-3.386000,-22.936001,-3.386000,-22.936001C-7.153000,-18.368000,-9.500000,-11.965000,-9.500000,-4.869000Z" fill="rgb(255,228,134)" stroke="none" stroke-width="1"/></g></g><g id="e5a5u1v1u3t680"><g id="e5a5u1v1u3t681" transform="matrix(1 0 0 1 70 64.50000000000000)"><path id="e5a5u1v1u3t682" d="M12.500000,4.500000C12.500000,4.500000,-12.500000,4.500000,-12.500000,4.500000C-12.500000,4.500000,-10.176000,0.315000,-10.176000,0.315000C-8.564000,-2.584000,-4.517000,-4.500000,0,-4.500000C4.516000,-4.500000,8.563000,-2.584000,10.175000,0.315000C10.175000,0.315000,12.500000,4.500000,12.500000,4.500000Z" fill="rgb(253,92,46)" stroke="none" stroke-width="1"/></g><g id="e5a5u1v1u3t683" transform="matrix(1 0 0 1 70 74.64300000000000)"><path id="e5a5u1v1u3t684" d="M10.793000,-8.090000C10.793000,-8.090000,0,-6.548000,0,-6.548000C0,-6.548000,-10.794000,-8.090000,-10.794000,-8.090000C-13.326000,-8.452000,-15.604000,-6.338000,-15.278000,-3.800000C-15.148000,-2.787000,-14.773000,-1.639000,-14,-0.391000C-11,4.452000,-3,1.452000,0,8.452000C3,1.452000,11,4.452000,14,-0.391000C14.772000,-1.639000,15.147000,-2.787000,15.277000,-3.800000C15.604000,-6.338000,13.325000,-8.452000,10.793000,-8.090000Z" fill="rgb(253,92,46)" stroke="none" stroke-width="1"/></g><g id="e5a5u1v1u3t685" transform="matrix(1 0 0 1 63.32300000000000 62.60600000000000)"><path id="e5a5u1v1u3t686" d="M2.704000,-1.521000C1.746000,-0.602000,-0.132000,1.065000,-2.027000,1.990000C-2.463000,2.203000,-2.961000,1.793000,-2.831000,1.327000C-2.461000,-0.008000,-1.290000,-2.130000,2.415000,-2.197000C2.772000,-2.203000,2.962000,-1.768000,2.704000,-1.521000Z" fill="rgb(255,228,134)" stroke="none" stroke-width="1"/></g><g id="e5a5u1v1u3t687" transform="matrix(1 0 0 1 76.67500000000000 62.60800000000000)"><path id="e5a5u1v1u3t688" d="M-2.702000,-1.524000C-1.746000,-0.607000,0.129000,1.059000,2.022000,1.984000C2.475000,2.206000,2.960000,1.768000,2.821000,1.283000C2.438000,-0.055000,1.252000,-2.133000,-2.414000,-2.200000C-2.770000,-2.206000,-2.960000,-1.771000,-2.702000,-1.524000Z" fill="rgb(255,228,134)" stroke="none" stroke-width="1"/></g></g><g id="e5a5u1v1u3t689" transform="matrix(1 0 0 1 18.80300000000000 104.68600000000001)" opacity="0"><g id="e5a5u1v1u3t690" transform="matrix(1 0 0 1 6.17300000000000 9.24800000000000)"><path id="e5a5u1v1u3t691" d="M-5.723000,6.374000C-5.723000,6.374000,-4.549000,4.299000,-4.549000,4.299000C-4.348000,3.975000,-3.874000,4.024000,-3.700000,4.149000C-3.599000,4.199000,-1.799000,5.523000,-0.150000,5.523000C0.850000,5.523000,1.574000,4.899000,1.574000,4.024000C1.574000,2.975000,0.700000,2.175000,-0.999000,1.500000C-3.149000,0.650000,-5.848000,-1.024000,-5.848000,-4.023000C-5.848000,-6.498000,-3.925000,-8.998000,-0.076000,-8.998000C2.524000,-8.998000,4.523000,-7.673000,5.273000,-7.123000C5.573000,-6.948000,5.524000,-6.498000,5.424000,-6.323000C5.424000,-6.323000,4.150000,-4.398000,4.150000,-4.398000C3.974000,-4.124000,3.525000,-3.898000,3.299000,-4.074000C3.075000,-4.199000,1.250000,-5.573000,-0.275000,-5.573000C-1.174000,-5.573000,-1.850000,-4.974000,-1.850000,-4.299000C-1.850000,-3.374000,-1.100000,-2.674000,0.874000,-1.874000C2.824000,-1.100000,5.924000,0.425000,5.924000,3.824000C5.924000,6.398000,3.698000,8.998000,0.025000,8.998000C-3.225000,8.998000,-5.023000,7.648000,-5.598000,7.073000C-5.848000,6.823000,-5.923000,6.724000,-5.723000,6.374000Z" fill="rgb(255,255,255)" stroke="none" stroke-width="1"/></g><g id="e5a5u1v1u3t692" transform="matrix(1 0 0 1 21.52300000000000 9.24800000000000)"><path id="e5a5u1v1u3t693" d="M1.374000,-8.998000C3.874000,-8.998000,5.724000,-8.223000,7.424000,-6.673000C7.648000,-6.474000,7.648000,-6.173000,7.449000,-5.974000C7.449000,-5.974000,5.499000,-3.949000,5.499000,-3.949000C5.324000,-3.773000,5.048000,-3.773000,4.874000,-3.949000C3.949000,-4.773000,2.724000,-5.224000,1.499000,-5.224000C-1.325000,-5.224000,-3.400000,-2.874000,-3.400000,-0.075000C-3.400000,2.699000,-1.299000,4.999000,1.525000,4.999000C2.700000,4.999000,3.974000,4.574000,4.874000,3.799000C5.048000,3.649000,5.373000,3.649000,5.523000,3.824000C5.523000,3.824000,7.473000,5.898000,7.473000,5.898000C7.647000,6.073000,7.624000,6.398000,7.449000,6.573000C5.749000,8.224000,3.599000,8.998000,1.374000,8.998000C-3.625000,8.998000,-7.648000,5.024000,-7.648000,0.025000C-7.648000,-4.974000,-3.625000,-8.998000,1.374000,-8.998000Z" fill="rgb(255,255,255)" stroke="none" stroke-width="1"/></g><g id="e5a5u1v1u3t694" transform="matrix(1 0 0 1 38.12100000000000 9.12300000000000)"><path id="e5a5u1v1u3t695" d="M-8.373000,8.224000C-8.373000,8.224000,-0.550000,-8.598000,-0.550000,-8.598000C-0.475000,-8.748000,-0.300000,-8.873000,-0.125000,-8.873000C-0.125000,-8.873000,0.125000,-8.873000,0.125000,-8.873000C0.299000,-8.873000,0.475000,-8.748000,0.549000,-8.598000C0.549000,-8.598000,8.373000,8.224000,8.373000,8.224000C8.523000,8.548000,8.323000,8.873000,7.948000,8.873000C7.948000,8.873000,5.173000,8.873000,5.173000,8.873000C4.723000,8.873000,4.524000,8.723000,4.298000,8.248000C4.298000,8.248000,3.399000,6.273000,3.399000,6.273000C3.399000,6.273000,-3.399000,6.273000,-3.399000,6.273000C-3.399000,6.273000,-4.299000,8.273000,-4.299000,8.273000C-4.424000,8.573000,-4.699000,8.873000,-5.199000,8.873000C-5.199000,8.873000,-7.949000,8.873000,-7.949000,8.873000C-8.323000,8.873000,-8.523000,8.548000,-8.373000,8.224000ZM1.899000,2.875000C1.899000,2.875000,0,-1.249000,0,-1.249000C0,-1.249000,-0.025000,-1.249000,-0.025000,-1.249000C-0.025000,-1.249000,-1.900000,2.875000,-1.900000,2.875000C-1.900000,2.875000,1.899000,2.875000,1.899000,2.875000Z" fill="rgb(255,255,255)" stroke="none" stroke-width="1"/></g><g id="e5a5u1v1u3t696" transform="matrix(1 0 0 1 51.84600000000000 9.24800000000000)"><path id="e5a5u1v1u3t697" d="M-1.975000,-5.073000C-1.975000,-5.073000,-5.549000,-5.073000,-5.549000,-5.073000C-5.824000,-5.073000,-6.023000,-5.299000,-6.023000,-5.549000C-6.023000,-5.549000,-6.023000,-8.272000,-6.023000,-8.272000C-6.023000,-8.522000,-5.824000,-8.748000,-5.549000,-8.748000C-5.549000,-8.748000,5.549000,-8.748000,5.549000,-8.748000C5.824000,-8.748000,6.023000,-8.522000,6.023000,-8.272000C6.023000,-8.272000,6.023000,-5.549000,6.023000,-5.549000C6.023000,-5.299000,5.824000,-5.073000,5.549000,-5.073000C5.549000,-5.073000,1.975000,-5.073000,1.975000,-5.073000C1.975000,-5.073000,1.975000,8.274000,1.975000,8.274000C1.975000,8.524000,1.751000,8.748000,1.501000,8.748000C1.501000,8.748000,-1.499000,8.748000,-1.499000,8.748000C-1.749000,8.748000,-1.975000,8.524000,-1.975000,8.274000C-1.975000,8.274000,-1.975000,-5.073000,-1.975000,-5.073000Z" fill="rgb(255,255,255)" stroke="none" stroke-width="1"/></g><g id="e5a5u1v1u3t698" transform="matrix(1 0 0 1 64.91200000000001 9.24800000000000)"><path id="e5a5u1v1u3t699" d="M-1.975000,-5.073000C-1.975000,-5.073000,-5.549000,-5.073000,-5.549000,-5.073000C-5.824000,-5.073000,-6.023000,-5.299000,-6.023000,-5.549000C-6.023000,-5.549000,-6.023000,-8.272000,-6.023000,-8.272000C-6.023000,-8.522000,-5.824000,-8.748000,-5.549000,-8.748000C-5.549000,-8.748000,5.548000,-8.748000,5.548000,-8.748000C5.824000,-8.748000,6.023000,-8.522000,6.023000,-8.272000C6.023000,-8.272000,6.023000,-5.549000,6.023000,-5.549000C6.023000,-5.299000,5.824000,-5.073000,5.548000,-5.073000C5.548000,-5.073000,1.975000,-5.073000,1.975000,-5.073000C1.975000,-5.073000,1.975000,8.274000,1.975000,8.274000C1.975000,8.524000,1.750000,8.748000,1.500000,8.748000C1.500000,8.748000,-1.499000,8.748000,-1.499000,8.748000C-1.749000,8.748000,-1.975000,8.524000,-1.975000,8.274000C-1.975000,8.274000,-1.975000,-5.073000,-1.975000,-5.073000Z" fill="rgb(255,255,255)" stroke="none" stroke-width="1"/></g><g id="e5a5u1v1u3t6100" transform="matrix(1 0 0 1 79.07700000000000 9.24800000000000)"><path id="e5a5u1v1u3t6101" d="M-5.648000,-8.273000C-5.648000,-8.523000,-5.449000,-8.749000,-5.174000,-8.749000C-5.174000,-8.749000,5.174000,-8.749000,5.174000,-8.749000C5.450000,-8.749000,5.648000,-8.523000,5.648000,-8.273000C5.648000,-8.273000,5.648000,-5.548000,5.648000,-5.548000C5.648000,-5.298000,5.450000,-5.074000,5.174000,-5.074000C5.174000,-5.074000,-1.751000,-5.074000,-1.751000,-5.074000C-1.751000,-5.074000,-1.751000,-1.975000,-1.751000,-1.975000C-1.751000,-1.975000,3.950000,-1.975000,3.950000,-1.975000C4.200000,-1.975000,4.424000,-1.749000,4.424000,-1.499000C4.424000,-1.499000,4.424000,1.225000,4.424000,1.225000C4.424000,1.500000,4.200000,1.701000,3.950000,1.701000C3.950000,1.701000,-1.751000,1.701000,-1.751000,1.701000C-1.751000,1.701000,-1.751000,5.074000,-1.751000,5.074000C-1.751000,5.074000,5.174000,5.074000,5.174000,5.074000C5.450000,5.074000,5.648000,5.299000,5.648000,5.549000C5.648000,5.549000,5.648000,8.273000,5.648000,8.273000C5.648000,8.523000,5.450000,8.749000,5.174000,8.749000C5.174000,8.749000,-5.174000,8.749000,-5.174000,8.749000C-5.449000,8.749000,-5.648000,8.523000,-5.648000,8.273000C-5.648000,8.273000,-5.648000,-8.273000,-5.648000,-8.273000Z" fill="rgb(255,255,255)" stroke="none" stroke-width="1"/></g><g id="e5a5u1v1u3t6102" transform="matrix(1 0 0 1 94.77900000000000 9.24800000000000)"><path id="e5a5u1v1u3t6103" d="M-6.698000,-8.272000C-6.698000,-8.522000,-6.499000,-8.748000,-6.223000,-8.748000C-6.223000,-8.748000,1.249000,-8.748000,1.249000,-8.748000C4.249000,-8.748000,6.698000,-6.323000,6.698000,-3.348000C6.698000,-1.049000,5.173000,0.800000,2.999000,1.675000C2.999000,1.675000,6.423000,8.024000,6.423000,8.024000C6.599000,8.348000,6.423000,8.748000,5.998000,8.748000C5.998000,8.748000,2.674000,8.748000,2.674000,8.748000C2.474000,8.748000,2.324000,8.623000,2.275000,8.524000C2.275000,8.524000,-1.050000,1.900000,-1.050000,1.900000C-1.050000,1.900000,-2.774000,1.900000,-2.774000,1.900000C-2.774000,1.900000,-2.774000,8.274000,-2.774000,8.274000C-2.774000,8.524000,-2.999000,8.748000,-3.249000,8.748000C-3.249000,8.748000,-6.223000,8.748000,-6.223000,8.748000C-6.499000,8.748000,-6.698000,8.524000,-6.698000,8.274000C-6.698000,8.274000,-6.698000,-8.272000,-6.698000,-8.272000ZM0.925000,-1.274000C1.949000,-1.274000,2.824000,-2.224000,2.824000,-3.274000C2.824000,-4.324000,1.949000,-5.173000,0.925000,-5.173000C0.925000,-5.173000,-2.774000,-5.173000,-2.774000,-5.173000C-2.774000,-5.173000,-2.774000,-1.274000,-2.774000,-1.274000C-2.774000,-1.274000,0.925000,-1.274000,0.925000,-1.274000Z" fill="rgb(255,255,255)" stroke="none" stroke-width="1"/></g></g><g id="e5a5u1v1u3t6104" transform="matrix(-0.87772700000000 0.03482000000000 -0.03481900000000 -0.87772700000000 131.30099999999999 3.71837000000000)" opacity="0.0560612"><g id="e5a5u1v1u3t6105"><path id="e5a5u1v1u3t6106" d="M59.625000,-53.375000C59.625000,-53.375000,59.993000,-47.981998,61.613998,-46.098000C63.076000,-44.398998,68.875000,-44.250000,68.875000,-44.250000C68.875000,-44.250000,63.460999,-43.130001,61.941002,-41.695000C60.460999,-40.297001,60.250000,-34.750000,60.250000,-34.750000C60.250000,-34.750000,60.019001,-40.208000,58.091000,-41.624001C55.936001,-43.208000,50.625000,-43.750000,50.625000,-43.750000C50.625000,-43.750000,55.304001,-43.499001,57.633999,-45.488998C59.783001,-47.325001,59.625000,-53.375000,59.625000,-53.375000Z" fill="rgb(255,255,255)" stroke="none" stroke-width="1"/></g></g><g id="e5a5u1v1u3t6107" transform="matrix(-0.68887300000000 0.02732800000000 -0.02732800000000 -0.68887300000000 173.95900000000000 9.58404000000000)" opacity="0.0560612"><g id="e5a5u1v1u3t6108"><path id="e5a5u1v1u3t6109" d="M59.625000,-53.375000C59.625000,-53.375000,59.993000,-47.981998,61.613998,-46.098000C63.076000,-44.398998,68.875000,-44.250000,68.875000,-44.250000C68.875000,-44.250000,63.460999,-43.130001,61.941002,-41.695000C60.460999,-40.297001,60.250000,-34.750000,60.250000,-34.750000C60.250000,-34.750000,60.019001,-40.208000,58.091000,-41.624001C55.936001,-43.208000,50.625000,-43.750000,50.625000,-43.750000C50.625000,-43.750000,55.304001,-43.499001,57.633999,-45.488998C59.783001,-47.325001,59.625000,-53.375000,59.625000,-53.375000Z" fill="rgb(255,255,255)" stroke="none" stroke-width="1"/></g></g></g><script><![CDATA[!function(t,n){"object"==typeof exports&&"undefined"!=typeof module?module.exports=n():"function"==typeof define&&define.amd?define(n):(t=t||self).__SVGATOR_PLAYER__=n()}(this,(function(){"use strict";function t(n){return(t="function"==typeof Symbol&&"symbol"==typeof Symbol.iterator?function(t){return typeof t}:function(t){return t&&"function"==typeof Symbol&&t.constructor===Symbol&&t!==Symbol.prototype?"symbol":typeof t})(n)}function n(t,n){if(!(t instanceof n))throw new TypeError("Cannot call a class as a function")}function r(t,n){for(var r=0;r<n.length;r++){var e=n[r];e.enumerable=e.enumerable||!1,e.configurable=!0,"value"in e&&(e.writable=!0),Object.defineProperty(t,e.key,e)}}function e(t,n,e){return n&&r(t.prototype,n),e&&r(t,e),t}var i=Math.abs;function u(t){return t}function o(t,n,r){var e=1-r;return 3*r*e*(t*e+n*r)+r*r*r}function a(){var t=arguments.length>0&&void 0!==arguments[0]?arguments[0]:0,n=arguments.length>1&&void 0!==arguments[1]?arguments[1]:0,r=arguments.length>2&&void 0!==arguments[2]?arguments[2]:1,e=arguments.length>3&&void 0!==arguments[3]?arguments[3]:1;return t<0||t>1||r<0||r>1?null:i(t-n)<=1e-5&&i(r-e)<=1e-5?u:function(u){if(u<=0)return t>0?u*n/t:0===n&&r>0?u*e/r:0;if(u>=1)return r<1?1+(u-1)*(e-1)/(r-1):1===r&&t<1?1+(u-1)*(n-1)/(t-1):1;for(var a,l=0,f=1;l<f;){var s=o(t,r,a=(l+f)/2);if(i(u-s)<1e-5)break;s<u?l=a:f=a}return o(n,e,a)}}function l(){return 1}function f(t){return 1===t?1:0}function s(){var t=arguments.length>0&&void 0!==arguments[0]?arguments[0]:1,n=arguments.length>1&&void 0!==arguments[1]?arguments[1]:0;if(1===t){if(0===n)return f;if(1===n)return l}var r=1/t;return function(t){return t>=1?1:(t+=n*r)-t%r}}function c(t){var n=arguments.length>1&&void 0!==arguments[1]?arguments[1]:2;if(Number.isInteger(t))return t;var r=Math.pow(10,n);return Math.round(t*r)/r}var v=Math.PI/180;function h(t,n,r){return t>=.5?r:n}function y(t,n,r){return 0===t||n===r?n:t*(r-n)+n}function d(t,n,r){var e=y(t,n,r);return e<=0?0:e}function g(t,n,r){return 0===t?n:1===t?r:{x:y(t,n.x,r.x),y:y(t,n.y,r.y)}}function m(t,n,r){return 0===t?n:1===t?r:{x:d(t,n.x,r.x),y:d(t,n.y,r.y)}}function p(t,n,r){var e=function(t,n,r){return Math.round(y(t,n,r))}(t,n,r);return e<=0?0:e>=255?255:e}function b(t,n,r){return 0===t?n:1===t?r:{r:p(t,n.r,r.r),g:p(t,n.g,r.g),b:p(t,n.b,r.b),a:y(t,null==n.a?1:n.a,null==r.a?1:r.a)}}function w(t,n,r){if(0===t)return n;if(1===t)return r;var e=n.length;if(e!==r.length)return h(t,n,r);for(var i=[],u=0;u<e;u++)i.push(b(t,n[u],r[u]));return i}function A(t,n,r){var e=n.length;if(e!==r.length)return h(t,n,r);for(var i=new Array(e),u=0;u<e;u++)i[u]=y(t,n[u],r[u]);return i}function x(t,n){for(var r=[],e=0;e<t;e++)r.push(n);return r}function k(t,n){if(--n<=0)return t;var r=(t=Object.assign([],t)).length;do{for(var e=0;e<r;e++)t.push(t[e])}while(--n>0);return t}var S=/\.0+$/g;function _(t){return Number.isInteger(t)?t+"":t.toFixed(6).replace(S,"")}function M(t){var n=arguments.length>1&&void 0!==arguments[1]?arguments[1]:" ";return t&&t.length?t.map(_).join(n):""}function I(t){return _(t.x)+","+_(t.y)}function E(t){return t?null==t.a||t.a>=1?"rgb("+t.r+","+t.g+","+t.b+")":"rgba("+t.r+","+t.g+","+t.b+","+t.a+")":"transparent"}var F={f:null,i:m,u:function(t,n){return function(r){var e=n(r);t.setAttribute("rx",_(e.x)),t.setAttribute("ry",_(e.y))}}},B={f:null,i:function(t,n,r){return 0===t?n:1===t?r:{width:d(t,n.width,r.width),height:d(t,n.height,r.height)}},u:function(t,n){return function(r){var e=n(r);t.setAttribute("width",_(e.width)),t.setAttribute("height",_(e.height))}}},j=Math.sin,q=Math.cos,P=Math.acos,O=Math.asin,z=Math.tan,L=Math.atan2,C=Math.PI/180,R=180/Math.PI,T=Math.sqrt,V=function(){function t(){var r=arguments.length>0&&void 0!==arguments[0]?arguments[0]:1,e=arguments.length>1&&void 0!==arguments[1]?arguments[1]:0,i=arguments.length>2&&void 0!==arguments[2]?arguments[2]:0,u=arguments.length>3&&void 0!==arguments[3]?arguments[3]:1,o=arguments.length>4&&void 0!==arguments[4]?arguments[4]:0,a=arguments.length>5&&void 0!==arguments[5]?arguments[5]:0;n(this,t),this.m=[r,e,i,u,o,a],this.i=null,this.w=null,this.s=null}return e(t,[{key:"point",value:function(t,n){var r=this.m;return{x:r[0]*t+r[2]*n+r[4],y:r[1]*t+r[3]*n+r[5]}}},{key:"translateSelf",value:function(){var t=arguments.length>0&&void 0!==arguments[0]?arguments[0]:0,n=arguments.length>1&&void 0!==arguments[1]?arguments[1]:0;if(!t&&!n)return this;var r=this.m;return r[4]+=r[0]*t+r[2]*n,r[5]+=r[1]*t+r[3]*n,this.w=this.s=this.i=null,this}},{key:"rotateSelf",value:function(){var t=arguments.length>0&&void 0!==arguments[0]?arguments[0]:0;if(t%=360){var n=j(t*=C),r=q(t),e=this.m,i=e[0],u=e[1];e[0]=i*r+e[2]*n,e[1]=u*r+e[3]*n,e[2]=e[2]*r-i*n,e[3]=e[3]*r-u*n,this.w=this.s=this.i=null}return this}},{key:"scaleSelf",value:function(){var t=arguments.length>0&&void 0!==arguments[0]?arguments[0]:1,n=arguments.length>1&&void 0!==arguments[1]?arguments[1]:1;if(1!==t||1!==n){var r=this.m;r[0]*=t,r[1]*=t,r[2]*=n,r[3]*=n,this.w=this.s=this.i=null}return this}},{key:"skewSelf",value:function(t,n){if(n%=360,(t%=360)||n){var r=this.m,e=r[0],i=r[1],u=r[2],o=r[3];t&&(t=z(t*C),r[2]+=e*t,r[3]+=i*t),n&&(n=z(n*C),r[0]+=u*n,r[1]+=o*n),this.w=this.s=this.i=null}return this}},{key:"resetSelf",value:function(){var t=arguments.length>0&&void 0!==arguments[0]?arguments[0]:1,n=arguments.length>1&&void 0!==arguments[1]?arguments[1]:0,r=arguments.length>2&&void 0!==arguments[2]?arguments[2]:0,e=arguments.length>3&&void 0!==arguments[3]?arguments[3]:1,i=arguments.length>4&&void 0!==arguments[4]?arguments[4]:0,u=arguments.length>5&&void 0!==arguments[5]?arguments[5]:0,o=this.m;return o[0]=t,o[1]=n,o[2]=r,o[3]=e,o[4]=i,o[5]=u,this.w=this.s=this.i=null,this}},{key:"recomposeSelf",value:function(){var t=arguments.length>0&&void 0!==arguments[0]?arguments[0]:null,n=arguments.length>1&&void 0!==arguments[1]?arguments[1]:null,r=arguments.length>2&&void 0!==arguments[2]?arguments[2]:null,e=arguments.length>3&&void 0!==arguments[3]?arguments[3]:null,i=arguments.length>4&&void 0!==arguments[4]?arguments[4]:null;return this.isIdentity||this.resetSelf(),t&&(t.x||t.y)&&this.translateSelf(t.x,t.y),n&&this.rotateSelf(n),r&&(r.x&&this.skewSelf(r.x,0),r.y&&this.skewSelf(0,r.y)),!e||1===e.x&&1===e.y||this.scaleSelf(e.x,e.y),i&&(i.x||i.y)&&this.translateSelf(i.x,i.y),this}},{key:"decompose",value:function(){var t=arguments.length>0&&void 0!==arguments[0]?arguments[0]:0,n=arguments.length>1&&void 0!==arguments[1]?arguments[1]:0,r=this.m,e=r[0]*r[0]+r[1]*r[1],i=[[r[0],r[1]],[r[2],r[3]]],u=T(e);if(0===u)return{origin:{x:r[4],y:r[5]},translate:{x:t,y:n},scale:{x:0,y:0},skew:{x:0,y:0},rotate:0};i[0][0]/=u,i[0][1]/=u;var o=r[0]*r[3]-r[1]*r[2]<0;o&&(u=-u);var a=i[0][0]*i[1][0]+i[0][1]*i[1][1];i[1][0]-=i[0][0]*a,i[1][1]-=i[0][1]*a;var l=T(i[1][0]*i[1][0]+i[1][1]*i[1][1]);if(0===l)return{origin:{x:r[4],y:r[5]},translate:{x:t,y:n},scale:{x:u,y:0},skew:{x:0,y:0},rotate:0};i[1][0]/=l,i[1][1]/=l,a/=l;var f=0;return i[1][1]<0?(f=P(i[1][1])*R,i[0][1]<0&&(f=360-f)):f=O(i[0][1])*R,o&&(f=-f),a=L(a,T(i[0][0]*i[0][0]+i[0][1]*i[0][1]))*R,{origin:{x:r[4],y:r[5]},translate:{x:t,y:n},scale:{x:u,y:l},skew:{x:a,y:0},rotate:f}}},{key:"toString",value:function(){return null===this.s&&(this.s="matrix("+this.m.map(N).join(" ")+")"),this.s}},{key:"determinant",get:function(){var t=this.m;return t[0]*t[3]-t[1]*t[2]}},{key:"isIdentity",get:function(){if(null===this.i){var t=this.m;this.i=1===t[0]&&0===t[1]&&0===t[2]&&1===t[3]&&0===t[4]&&0===t[5]}return this.i}}]),t}(),D=/\.0+$/;function N(t){return Number.isInteger(t)?t:t.toFixed(14).replace(D,"")}Object.freeze({M:2,L:2,Z:0,H:1,V:1,C:6,Q:4,T:2,S:4,A:7});function G(t,n,r){return t+(n-t)*r}function $(t,n,r){var e=arguments.length>3&&void 0!==arguments[3]&&arguments[3],i={x:G(t.x,n.x,r),y:G(t.y,n.y,r)};return e&&(i.a=H(t,n)),i}function H(t,n){return Math.atan2(n.y-t.y,n.x-t.x)}function Q(t,n,r,e){var i=1-e;return i*i*t+2*i*e*n+e*e*r}function U(t,n,r,e){return 2*(1-e)*(n-t)+2*e*(r-n)}function Y(t,n,r,e){var i=arguments.length>4&&void 0!==arguments[4]&&arguments[4],u={x:Q(t.x,n.x,r.x,e),y:Q(t.y,n.y,r.y,e)};return i&&(u.a=Z(t,n,r,e)),u}function Z(t,n,r,e){return Math.atan2(U(t.y,n.y,r.y,e),U(t.x,n.x,r.x,e))}function J(t,n,r,e,i){var u=i*i;return i*u*(e-t+3*(n-r))+3*u*(t+r-2*n)+3*i*(n-t)+t}function K(t,n,r,e,i){var u=1-i;return 3*(u*u*(n-t)+2*u*i*(r-n)+i*i*(e-r))}function W(t,n,r,e,i){var u=arguments.length>5&&void 0!==arguments[5]&&arguments[5],o={x:J(t.x,n.x,r.x,e.x,i),y:J(t.y,n.y,r.y,e.y,i)};return u&&(o.a=X(t,n,r,e,i)),o}function X(t,n,r,e,i){return Math.atan2(K(t.y,n.y,r.y,e.y,i),K(t.x,n.x,r.x,e.x,i))}function tt(t,n,r){var e=arguments.length>3&&void 0!==arguments[3]&&arguments[3];if(rt(n)){if(et(r))return Y(n,r.start,r,t,e)}else if(rt(r)){if(n.end)return Y(n,n.end,r,t,e)}else{if(n.end)return r.start?W(n,n.end,r.start,r,t,e):Y(n,n.end,r,t,e);if(r.start)return Y(n,r.start,r,t,e)}return $(n,r,t,e)}function nt(t,n,r){var e=tt(t,n,r,!0);return e.a=function(t){var n=arguments.length>1&&void 0!==arguments[1]&&arguments[1];return n?t+Math.PI:t}(e.a)/v,e}function rt(t){return!t.type||"corner"===t.type}function et(t){return null!=t.start&&!rt(t)}var it=new V;var ut={f:function(t){return t?t.join(" "):""},i:function(n,r,e){if(0===n)return r;if(1===n)return e;var i=r.length;if(i!==e.length)return h(n,r,e);for(var u,o=new Array(i),a=0;a<i;a++){if((u=t(r[a]))!==t(e[a]))return h(n,r,e);if("number"===u)o[a]=y(n,r[a],e[a]);else{if(r[a]!==e[a])return h(n,r,e);o[a]=r[a]}}return o}},ot={f:null,i:A,u:function(t,n){return function(r){var e=n(r);t.setAttribute("x1",_(e[0])),t.setAttribute("y1",_(e[1])),t.setAttribute("x2",_(e[2])),t.setAttribute("y2",_(e[3]))}}},at={f:_,i:y},lt={f:_,i:function(t,n,r){var e=y(t,n,r);return e<=0?0:e>=1?1:e}},ft={f:M,i:function(t,n,r){var e,i,u,o=n.length,a=r.length;if(o!==a)if(0===o)n=x(o=a,0);else if(0===a)a=o,r=x(o,0);else{var l=(u=(e=o)*(i=a)/function(t,n){for(var r;n;)r=n,n=t%n,t=r;return t||1}(e,i))<0?-u:u;n=k(n,Math.floor(l/o)),r=k(r,Math.floor(l/a)),o=a=l}for(var f=[],s=0;s<o;s++)f.push(c(d(t,n[s],r[s]),6));return f}};function st(t,n,r,e,i,u,o,a){return n=function(t,n,r){for(var e,i,u,o=t.length-1,a={},l=0;l<=o;l++)(e=t[l]).e&&(e.e=n(e.e)),e.v&&"g"===(i=e.v).t&&i.r&&(u=r.getElementById(i.r))&&(a[i.r]=u.querySelectorAll("stop"));return a}(t,e,a),function(e){var i,u=r(e,t,ct);return u?"c"===u.t?E(u.v):"g"===u.t?(n[u.r]&&function(t,n){for(var r=0,e=t.length;r<e;r++)t[r].setAttribute("stop-color",E(n[r]))}(n[u.r],u.v),(i=u.r)?"url(#"+i+")":"none"):"none":"none"}}function ct(t,n,r){if(0===t)return n;if(1===t)return r;if(n&&r){var e=n.t;if(e===r.t)switch(n.t){case"c":return{t:e,v:b(t,n.v,r.v)};case"g":if(n.r===r.r)return{t:e,v:w(t,n.v,r.v),r:n.r}}}return h(t,n,r)}var vt={blur:m,brightness:d,contrast:d,"drop-shadow":function(t,n,r){return 0===t?n:1===t?r:{blur:m(t,n.blur,r.blur),offset:g(t,n.offset,r.offset),color:b(t,n.color,r.color)}},grayscale:d,"hue-rotate":y,invert:d,opacity:d,saturate:d,sepia:d};function ht(t,n,r){if(0===t)return n;if(1===t)return r;var e=n.length;if(e!==r.length)return h(t,n,r);for(var i,u=[],o=0;o<e;o++){if(n[o].type!==r[o].type)return n;if(!(i=vt[n[o].type]))return h(t,n,r);u.push({type:n.type,value:i(t,n[o].value,r[o].value)})}return u}var yt={blur:function(t){return t?function(n){t.setAttribute("stdDeviation",I(n))}:null},brightness:function(t,n,r){return(t=gt(r,n))?function(n){n=_(n),t.map((function(t){return t.setAttribute("slope",n)}))}:null},contrast:function(t,n,r){return(t=gt(r,n))?function(n){var r=_((1-n)/2);n=_(n),t.map((function(t){t.setAttribute("slope",n),t.setAttribute("intercept",r)}))}:null},"drop-shadow":function(t,n,r){var e=r.getElementById(n+"-blur");if(!e)return null;var i=r.getElementById(n+"-offset");if(!i)return null;var u=r.getElementById(n+"-flood");return u?function(t){e.setAttribute("stdDeviation",I(t.blur)),i.setAttribute("dx",_(t.offset.x)),i.setAttribute("dy",_(t.offset.y)),u.setAttribute("flood-color",E(t.color))}:null},grayscale:function(t){return t?function(n){t.setAttribute("values",M(function(t){return[.2126+.7874*(t=1-t),.7152-.7152*t,.0722-.0722*t,0,0,.2126-.2126*t,.7152+.2848*t,.0722-.0722*t,0,0,.2126-.2126*t,.7152-.7152*t,.0722+.9278*t,0,0,0,0,0,1,0]}(n)))}:null},"hue-rotate":function(t){return t?function(n){return t.setAttribute("values",_(n))}:null},invert:function(t,n,r){return(t=gt(r,n))?function(n){n=_(n)+" "+_(1-n),t.map((function(t){return t.setAttribute("tableValues",n)}))}:null},opacity:function(t,n,r){return(t=r.getElementById(n+"-A"))?function(n){return t.setAttribute("tableValues","0 "+_(n))}:null},saturate:function(t){return t?function(n){return t.setAttribute("values",_(n))}:null},sepia:function(t){return t?function(n){return t.setAttribute("values",M(function(t){return[.393+.607*(t=1-t),.769-.769*t,.189-.189*t,0,0,.349-.349*t,.686+.314*t,.168-.168*t,0,0,.272-.272*t,.534-.534*t,.131+.869*t,0,0,0,0,0,1,0]}(n)))}:null}};var dt=["R","G","B"];function gt(t,n){var r=dt.map((function(r){return t.getElementById(n+"-"+r)||null}));return-1!==r.indexOf(null)?null:r}var mt={fill:st,"fill-opacity":lt,stroke:st,"stroke-opacity":lt,"stroke-width":at,"stroke-dashoffset":{f:_,i:y},"stroke-dasharray":ft,opacity:lt,transform:function(n,r,e,i){if(!(n=function(n,r){if(!n||"object"!==t(n))return null;var e=!1;for(var i in n)n.hasOwnProperty(i)&&(n[i]&&n[i].length?(n[i].forEach((function(t){t.e&&(t.e=r(t.e))})),e=!0):delete n[i]);return e?n:null}(n,i)))return null;var u=function(t,i,u){var o=arguments.length>3&&void 0!==arguments[3]?arguments[3]:null;return n[t]?e(i,n[t],u):r&&r[t]?r[t]:o};return r&&r.a&&n.o?function(t){var r=e(t,n.o,nt);return it.recomposeSelf(r,u("r",t,y,0)+r.a,u("k",t,g),u("s",t,g),u("t",t,g)).toString()}:function(t){return it.recomposeSelf(u("o",t,tt,null),u("r",t,y,0),u("k",t,g),u("s",t,g),u("t",t,g)).toString()}},"#filter":function(t,n,r,e,i,u,o,a){if(!n.items||!t||!t.length)return null;var l=function(t,n){var r=(t=t.map((function(t){return t&&yt[t[0]]?(n.getElementById(t[1]),yt[t[0]](n.getElementById(t[1]),t[1],n)):null}))).length;return function(n){for(var e=0;e<r;e++)t[e]&&t[e](n[e].value)}}(n.items,a);return l?(t=function(t,n){return t.map((function(t){return t.e=n(t.e),t}))}(t,e),function(n){l(r(n,t,ht))}):null},"#line":ot,points:{f:M,i:A},d:ut,r:at,"#size":B,"#radius":F,_:function(t,n){if(Array.isArray(t))for(var r=0;r<t.length;r++)this[t[r]]=n;else this[t]=n}},pt=function(){function t(r){n(this,t),this.list=r,this.length=r.length}return e(t,[{key:"setAttribute",value:function(t,n){for(var r=this.list,e=0;e<this.length;e++)r[e].setAttribute(t,n)}},{key:"removeAttribute",value:function(t){for(var n=this.list,r=0;r<this.length;r++)n[r].removeAttribute(t)}},{key:"style",value:function(t,n){for(var r=this.list,e=0;e<this.length;e++)r[e].style[t]=n}}]),t}(),bt=/-./g,wt=function(t,n){return n.toUpperCase()};function At(t){return"function"==typeof t?t:h}function xt(t){return t?"function"==typeof t?t:Array.isArray(t)?function(t){var n=arguments.length>1&&void 0!==arguments[1]?arguments[1]:u;if(!Array.isArray(t))return n;switch(t.length){case 1:return s(t[0])||n;case 2:return s(t[0],t[1])||n;case 4:return a(t[0],t[1],t[2],t[3])||n}return n}(t,null):function(t,n){var r=arguments.length>2&&void 0!==arguments[2]?arguments[2]:u;switch(t){case"linear":return u;case"steps":return s(n.steps||1,n.jump||0)||r;case"bezier":case"cubic-bezier":return a(n.x1||0,n.y1||0,n.x2||0,n.y2||0)||r}return r}(t.type,t.value,null):null}function kt(t,n,r){var e=arguments.length>3&&void 0!==arguments[3]&&arguments[3],i=n.length-1;if(t<=n[0].t)return e?[0,0,n[0].v]:n[0].v;if(t>=n[i].t)return e?[i,1,n[i].v]:n[i].v;var u,o=n[0],a=null;for(u=1;u<=i;u++){if(!(t>n[u].t)){a=n[u];break}o=n[u]}return null==a?e?[i,1,n[i].v]:n[i].v:o.t===a.t?e?[u,1,a.v]:a.v:(t=(t-o.t)/(a.t-o.t),o.e&&(t=o.e(t)),e?[u,t,r(t,o.v,a.v)]:r(t,o.v,a.v))}function St(t,n){var r=arguments.length>2&&void 0!==arguments[2]?arguments[2]:null;return t&&t.length?"function"!=typeof n?null:("function"!=typeof r&&(r=null),function(e){var i=kt(e,t,n);return null!=i&&r&&(i=r(i)),i}):null}function _t(t,n){return t.t-n.t}function Mt(n,r,e,i,u){var o,a="@"===e[0],l="#"===e[0],f=mt[e],s=h;switch(a?(o=e.substr(1),e=o.replace(bt,wt)):l&&(e=e.substr(1)),t(f)){case"function":if(s=f(i,u,kt,xt,e,a,r,n),l)return s;break;case"string":s=St(i,At(f));break;case"object":if((s=St(i,At(f.i),f.f))&&"function"==typeof f.u)return f.u(r,s,e,a,n)}return s?function(t,n,r){var e=arguments.length>3&&void 0!==arguments[3]&&arguments[3];if(e)return t instanceof pt?function(e){return t.style(n,r(e))}:function(e){return t.style[n]=r(e)};if(Array.isArray(n)){var i=n.length;return function(e){var u=r(e);if(null==u)for(var o=0;o<i;o++)t[o].removeAttribute(n);else for(var a=0;a<i;a++)t[a].setAttribute(n,u)}}return function(e){var i=r(e);null==i?t.removeAttribute(n):t.setAttribute(n,i)}}(r,e,s,a):null}function It(n,r,e,i){if(!i||"object"!==t(i))return null;var u=null,o=null;return Array.isArray(i)?o=function(t){if(!t||!t.length)return null;for(var n=0;n<t.length;n++)t[n].e&&(t[n].e=xt(t[n].e));return t.sort(_t)}(i):(o=i.keys,u=i.data||null),o?Mt(n,r,e,o,u):null}function Et(t,n,r){if(!r)return null;var e=[];for(var i in r)if(r.hasOwnProperty(i)){var u=It(t,n,i,r[i]);u&&e.push(u)}return e.length?e:null}function Ft(t,n){if(!n.duration||n.duration<0)return null;var r=function(t,n){if(!n)return null;var r=[];if(Array.isArray(n))for(var e=n.length,i=0;i<e;i++){var u=n[i];if(2===u.length){var o=null;if("string"==typeof u[0])o=t.getElementById(u[0]);else if(Array.isArray(u[0])){o=[];for(var a=0;a<u[0].length;a++)if("string"==typeof u[0][a]){var l=t.getElementById(u[0][a]);l&&o.push(l)}o=o.length?1===o.length?o[0]:new pt(o):null}if(o){var f=Et(t,o,u[1]);f&&(r=r.concat(f))}}}else for(var s in n)if(n.hasOwnProperty(s)){var c=t.getElementById(s);if(c){var v=Et(t,c,n[s]);v&&(r=r.concat(v))}}return r.length?r:null}(t,n.elements);return r?function(t,n){var r=arguments.length>2&&void 0!==arguments[2]?arguments[2]:1/0,e=arguments.length>3&&void 0!==arguments[3]?arguments[3]:1,i=arguments.length>4&&void 0!==arguments[4]&&arguments[4],u=arguments.length>5&&void 0!==arguments[5]?arguments[5]:1,o=t.length,a=e>0?n:0;i&&r%2==0&&(a=n-a);var l=null;return function(f,s){var c=f%n,v=1+(f-c)/n;s*=e,i&&v%2==0&&(s=-s);var h=!1;if(v>r)c=a,h=!0,-1===u&&(c=e>0?0:n);else if(s<0&&(c=n-c),c===l)return!1;l=c;for(var y=0;y<o;y++)t[y](c);return h}}(r,n.duration,n.iterations||1/0,n.direction||1,!!n.alternate,n.fill||1):null}var Bt=function(){function t(r){var e=arguments.length>1&&void 0!==arguments[1]?arguments[1]:{};n(this,t),this._id=0,this._running=!1,this._animations=r,this.direction=e.direction||1,this.speed=e.speed||1,this.fps=e.fps||100,this.offset=e.offset||0}return e(t,[{key:"_start",value:function(){var t=this,n=arguments.length>0&&void 0!==arguments[0]?arguments[0]:0,r=-1/0,e=null,i={},u=function u(o){t._running=!0,null==e&&(e=o);var a=Math.round((o-e+n)*t.speed),l=t.fps?1e3/t.fps:0;if(a>r+l){t.offset=a,r=a;for(var f=t._animations,s=f.length,c=0,v=0;v<s;v++)i[v]?c++:(i[v]=f[v](a,t.direction),i[v]&&c++);if(c===s)return void t._stop()}t._id=window.requestAnimationFrame(u)};this._id=window.requestAnimationFrame(u)}},{key:"_stop",value:function(){this._id&&window.cancelAnimationFrame(this._id),this._running=!1}},{key:"play",value:function(){this._running||this._start(this.offset)}},{key:"stop",value:function(){this._stop(),this.offset=0;var t=this.direction,n=this._animations;requestAnimationFrame((function(){for(var r=0;r<n.length;r++)n[r](0,t)}))}},{key:"restart",value:function(){this._stop(),this.offset=0,this._start()}},{key:"pause",value:function(){this._stop()}},{key:"reverse",value:function(){this.direction=-this.direction}}],[{key:"build",value:function(n){if(!(n=function(t){if(!t||!t.root||!Array.isArray(t.animations))return null;var n=window.document.getElementById(t.root);if(!n)return null;var r=t.animations.map((function(t){return Ft(n,t)})).filter((function(t){return!!t}));return r.length?{element:n,animations:r,options:t.options||void 0}:null}(n)))return null;var r=n.element,e=n.options||{},i=new t(n.animations,n.options);return function(t,n,r){var e=arguments.length>3&&void 0!==arguments[3]?arguments[3]:null;if("click"===r){var i=function r(){n.removeEventListener("click",r),t.play()};return void n.addEventListener("click",i)}if("hover"===r)return n.addEventListener("mouseenter",(function(){return t.play()})),void n.addEventListener("mouseleave","freeze"===e?function(){return t.pause()}:function(){return t.stop()});t.play()}(i,r,e.start,e.hover),i}}]),t}();return function(){for(var t=0,n=["ms","moz","webkit","o"],r=0;r<n.length&&!window.requestAnimationFrame;++r)window.requestAnimationFrame=window[n[r]+"RequestAnimationFrame"],window.cancelAnimationFrame=window[n[r]+"CancelAnimationFrame"]||window[n[r]+"CancelRequestAnimationFrame"];window.requestAnimationFrame||(window.requestAnimationFrame=function(n){var r=Date.now(),e=Math.max(0,16-(r-t)),i=window.setTimeout((function(){n(r+e)}),e);return t=r+e,i},window.cancelAnimationFrame=window.clearTimeout)}(),Bt}));
__SVGATOR_PLAYER__.build({"root":"e5a5u1v1u3t61","animations":[{"duration":600,"direction":1,"iterations":1,"fill":1,"alternate":false,"elements":{"e5a5u1v1u3t65":{"opacity":[{"t":0,"v":0},{"t":40,"v":1},{"t":600,"v":1}]},"e5a5u1v1u3t68":{"opacity":[{"t":0,"v":0},{"t":40,"v":1},{"t":600,"v":1}]},"e5a5u1v1u3t611":{"opacity":[{"t":0,"v":0},{"t":40,"v":1},{"t":600,"v":1}]},"e5a5u1v1u3t614":{"transform":{"data":{"o":{"x":70,"y":70,"type":"corner"}},"keys":{"s":[{"t":0,"v":{"x":1,"y":1}},{"t":100,"v":{"x":1.1302172670742026,"y":1.1833162275040108}},{"t":600,"v":{"x":1,"y":1}}]}}},"e5a5u1v1u3t617":{"transform":{"data":{"o":{"x":68.4305952,"y":68.369760955,"type":"corner"},"t":{"x":-68.4305952,"y":-68.369760955}},"keys":{"s":[{"t":0,"v":{"x":1,"y":1}},{"t":100,"v":{"x":1.1302172670742026,"y":1.1833162275040108}},{"t":600,"v":{"x":1,"y":1}}]}}},"e5a5u1v1u3t650":{"transform":{"data":{"o":{"x":69.999,"y":48.31452196,"type":"corner"},"t":{"x":-26.458,"y":-21.51852196}},"keys":{"s":[{"t":0,"v":{"x":1,"y":1}},{"t":100,"v":{"x":1.1302172670742026,"y":1.1833162275040108}},{"t":600,"v":{"x":1,"y":1}}]}}},"e5a5u1v1u3t655":{"transform":{"data":{"o":{"x":69.999,"y":51.190000999999995,"type":"corner"},"t":{"x":-69.765998,"y":-51.095}},"keys":{"s":[{"t":0,"v":{"x":1,"y":1}},{"t":100,"v":{"x":1.1302172670742026,"y":1.1833162275040108}},{"t":600,"v":{"x":1,"y":1}}]}}},"e5a5u1v1u3t660":{"transform":{"data":{"o":{"x":70.25,"y":33.654,"type":"corner"},"t":{"x":-70.25,"y":-33.654}},"keys":{"s":[{"t":0,"v":{"x":1,"y":1}},{"t":100,"v":{"x":1.1302172670742026,"y":1.1833162275040108}},{"t":600,"v":{"x":1,"y":1}}]}}},"e5a5u1v1u3t667":{"transform":{"data":{"o":{"x":69.999,"y":94.95983543,"type":"corner"},"t":{"x":-69.999,"y":-94.95983543}},"keys":{"s":[{"t":0,"v":{"x":1,"y":1}},{"t":100,"v":{"x":1.1302172670742026,"y":1.1833162275040108}},{"t":600,"v":{"x":1,"y":1}}]}}},"e5a5u1v1u3t674":{"transform":{"data":{"o":{"x":80.705655465,"y":92.900391035,"type":"corner"},"r":-0.9019302072001546,"t":{"x":-80.49737554846247,"y":-93.06725056257811}},"keys":{"s":[{"t":0,"v":{"x":0.9999998972284947,"y":0.9999998972284947}},{"t":100,"v":{"x":1.1302171509200725,"y":1.183316105892821}},{"t":600,"v":{"x":1,"y":1}}]}}},"e5a5u1v1u3t676":{"transform":{"data":{"o":{"x":9.186590909435381,"y":-22.626302850047978,"type":"corner"},"t":{"x":-9.186590909435381,"y":22.626302850047978}},"keys":{"r":[{"t":0,"v":0},{"t":100,"v":-15.191897535395164},{"t":200,"v":0},{"t":300,"v":-15.191897535395164},{"t":400,"v":0},{"t":500,"v":-15.191897535395164},{"t":600,"v":0}]}}},"e5a5u1v1u3t677":{"transform":{"data":{"o":{"x":59.5,"y":92.58412465500001,"type":"corner"},"t":{"x":-59.5,"y":-92.58412465500001}},"keys":{"s":[{"t":0,"v":{"x":1,"y":1}},{"t":100,"v":{"x":1.1302172670742026,"y":1.1833162275040108}},{"t":600,"v":{"x":1,"y":1}}]}}},"e5a5u1v1u3t679":{"transform":{"data":{"o":{"x":-9.5,"y":-22.934999660000003,"type":"corner"},"t":{"x":9.5,"y":22.934999660000003}},"keys":{"r":[{"t":0,"v":0},{"t":100,"v":14.065502172854128},{"t":200,"v":0},{"t":300,"v":17.469526491019746},{"t":400,"v":0},{"t":500,"v":17.469526491019746},{"t":600,"v":0}]}}},"e5a5u1v1u3t680":{"transform":{"data":{"o":{"x":70.25,"y":71.190001,"type":"corner"},"t":{"x":-70.25,"y":-71.190001}},"keys":{"s":[{"t":0,"v":{"x":1,"y":1}},{"t":100,"v":{"x":1.1302172670742026,"y":1.1833162275040108}},{"t":600,"v":{"x":1,"y":1}}]}}},"e5a5u1v1u3t689":{"opacity":[{"t":0,"v":0},{"t":40,"v":1},{"t":600,"v":1}]},"e5a5u1v1u3t6104":{"transform":{"data":{"r":177.7282304650428,"k":{"x":-0.00006517488233507287,"y":0},"s":{"x":0.8784173944822588,"y":0.8784173548427886}},"keys":{"o":[{"t":0,"v":{"x":131.301,"y":3.71837,"type":"corner"}},{"t":200,"v":{"x":130.80930242500003,"y":-12.862905895000011,"type":"corner"}},{"t":400,"v":{"x":121.805464495,"y":-18.056905124999993,"type":"corner"}},{"t":600,"v":{"x":113.93427523999999,"y":-15.592906124999992,"type":"corner"}}]}},"opacity":[{"t":0,"v":0.0560612},{"t":200,"v":1},{"t":400,"v":1},{"t":600,"v":0.0560612}]}}}],"options":{"start":"load","hover":"freeze"}})]]></script></svg>