<svg xmlns="http://www.w3.org/2000/svg" viewBox="0 0 133 128"><defs><style>.cls-1{fill:#b195f4;}.cls-2{fill:#c9b7f4;}.cls-3{fill:#885bf4;}</style></defs><title>king</title><g id="Layer_2" data-name="Layer 2"><path class="cls-1" d="M84.67,102H55.33l4-5.66a20.43,20.43,0,0,1-3.6.33A19.61,19.61,0,0,1,50.4,58.19V57.6a19.6,19.6,0,1,1,39.2,0v.59a19.61,19.61,0,0,1-5.33,38.48,20.43,20.43,0,0,1-3.6-.33ZM81.15,91.37Zm-22.3,0Z"/><path class="cls-2" d="M61,102c-.39-4.87,6-7,6-7l3-14s-14-1-12,6c1.32,4.62-3.88,7.49-7.58,8.92a19.8,19.8,0,0,0,5.31.75,20.43,20.43,0,0,0,3.6-.33l-4,5.66Z"/><path class="cls-2" d="M91,66a5.42,5.42,0,0,1,5.65-4.12,19.68,19.68,0,0,0-7.05-3.69V57.6a19.49,19.49,0,0,0-.66-5C88.6,54.08,87.34,56,83,56c-7,0-3,7-3,7Z"/><path class="cls-3" d="M84.27,62.79c-.34,0-.67,0-1,.05a14,14,0,0,0,1-5.24,14.27,14.27,0,1,0-28.54,0,14,14,0,0,0,1,5.24c-.34,0-.67-.05-1-.05A14.27,14.27,0,1,0,69.32,81.4C66.79,96.65,62,96.67,62,96.67H78s-4.79,0-7.32-15.27A14.27,14.27,0,1,0,84.27,62.79Z"/></g></svg>