<svg xmlns="http://www.w3.org/2000/svg" viewBox="0 0 140 140" width="140" height="140" preserveAspectRatio="xMidYMid meet" style="width: 100%; height: 100%; transform: translate3d(0px, 0px, 0px);"><defs><clipPath id="__lottie_element_33704"><rect width="140" height="140" x="0" y="0"></rect></clipPath></defs><g clip-path="url(#__lottie_element_33704)"><g transform="matrix(1,0,0,1,39.75,32.25)" opacity="1" style="display: block;"><g opacity="1" transform="matrix(1,0,0,1,30.25,37.75)"><path fill="rgb(121,223,124)" fill-opacity="1" d=" M0,37.5 C0,37.5 -5.751999855041504,28.225000381469727 -5.751999855041504,28.225000381469727 C-11.798999786376953,18.47800064086914 -18.34600067138672,10.517999649047852 -25.767000198364258,3.8910000324249268 C-25.767000198364258,3.8910000324249268 -30,0.11100000143051147 -30,0.11100000143051147 C-30,0.11100000143051147 -25.80299949645996,-3.6989998817443848 -25.80299949645996,-3.6989998817443848 C-18.086999893188477,-10.704000473022461 -11.347999572753906,-18.889999389648438 -5.775000095367432,-28.0310001373291 C-5.775000095367432,-28.0310001373291 0,-37.5 0,-37.5 C0,-37.5 5.77400016784668,-28.0310001373291 5.77400016784668,-28.0310001373291 C11.347999572753906,-18.889999389648438 18.086999893188477,-10.704000473022461 25.804000854492188,-3.6989998817443848 C25.804000854492188,-3.6989998817443848 30,0.11100000143051147 30,0.11100000143051147 C30,0.11100000143051147 25.767000198364258,3.8910000324249268 25.767000198364258,3.8910000324249268 C18.34600067138672,10.517999649047852 11.798999786376953,18.47800064086914 5.752999782562256,28.225000381469727 C5.752999782562256,28.225000381469727 0,37.5 0,37.5z"></path></g></g><g transform="matrix(1,0,0,1,70,70)" opacity="1" style="display: block;"><g opacity="1" transform="matrix(1,0,0,1,0,0)"><path fill="rgb(152,237,155)" fill-opacity="1" d=" M-3.625,-32.375 C-7.875,-19 -29.5,-0.25 -29.625,0 C-28.38800048828125,1.7319999933242798 -19.125,10 -19.125,10 C-19.125,10 -13.710000038146973,1.843999981880188 -8.991000175476074,-8.871999740600586 C-3.375,-21.625 -3.375,-32.375 -3.625,-32.375z"></path></g></g><g transform="matrix(1,0,0,1,70,70)" opacity="1" style="display: block;"><g opacity="1" transform="matrix(1,0,0,1,0,0)"><path fill="rgb(194,255,196)" fill-opacity="1" d=" M-8.375,-24.25 C-14.5,-12.25 -29.5,-0.25 -29.625,0 C-28.38800048828125,1.7319999933242798 -23,6.25 -23,6.25 C-23,6.25 -19.334999084472656,3.0940001010894775 -14.616000175476074,-7.622000217437744 C-9,-20.375 -8.125,-24.25 -8.375,-24.25z"></path></g></g><g transform="matrix(1,0,0,1,18.944000244140625,14.51300048828125)" opacity="1" style="display: block;"><g opacity="1" transform="matrix(1,0,0,1,51.055999755859375,55.56700134277344)"><path stroke-linecap="butt" stroke-linejoin="miter" fill-opacity="0" stroke-miterlimit="10" stroke="rgb(194,255,196)" stroke-opacity="1" stroke-width="12" d="M0 0"></path></g></g><g transform="matrix(1,0,0,1,48.694000244140625,44.26300048828125)" opacity="1" style="display: block;"><g opacity="1" transform="matrix(1,0,0,1,21.305999755859375,25.816999435424805)"><path fill="rgb(44,197,49)" fill-opacity="1" d=" M0,-25.566999435424805 C-5.86899995803833,-15.942000389099121 -12.885000228881836,-7.418000221252441 -21.055999755859375,0 C-12.895000457763672,7.2870001792907715 -5.980999946594238,15.92300033569336 0,25.566999435424805 C5.980999946594238,15.92300033569336 12.895000457763672,7.2870001792907715 21.055999755859375,0 C12.88599967956543,-7.418000221252441 5.86899995803833,-15.942000389099121 0,-25.566999435424805z"></path></g></g><g transform="matrix(0.9721599817276001,0,0,0.9721599817276001,70,70.37467956542969)" opacity="1" style="display: none;"><g opacity="1" transform="matrix(1,0,0,1,0,0)"><path fill="rgb(194,255,196)" fill-opacity="1" d=" M6.815000057220459,16.42099952697754 C6.815000057220459,16.54599952697754 1.2860000133514404,19.672000885009766 -1.5829999446868896,22.764999389648438 C-1.3329999446868896,22.764999389648438 0.5059999823570251,25.30299949645996 0.5059999823570251,25.30299949645996 C0.5059999823570251,25.30299949645996 1.2669999599456787,23.329999923706055 4.105000019073486,19.893999099731445 C6.942999839782715,16.45800018310547 5.741000175476074,17.437999725341797 5.741000175476074,17.437999725341797 C5.741000175476074,17.437999725341797 6.815000057220459,16.29599952697754 6.815000057220459,16.42099952697754z"></path></g></g><g transform="matrix(-0.7010999917984009,0.0641990527510643,-0.0641990527510643,-0.7010999917984009,108.94075012207031,2.1492462158203125)" opacity="0.30102111180957847" style="display: none;"><g opacity="1" transform="matrix(1,0,0,1,0,0)"><path fill="rgb(255,255,255)" fill-opacity="1" d=" M59.625,-53.375 C59.625,-53.375 59.99300003051758,-47.981998443603516 61.61399841308594,-46.097999572753906 C63.07600021362305,-44.39899826049805 68.875,-44.25 68.875,-44.25 C68.875,-44.25 63.46099853515625,-43.130001068115234 61.941001892089844,-41.69499969482422 C60.46099853515625,-40.297000885009766 60.25,-34.75 60.25,-34.75 C60.25,-34.75 60.01900100708008,-40.20800018310547 58.090999603271484,-41.624000549316406 C55.93600082397461,-43.20800018310547 50.625,-43.75 50.625,-43.75 C50.625,-43.75 55.30400085449219,-43.499000549316406 57.63399887084961,-45.48899841308594 C59.78300094604492,-47.32500076293945 59.625,-53.375 59.625,-53.375z"></path></g></g></g></svg>