<svg xmlns="http://www.w3.org/2000/svg" viewBox="0 0 133 128"><defs><style>.cls-1{fill:#999;}.cls-2{fill:#c2c2c2;}.cls-3{fill:#dbdbdb;}</style></defs><title>nine</title><g id="Layer_2" data-name="Layer 2"><path class="cls-1" d="M82.25,54,70.7,61.32H56.25s-11.56,21-7.71,36.77S70.7,113.62,70.7,113.62s18.29.24,22.15-15.53S82.25,54,82.25,54Z"/><path class="cls-2" d="M47,94S48,98.55,60.87,96.55C83.22,93.06,91,72.64,91,72.64l-4.71-9.77-37,15.75S45.82,86.3,47,94Z"/><path class="cls-3" d="M87.5,64.11S83.16,79.24,57,83.33a9.4,9.4,0,0,1-7.7-2,3.48,3.48,0,0,1-1.11-3.58C49.3,73.5,56.24,59,56.24,59l24.7-9.32Z"/><path class="cls-1" d="M57,58.8s-8,12.56-2.28,13.7,21.7-12.56,21.7-12.56Z"/><path class="cls-3" d="M67.17,28.91,65.5,41.41h5.83S73,32.24,67.17,28.91Z"/><path class="cls-3" d="M76.86,37.4,56.33,42.22l-4.17,8.34-4.42,1.26a1.69,1.69,0,0,0-1.22,1.89,11.51,11.51,0,0,0,4.29,6.74c2.5,1.67,16.67,3.79,23.34,2.12S85.51,51.39,85.51,46.39,76.86,37.4,76.86,37.4Z"/><polygon class="cls-3" points="78.86 26.38 69.84 40.41 74.86 43.41 78.86 26.38"/><path class="cls-1" d="M78.84,26.38,73.93,39.1a1.62,1.62,0,0,0,1.73,2.18l5.28-.75S86.34,31.38,78.84,26.38Z"/><path class="cls-1" d="M65.5,48.05l-5.84-.83a3.65,3.65,0,0,0-.83,2.5C58.83,51.39,65.5,48.05,65.5,48.05Z"/></g></svg>