<svg xmlns="http://www.w3.org/2000/svg" viewBox="0 0 140 140"><defs><style>.cls-1{fill:#367bf1;}.cls-2{fill:#6599f1;}.cls-3{fill:#fe932f;}.cls-4{fill:#fed02f;}.cls-5,.cls-7{fill:#051d27;}.cls-5{opacity:0.3;}.cls-6{opacity:0.2;}.cls-8{fill:#ffdb5e;}</style></defs><title>wild</title><g id="Layer_2" data-name="Layer 2"><path class="cls-1" d="M100.88,62.51,70,58.53l-30.88,4s-13.95,27.89-6,46.82S70,127.27,70,127.27s28.89,1,36.86-17.94S100.88,62.51,100.88,62.51Z"/><path class="cls-2" d="M108.73,102.8A46.26,46.26,0,0,0,109,89.71a2,2,0,0,0-3.71-.93c-8.53,12-25.79,27.28-59.88,33.18,11.1,5.77,24.63,5.31,24.63,5.31a55.39,55.39,0,0,0,6.52-.31A48.35,48.35,0,0,0,108.73,102.8Z"/><path class="cls-3" d="M96.26,64.19,70,60.66,43.74,64.19s-11.86,24.68-5.08,41.43S70,121.49,70,121.49s24.56.88,31.34-15.87S96.26,64.19,96.26,64.19Z"/><path class="cls-1" d="M93.82,63.86,70,60.66l-23.82,3.2s-10.76,22.4-4.62,37.6S70,115.86,70,115.86s22.29.8,28.44-14.4S93.82,63.86,93.82,63.86Z"/><path class="cls-4" d="M91.13,61.64,70,58.53,48.87,61.64s-9.54,21.83-4.09,36.64,25.22,14,25.22,14,19.76.77,25.22-14S91.13,61.64,91.13,61.64Z"/><path class="cls-5" d="M63.89,65.36l2,26.63a4.09,4.09,0,1,0,8.18,0l2-26.63A19.78,19.78,0,0,1,63.89,65.36Z"/><g class="cls-6"><path class="cls-7" d="M100.88,62.51,81.61,60V91.47a6.81,6.81,0,0,0,7,6.83,33,33,0,0,0,9.08-1.51c7.81-2.55,5.21-6.84,6.51-17.91a42.23,42.23,0,0,1,1-5.64A91.49,91.49,0,0,0,100.88,62.51Z"/><path class="cls-7" d="M39.12,62.51A90.43,90.43,0,0,0,34.77,73.4a45.11,45.11,0,0,1,.95,5.48C37,90,34.41,94.24,42.22,96.79a33.12,33.12,0,0,0,9.09,1.51,6.8,6.8,0,0,0,7-6.83V60Z"/></g><path class="cls-3" d="M94.81,24.52c0-12.32-49.71-12.32-49.71,0C42.85,35,30.24,52.07,33.62,58.51s5.62,6.43,6.75,16.89S39.24,89.91,46,92.32a30,30,0,0,0,13.89,1.07V50.69L70,36.28,80,50.69v42.7a30,30,0,0,0,13.89-1.07c6.75-2.41,4.5-6.47,5.62-16.92s3.38-10.46,6.75-16.89S97.06,35,94.81,24.52Z"/><path class="cls-1" d="M59.88,55.54H33.05a5.94,5.94,0,0,0,.57,3v0H59.88Z"/><path class="cls-1" d="M80,58.53h26.25v0a5.94,5.94,0,0,0,.56-3H80Z"/><path class="cls-1" d="M62.76,46.57l2.09-3H37c-.47,1-.92,2-1.34,3Z"/><path class="cls-1" d="M59.88,52.55V50.69l.79-1.13H34.45a28,28,0,0,0-.93,3Z"/><path class="cls-1" d="M59.88,64.5v-3H35.37c.71,1.11,1.35,2,1.93,3Z"/><path class="cls-1" d="M39.86,37.6c-.48,1-1,2-1.45,3H66.94l2.09-3Z"/><path class="cls-1" d="M59.88,73.47H40.13c.08.6.16,1.24.24,1.93l.09,1.06H59.88Z"/><path class="cls-1" d="M80,85.42v3H98.45a11.81,11.81,0,0,0,.55-3Z"/><path class="cls-1" d="M80,73.47v3H99.44c0-.35.06-.7.1-1.06.07-.69.15-1.33.24-1.93Z"/><path class="cls-1" d="M59.88,85.42h-19a11.39,11.39,0,0,0,.55,3H59.88Z"/><path class="cls-1" d="M59.88,70.48v-3H38.75a22,22,0,0,1,.86,3Z"/><path class="cls-1" d="M42.63,31.63c-.42,1-.87,2-1.34,3H98.62c-.47-1-.92-2-1.35-3Z"/><path class="cls-1" d="M70.88,37.6l2.09,3H101.5c-.48-1-1-2-1.45-3Z"/><path class="cls-1" d="M94.4,22.66c-4.47-9.84-44.43-9.84-48.89,0Z"/><path class="cls-1" d="M44.82,25.65c-.26,1-.59,2-1,3H96.06c-.38-1-.71-2-1-3Z"/><path class="cls-1" d="M44,91.4a11.39,11.39,0,0,0,2,.92,30,30,0,0,0,13.89,1.07v-2Z"/><path class="cls-1" d="M80,91.4v2a30,30,0,0,0,13.89-1.07,12.11,12.11,0,0,0,2-.92Z"/><path class="cls-1" d="M80,79.45v3h19.1c0-.92.05-1.91.1-3Z"/><path class="cls-1" d="M59.88,82.44v-3H40.67c0,1.08.08,2.07.11,3Z"/><path class="cls-1" d="M75.06,43.58l2.09,3h27.12c-.42-1-.88-2-1.35-3Z"/><path class="cls-1" d="M80,67.49v3H100.3a22.1,22.1,0,0,1,.85-3Z"/><path class="cls-1" d="M80,61.51v3h22.58c.58-1,1.22-1.88,1.93-3Z"/><path class="cls-1" d="M79.24,49.56,80,50.69v1.86h26.36a30.55,30.55,0,0,0-.93-3Z"/><path class="cls-5" d="M87.13,32.62H52.87a48.71,48.71,0,0,0-2.95,15.27c0,6,0,20,10,25.61V50.69H80V73.55c10-5.55,10-19.61,10-25.66A48.71,48.71,0,0,0,87.13,32.62Z"/><path class="cls-8" d="M70,32.62H53.06a69.15,69.15,0,0,1,1.21,12c0,6,0,21.92,15.73,21.92S85.73,50.56,85.73,44.58a69.15,69.15,0,0,1,1.21-12Z"/><path class="cls-3" d="M62.42,40.59l-.17,0-.18,0a9.38,9.38,0,0,0-4.52,1.5,2.68,2.68,0,0,1-2.49-.5v1h1.75a15.43,15.43,0,0,0,5.46.86,7.54,7.54,0,0,0,4.36-.86A6.15,6.15,0,0,0,62.42,40.59Z"/><path class="cls-3" d="M82.45,42.09a9.38,9.38,0,0,0-4.52-1.5l-.18,0-.17,0a5.83,5.83,0,0,0-4.12,2,7.44,7.44,0,0,0,4.3.86,15.49,15.49,0,0,0,5.43-.86h1.75v-1A2.68,2.68,0,0,1,82.45,42.09Z"/><path class="cls-8" d="M40.21,109.62a1.27,1.27,0,0,1-.63-2.26L75.51,79.27a13.26,13.26,0,0,1,7.59-2.81l5-.22a5.08,5.08,0,0,0,2.94-1.09l.55-.43A6.55,6.55,0,1,0,83.53,64.4l-1.19.93a3.79,3.79,0,0,0-1.42,2.52,6.33,6.33,0,0,1-2.38,4.21l-1,.8a1.27,1.27,0,1,1-1.57-2l1-.8a3.78,3.78,0,0,0,1.43-2.52,6.29,6.29,0,0,1,2.38-4.21L82,62.4A9.09,9.09,0,0,1,93.18,76.72l-.55.43a7.6,7.6,0,0,1-4.4,1.63l-5,.22a10.66,10.66,0,0,0-6.14,2.27L41.15,109.36A1.26,1.26,0,0,1,40.21,109.62Z"/><path class="cls-8" d="M95.19,109.1a1.28,1.28,0,0,1-.92-.39L54.69,67.23a7.85,7.85,0,0,0-8.08-1.89,1.27,1.27,0,0,1-1.6-.81,1.25,1.25,0,0,1,.8-1.6,10.42,10.42,0,0,1,10.7,2.52L96.11,107a1.26,1.26,0,0,1-.92,2.14Z"/><polygon class="cls-8" points="46.35 62.8 40.63 71.26 52.07 71.26 46.35 62.8"/><circle class="cls-8" cx="42.64" cy="72.5" r="1.24"/><circle class="cls-8" cx="42.64" cy="74.97" r="1.24"/><circle class="cls-8" cx="42.64" cy="77.44" r="1.24"/><path class="cls-8" d="M43.88,87.33a1.24,1.24,0,0,1-2.47,0c0-.69.55-8.65,1.23-8.65S43.88,86.64,43.88,87.33Z"/><path class="cls-8" d="M44.19,106.79a1.55,1.55,0,1,1-3.09,0c0-.85.69-10.81,1.54-10.81S44.19,105.94,44.19,106.79Z"/><path class="cls-8" d="M42.64,88.56,41.41,91c0,.53,2.47.53,2.47,0Z"/><path class="cls-8" d="M42.64,91l-1.23,2.48c0,.53,2.47.53,2.47,0Z"/><path class="cls-8" d="M42.64,93.51,41.41,96c0,.53,2.47.53,2.47,0Z"/><circle class="cls-8" cx="46.35" cy="72.5" r="1.24"/><circle class="cls-8" cx="46.35" cy="74.97" r="1.24"/><circle class="cls-8" cx="46.35" cy="77.44" r="1.24"/><path class="cls-8" d="M47.59,87.33a1.24,1.24,0,0,1-2.48,0c0-.69.56-8.65,1.24-8.65S47.59,86.64,47.59,87.33Z"/><path class="cls-8" d="M47.89,106.79a1.55,1.55,0,1,1-3.09,0c0-.85.7-10.81,1.55-10.81S47.89,105.94,47.89,106.79Z"/><path class="cls-8" d="M46.35,88.56,45.11,91c0,.53,2.48.53,2.48,0Z"/><path class="cls-8" d="M46.35,91l-1.24,2.48c0,.53,2.48.53,2.48,0Z"/><path class="cls-8" d="M46.35,93.51,45.11,96c0,.53,2.48.53,2.48,0Z"/><circle class="cls-8" cx="50.06" cy="72.5" r="1.24"/><circle class="cls-8" cx="50.06" cy="74.97" r="1.24"/><circle class="cls-8" cx="50.06" cy="77.44" r="1.24"/><path class="cls-8" d="M51.29,87.33a1.24,1.24,0,0,1-2.47,0c0-.69.55-8.65,1.24-8.65S51.29,86.64,51.29,87.33Z"/><path class="cls-8" d="M51.6,106.79a1.55,1.55,0,1,1-3.09,0c0-.85.69-10.81,1.55-10.81S51.6,105.94,51.6,106.79Z"/><path class="cls-8" d="M50.06,88.56,48.82,91c0,.53,2.47.53,2.47,0Z"/><path class="cls-8" d="M50.06,91l-1.24,2.48c0,.53,2.47.53,2.47,0Z"/><path class="cls-8" d="M50.06,93.51,48.82,96c0,.53,2.47.53,2.47,0Z"/><path class="cls-3" d="M65,65.36l1.65,21.71a3.33,3.33,0,0,0,6.66,0L75,65.36A16.14,16.14,0,0,1,65,65.36Z"/><path class="cls-3" d="M65.57,37.59s-6.47-1.84-8.09-.92a9.77,9.77,0,0,0-2.42,1.85,7.49,7.49,0,0,1,3.23-.93c1.62,0,7.28.93,7.28.93S66.37,38.52,65.57,37.59Z"/><path class="cls-3" d="M74.43,37.59s6.47-1.84,8.09-.92a9.77,9.77,0,0,1,2.42,1.85,7.49,7.49,0,0,0-3.23-.93c-1.62,0-7.28.93-7.28.93S73.63,38.52,74.43,37.59Z"/><path class="cls-1" d="M48.55,19.39c2.46,2.7,5.13,17,5.13,17a55.28,55.28,0,0,1,32.64,0s2.65-14.17,5.1-17Q69.89,6.59,48.55,19.39Z"/><path class="cls-3" d="M52.53,17.25c2.39,6,3.19,11.26,4.12,18.36l2-.45c-.94-7.2-1.77-12.57-4.26-18.76C53.74,16.67,53.13,17,52.53,17.25Z"/><path class="cls-3" d="M58,15a83.62,83.62,0,0,1,3.49,19.62c.66-.11,1.32-.2,2-.28a84.43,84.43,0,0,0-3.56-19.93C59.27,14.59,58.64,14.79,58,15Z"/><path class="cls-3" d="M63.48,13.6a195.36,195.36,0,0,1,1.94,20.55c.66-.06,1.32-.1,2-.13a198.33,198.33,0,0,0-2-20.72C64.8,13.38,64.14,13.48,63.48,13.6Z"/><path class="cls-3" d="M85.64,16.46c-2.48,6.16-3.3,11.52-4.24,18.7.65.14,1.3.28,1.95.45.92-7.07,1.72-12.33,4.1-18.3C86.84,17,86.24,16.72,85.64,16.46Z"/><path class="cls-3" d="M80.08,14.46a84.09,84.09,0,0,0-3.55,19.89l2,.27A83.82,83.82,0,0,1,82,15.06C81.35,14.84,80.71,14.64,80.08,14.46Z"/><path class="cls-3" d="M74.54,13.32a201,201,0,0,0-2,20.7c.67,0,1.33.07,2,.13a197.51,197.51,0,0,1,1.93-20.52C75.86,13.51,75.2,13.4,74.54,13.32Z"/><path class="cls-3" d="M69,13V34c.67,0,1.33,0,2,0V13C70.33,13,69.67,13,69,13Z"/><path class="cls-8" d="M53.64,37.37l-1.15-3.81a59.55,59.55,0,0,1,35,0l-1.15,3.81A55.63,55.63,0,0,0,53.64,37.37Z"/><path class="cls-8" d="M73,27c0,1.66-1.34,6-3,6s-3-4.34-3-6,1.34-4,3-4S73,25.34,73,27Z"/></g></svg>