<svg id="efotuvcz9m1g1" xmlns="http://www.w3.org/2000/svg" xmlns:xlink="http://www.w3.org/1999/xlink" viewBox="0 0 140 140" shape-rendering="geometricPrecision" text-rendering="geometricPrecision"><defs><clipPath id="efotuvcz9m1g2"><rect id="efotuvcz9m1g3" width="140" height="140" rx="0" ry="0" fill="rgb(0,0,0)" stroke="none" stroke-width="1"/></clipPath></defs><g id="efotuvcz9m1g4" clip-path="url(#efotuvcz9m1g2)"><g id="efotuvcz9m1g5" transform="matrix(1 0 0 1 -0.25016800000000 -0.25016800000000)" opacity="0"><g id="efotuvcz9m1g6" transform="matrix(1 0 0 1 70.25000000000000 70.25000000000000)"><path id="efotuvcz9m1g7" d="M52.055000,-60C56.436001,-60,60,-56.436001,60,-52.055000C60,-52.055000,60,52.055000,60,52.055000C60,56.436001,56.436001,60,52.055000,60C52.055000,60,-52.055000,60,-52.055000,60C-56.436001,60,-60,56.436001,-60,52.055000C-60,52.055000,-60,-52.055000,-60,-52.055000C-60,-56.436001,-56.436001,-60,-52.055000,-60C-52.055000,-60,52.055000,-60,52.055000,-60ZM52.055000,-70C52.055000,-70,-52.055000,-70,-52.055000,-70C-61.966000,-70,-70,-61.966000,-70,-52.055000C-70,-52.055000,-70,52.055000,-70,52.055000C-70,61.966000,-61.966000,70,-52.055000,70C-52.055000,70,52.055000,70,52.055000,70C61.966000,70,70,61.966000,70,52.055000C70,52.055000,70,-52.055000,70,-52.055000C70,-61.966000,61.966000,-70,52.055000,-70Z" fill="rgb(54,122,240)" stroke="none" stroke-width="1"/></g></g><g id="efotuvcz9m1g8" transform="matrix(1 0 0 1 70 70)" opacity="0"><g id="efotuvcz9m1g9"><path id="efotuvcz9m1g10" d="M-55.438000,60.030998C-55.438000,60.030998,-58.021000,63.949001,-63.250000,65.875000C-64.438004,66.313004,-55.312000,69.938004,-55.312000,69.938004C-55.312000,69.938004,-40.500000,70,-40.500000,70C-40.500000,70,-32.750000,60,-32.750000,60C-32.750000,60,-50.344002,60.155998,-52.219002,60.030998C-54.094002,59.905998,-55.438000,60.030998,-55.438000,60.030998Z" fill="rgb(110,163,255)" stroke="none" stroke-width="1"/></g></g><g id="efotuvcz9m1g11" transform="matrix(1 0 0 1 70 70)" opacity="0"><g id="efotuvcz9m1g12"><path id="efotuvcz9m1g13" d="M69.500000,-34C69.500000,-34,60.250000,-24,60.250000,-24C60.250000,-24,60.250000,-10,60.250000,-10C60.250000,-10,70.500000,-15.250000,70.500000,-15.250000C70.500000,-15.250000,69.500000,-34,69.500000,-34Z" fill="rgb(110,163,255)" stroke="none" stroke-width="1"/></g></g><g id="efotuvcz9m1g14" transform="matrix(1 0 0 1 -0.25016799999999 -0.25016800000000)" opacity="0"><g id="efotuvcz9m1g15" transform="matrix(1 0 0 1 22.03800000000000 134.93799999999999)"><path id="efotuvcz9m1g16" d="M-3.842000,5.312000C-3.842000,5.312000,5.213000,5.312000,5.213000,5.312000C10.213000,3.312000,12.834000,-0.459000,14.699000,-4.688000C14.699000,-4.688000,-3.842000,-4.688000,-3.842000,-4.688000C-4.935000,-4.688000,-5.979000,-4.911000,-6.928000,-5.312000C-8.370000,-3.293000,-10.760000,-0.810000,-14.699000,1.631000C-11.682000,3.931000,-7.928000,5.312000,-3.842000,5.312000Z" fill="rgb(109,162,255)" fill-opacity="0.71" stroke="none" stroke-width="1"/></g><g id="efotuvcz9m1g17" transform="matrix(1 0 0 1 135.25000000000000 47.71900000000000)"><path id="efotuvcz9m1g18" d="M5,-11.853000C3.486000,-8.155000,1.025000,-3.889000,-5,-1.790000C-5,-1.790000,-5,11.853000,-5,11.853000C-2.202000,11.216000,1.429000,9.980000,5,7.579000C5,7.579000,5,-11.853000,5,-11.853000Z" fill="rgb(109,162,255)" fill-opacity="0.71" stroke="none" stroke-width="1"/></g><g id="efotuvcz9m1g19" opacity="0.999995"><g id="efotuvcz9m1g20" transform="matrix(1 0 0 1 5.25000000000000 113.93100000000000)"><path id="efotuvcz9m1g21" d="M5,-8.630000C1.008000,-6.962000,-2.544000,-4.575000,-5,-0.392000C-5,-0.392000,-5,8.374000,-5,8.374000C-5,8.461000,-4.988000,8.544000,-4.987000,8.630000C-1.661000,4.290000,1.668000,1.478000,5,0.188000C5,0.188000,5,-8.630000,5,-8.630000Z" fill="rgb(70,133,240)" fill-opacity="0.71" stroke="none" stroke-width="1"/></g><g id="efotuvcz9m1g22" transform="matrix(1 0 0 1 130.79900000000001 8.89500000000000)"><path id="efotuvcz9m1g23" d="M2.429000,-4.915000C-0.520000,-3.697000,-3.270000,-1.524000,-5.776000,1.845000C-4.172000,2.432000,-2.805000,3.514000,-1.874000,4.915000C0.732000,2.100000,3.258000,-0.017000,5.776000,-1.550000C4.813000,-2.814000,3.689000,-3.945000,2.429000,-4.915000Z" fill="rgb(70,133,240)" fill-opacity="0.71" stroke="none" stroke-width="1"/></g></g></g><g id="efotuvcz9m1g24" transform="matrix(1 0 0 1 24.91980000000000 58.27490000000000)"><g id="efotuvcz9m1g25" transform="matrix(1 0 0 1 45.08000000000000 35.11800000000000)"><path id="efotuvcz9m1g26" d="M30.882999,-30.882999C30.882999,-30.882999,-0.001000,-34.868000,-0.001000,-34.868000C-0.001000,-34.868000,-30.882999,-30.882999,-30.882999,-30.882999C-30.882999,-30.882999,-44.831001,-2.988000,-36.862000,15.940000C-28.892000,34.868000,-0.001000,33.872002,-0.001000,33.872002C-0.001000,33.872002,28.891001,34.868000,36.861000,15.940000C44.831001,-2.988000,30.882999,-30.882999,30.882999,-30.882999Z" fill="rgb(54,122,240)" stroke="none" stroke-width="1"/></g></g><g id="efotuvcz9m1g27" transform="matrix(1 0 0 1 70 69.99990000000000)"><g id="efotuvcz9m1g28"><path id="efotuvcz9m1g29" d="M38.750000,17.750000C38.750000,17.750000,15.030000,34.256001,7.140000,38.252998C-0.750000,42.250000,-23,52,-23,52C-23,52,-17.469999,56.042000,-7.985000,56.646000C1.500000,57.250000,9.500000,55.750000,9.500000,55.750000C19.250000,51.500000,37.993000,40.077000,38.500000,34.250000C39,28.500000,38.750000,17.750000,38.750000,17.750000Z" fill="rgb(110,163,255)" stroke="none" stroke-width="1"/></g></g><g id="efotuvcz9m1g30" transform="matrix(1 0 0 1 29.99090000000000 11.94570000000000)"><g id="efotuvcz9m1g31" transform="matrix(1 0 0 1 40.00900000000000 79.57299999999999)"><path id="efotuvcz9m1g32" d="M26.257000,-27.330000C26.257000,-27.330000,0,-30.856001,0,-30.856001C0,-30.856001,-26.257000,-27.330000,-26.257000,-27.330000C-26.257000,-27.330000,-38.115002,-2.645000,-31.339001,14.105000C-24.563000,30.856001,0,29.974001,0,29.974001C0,29.974001,24.563999,30.856001,31.339001,14.105000C38.115002,-2.645000,26.257000,-27.330000,26.257000,-27.330000Z" fill="rgb(253,146,46)" stroke="none" stroke-width="1"/></g><g id="efotuvcz9m1g33" transform="matrix(1 0 0 1 40.01000000000000 76.71299999999999)"><path id="efotuvcz9m1g34" d="M23.823999,-24.797001C23.823999,-24.797001,0,-27.997000,0,-27.997000C0,-27.997000,-23.825001,-24.797001,-23.825001,-24.797001C-23.825001,-24.797001,-34.584000,-2.400000,-28.436001,12.799000C-22.288000,27.997000,0,27.198000,0,27.198000C0,27.198000,22.287001,27.997000,28.434999,12.799000C34.584000,-2.400000,23.823999,-24.797001,23.823999,-24.797001Z" fill="rgb(54,122,240)" stroke="none" stroke-width="1"/></g><g id="efotuvcz9m1g35" transform="matrix(1 0 0 1 40.00900000000000 73.86499999999999)"><path id="efotuvcz9m1g36" d="M21.127001,-24.167000C21.127001,-24.167000,0,-27.285000,0,-27.285000C0,-27.285000,-21.125999,-24.167000,-21.125999,-24.167000C-21.125999,-24.167000,-30.667999,-2.339000,-25.216000,12.473000C-19.764000,27.284000,0,26.504999,0,26.504999C0,26.504999,19.764000,27.284000,25.216000,12.473000C30.667999,-2.339000,21.127001,-24.167000,21.127001,-24.167000Z" fill="rgb(253,208,46)" stroke="none" stroke-width="1"/></g><g id="efotuvcz9m1g37" opacity="0.5"><g id="efotuvcz9m1g38" transform="matrix(1 0 0 1 40.00900000000000 68.77000000000000)"><path id="efotuvcz9m1g39" d="M-6.109000,-15.360000C-6.109000,-15.360000,-4.088000,11.269000,-4.088000,11.269000C-3.913000,13.581000,-2.135000,15.359000,0,15.359000C2.135000,15.359000,3.912000,13.581000,4.088000,11.269000C4.088000,11.269000,6.108000,-15.360000,6.108000,-15.360000C2.036000,-14.067000,-2.036000,-14.067000,-6.109000,-15.360000Z" fill="rgb(5,29,39)" stroke="none" stroke-width="1"/></g><g id="efotuvcz9m1g40" transform="matrix(1 0 0 1 63.40500000000000 67.21700000000000)"><path id="efotuvcz9m1g41" d="M7.488000,-16.652000C7.488000,-16.652000,-11.783000,-19.139000,-11.783000,-19.139000C-11.783000,-19.139000,-11.783000,12.307000,-11.783000,12.307000C-11.783000,16.139000,-8.628000,19.264000,-4.798000,19.135000C-2.076000,19.042000,1.140000,18.659000,4.286000,17.631001C12.095000,15.078000,9.492000,10.785000,10.794000,-0.277000C11.066000,-2.591000,11.396000,-4.417000,11.783000,-5.926000C9.648000,-12.321000,7.488000,-16.652000,7.488000,-16.652000Z" fill="rgb(5,29,39)" stroke="none" stroke-width="1"/></g><g id="efotuvcz9m1g42" transform="matrix(1 0 0 1 16.53900000000000 67.22300000000000)"><path id="efotuvcz9m1g43" d="M-7.413000,-16.659000C-7.413000,-16.659000,-9.610000,-12.255000,-11.762000,-5.771000C-11.393000,-4.293000,-11.077000,-2.517000,-10.814000,-0.284000C-9.512000,10.778000,-12.116000,15.072000,-4.305000,17.625000C-1.161000,18.653000,2.057000,19.037001,4.778000,19.129999C8.609000,19.259001,11.762000,16.132999,11.762000,12.301000C11.762000,12.301000,11.762000,-19.132999,11.762000,-19.132999C11.762000,-19.132999,-7.413000,-16.659000,-7.413000,-16.659000Z" fill="rgb(5,29,39)" stroke="none" stroke-width="1"/></g></g><g id="efotuvcz9m1g44" transform="matrix(1 0 0 1 39.96200000000000 41.52000000000000)"><path id="efotuvcz9m1g45" d="M24.857000,-28.950001C24.857000,-41.270000,-24.857000,-41.270000,-24.857000,-28.950001C-27.106001,-18.493999,-39.712002,-1.393000,-36.337002,5.041000C-32.962002,11.475000,-30.712000,11.475000,-29.587000,21.931000C-28.462000,32.386002,-30.712000,36.444000,-23.962999,38.856998C-17.212999,41.270000,-10.077000,39.928001,-10.077000,39.928001C-10.077000,39.928001,-10.077000,-2.773000,-10.077000,-2.773000C-10.077000,-2.773000,0,-17.184000,0,-17.184000C0,-17.184000,10.078000,-2.773000,10.078000,-2.773000C10.078000,-2.773000,10.078000,39.928001,10.078000,39.928001C10.078000,39.928001,17.212999,41.270000,23.962999,38.856998C30.712999,36.444000,28.462999,32.386002,29.587999,21.931000C30.712999,11.475000,32.962002,11.475000,36.337002,5.041000C39.712002,-1.393000,27.107000,-18.493999,24.857000,-28.950001Z" fill="rgb(253,146,46)" stroke="none" stroke-width="1"/></g><g id="efotuvcz9m1g46"><g id="efotuvcz9m1g47" transform="matrix(1 0 0 1 16.45500000000000 45.08500000000000)"><path id="efotuvcz9m1g48" d="M13.430000,-1.495000C13.430000,-1.495000,-13.393000,-1.495000,-13.393000,-1.495000C-13.430000,-0.355000,-13.264000,0.649000,-12.831000,1.475000C-12.827000,1.482000,-12.823000,1.488000,-12.820000,1.495000C-12.820000,1.495000,13.430000,1.495000,13.430000,1.495000C13.430000,1.495000,13.430000,-1.495000,13.430000,-1.495000Z" fill="rgb(54,122,240)" stroke="none" stroke-width="1"/></g><g id="efotuvcz9m1g49" transform="matrix(1 0 0 1 63.46900000000000 45.08500000000000)"><path id="efotuvcz9m1g50" d="M-13.430000,1.495000C-13.430000,1.495000,12.820000,1.495000,12.820000,1.495000C12.824000,1.488000,12.828000,1.482000,12.831000,1.475000C13.264000,0.649000,13.430000,-0.355000,13.393000,-1.495000C13.393000,-1.495000,-13.430000,-1.495000,-13.430000,-1.495000C-13.430000,-1.495000,-13.430000,1.495000,-13.430000,1.495000Z" fill="rgb(54,122,240)" stroke="none" stroke-width="1"/></g><g id="efotuvcz9m1g51" transform="matrix(1 0 0 1 20.25200000000000 33.13000000000000)"><path id="efotuvcz9m1g52" d="M12.515000,1.495000C12.515000,1.495000,14.605000,-1.495000,14.605000,-1.495000C14.605000,-1.495000,-13.258000,-1.495000,-13.258000,-1.495000C-13.732000,-0.482000,-14.186000,0.519000,-14.605000,1.495000C-14.605000,1.495000,12.515000,1.495000,12.515000,1.495000Z" fill="rgb(54,122,240)" stroke="none" stroke-width="1"/></g><g id="efotuvcz9m1g53" transform="matrix(1 0 0 1 17.10200000000000 39.10800000000000)"><path id="efotuvcz9m1g54" d="M12.783000,1.495000C12.783000,1.495000,12.783000,-0.361000,12.783000,-0.361000C12.783000,-0.361000,13.575000,-1.495000,13.575000,-1.495000C13.575000,-1.495000,-12.646000,-1.495000,-12.646000,-1.495000C-13.025000,-0.452000,-13.340000,0.549000,-13.575000,1.495000C-13.575000,1.495000,12.783000,1.495000,12.783000,1.495000Z" fill="rgb(54,122,240)" stroke="none" stroke-width="1"/></g><g id="efotuvcz9m1g55" transform="matrix(1 0 0 1 17.63100000000000 51.06300000000000)"><path id="efotuvcz9m1g56" d="M12.254000,1.495000C12.254000,1.495000,12.254000,-1.495000,12.254000,-1.495000C12.254000,-1.495000,-12.254000,-1.495000,-12.254000,-1.495000C-11.546000,-0.386000,-10.903000,0.535000,-10.324000,1.495000C-10.324000,1.495000,12.254000,1.495000,12.254000,1.495000Z" fill="rgb(54,122,240)" stroke="none" stroke-width="1"/></g><g id="efotuvcz9m1g57" transform="matrix(1 0 0 1 23.72700000000000 27.15300000000000)"><path id="efotuvcz9m1g58" d="M-13.860000,-1.495000C-14.342000,-0.498000,-14.830000,0.501000,-15.310000,1.495000C-15.310000,1.495000,13.220000,1.495000,13.220000,1.495000C13.220000,1.495000,15.310000,-1.495000,15.310000,-1.495000C15.310000,-1.495000,-13.860000,-1.495000,-13.860000,-1.495000Z" fill="rgb(54,122,240)" stroke="none" stroke-width="1"/></g><g id="efotuvcz9m1g59" transform="matrix(1 0 0 1 20.01100000000000 63.01800000000000)"><path id="efotuvcz9m1g60" d="M9.874000,-1.495000C9.874000,-1.495000,-9.874000,-1.495000,-9.874000,-1.495000C-9.790000,-0.893000,-9.711000,-0.255000,-9.637000,0.432000C-9.598000,0.800000,-9.570000,1.143000,-9.538000,1.495000C-9.538000,1.495000,9.874000,1.495000,9.874000,1.495000C9.874000,1.495000,9.874000,-1.495000,9.874000,-1.495000Z" fill="rgb(54,122,240)" stroke="none" stroke-width="1"/></g><g id="efotuvcz9m1g61" transform="matrix(1 0 0 1 59.52200000000000 74.97199999999999)"><path id="efotuvcz9m1g62" d="M-9.482000,-1.494000C-9.482000,-1.494000,-9.482000,1.494000,-9.482000,1.494000C-9.482000,1.494000,8.935000,1.494000,8.935000,1.494000C9.239000,0.641000,9.395000,-0.347000,9.482000,-1.494000C9.482000,-1.494000,-9.482000,-1.494000,-9.482000,-1.494000Z" fill="rgb(54,122,240)" stroke="none" stroke-width="1"/></g><g id="efotuvcz9m1g63" transform="matrix(1 0 0 1 59.91300000000000 63.01800000000000)"><path id="efotuvcz9m1g64" d="M-9.874000,-1.495000C-9.874000,-1.495000,-9.874000,1.495000,-9.874000,1.495000C-9.874000,1.495000,9.538000,1.495000,9.538000,1.495000C9.570000,1.143000,9.597000,0.800000,9.637000,0.432000C9.710000,-0.255000,9.790000,-0.893000,9.874000,-1.495000C9.874000,-1.495000,-9.874000,-1.495000,-9.874000,-1.495000Z" fill="rgb(54,122,240)" stroke="none" stroke-width="1"/></g><g id="efotuvcz9m1g65" transform="matrix(1 0 0 1 20.40200000000000 74.97199999999999)"><path id="efotuvcz9m1g66" d="M9.482000,-1.494000C9.482000,-1.494000,-9.482000,-1.494000,-9.482000,-1.494000C-9.395000,-0.347000,-9.238000,0.641000,-8.934000,1.494000C-8.934000,1.494000,9.482000,1.494000,9.482000,1.494000C9.482000,1.494000,9.482000,-1.494000,9.482000,-1.494000Z" fill="rgb(54,122,240)" stroke="none" stroke-width="1"/></g><g id="efotuvcz9m1g67" transform="matrix(1 0 0 1 19.32300000000000 57.04000000000000)"><path id="efotuvcz9m1g68" d="M10.562000,1.494000C10.562000,1.494000,10.562000,-1.494000,10.562000,-1.494000C10.562000,-1.494000,-10.562000,-1.494000,-10.562000,-1.494000C-10.247000,-0.644000,-9.960000,0.326000,-9.706000,1.494000C-9.706000,1.494000,10.562000,1.494000,10.562000,1.494000Z" fill="rgb(54,122,240)" stroke="none" stroke-width="1"/></g><g id="efotuvcz9m1g69" transform="matrix(1 0 0 1 39.96200000000000 21.17600000000000)"><path id="efotuvcz9m1g70" d="M-27.318001,-1.495000C-27.742001,-0.515000,-28.194000,0.484000,-28.667000,1.495000C-28.667000,1.495000,28.667999,1.495000,28.667999,1.495000C28.195000,0.484000,27.743000,-0.515000,27.319000,-1.495000C27.319000,-1.495000,-27.318001,-1.495000,-27.318001,-1.495000Z" fill="rgb(54,122,240)" stroke="none" stroke-width="1"/></g><g id="efotuvcz9m1g71" transform="matrix(1 0 0 1 56.19700000000000 27.15300000000000)"><path id="efotuvcz9m1g72" d="M-15.310000,-1.495000C-15.310000,-1.495000,-13.220000,1.495000,-13.220000,1.495000C-13.220000,1.495000,15.310000,1.495000,15.310000,1.495000C14.830000,0.501000,14.342000,-0.498000,13.860000,-1.495000C13.860000,-1.495000,-15.310000,-1.495000,-15.310000,-1.495000Z" fill="rgb(54,122,240)" stroke="none" stroke-width="1"/></g><g id="efotuvcz9m1g73" transform="matrix(1 0 0 1 39.96200000000000 5.79300000000000)"><path id="efotuvcz9m1g74" d="M24.444000,4.922000C19.978001,-4.922000,-19.978001,-4.922000,-24.444000,4.922000C-24.444000,4.922000,24.444000,4.922000,24.444000,4.922000Z" fill="rgb(54,122,240)" stroke="none" stroke-width="1"/></g><g id="efotuvcz9m1g75" transform="matrix(1 0 0 1 39.96300000000000 15.19800000000000)"><path id="efotuvcz9m1g76" d="M-25.136999,-1.495000C-25.395000,-0.541000,-25.722000,0.460000,-26.107000,1.495000C-26.107000,1.495000,26.107000,1.495000,26.107000,1.495000C25.722000,0.460000,25.393000,-0.541000,25.135000,-1.495000C25.135000,-1.495000,-25.136999,-1.495000,-25.136999,-1.495000Z" fill="rgb(54,122,240)" stroke="none" stroke-width="1"/></g><g id="efotuvcz9m1g77" transform="matrix(1 0 0 1 21.94200000000000 81.12200000000000)"><path id="efotuvcz9m1g78" d="M-7.943000,-1.667000C-7.381000,-1.334000,-6.728000,-1.028000,-5.943000,-0.747000C0.807000,1.666000,7.943000,0.326000,7.943000,0.326000C7.943000,0.326000,7.943000,-1.667000,7.943000,-1.667000C7.943000,-1.667000,-7.943000,-1.667000,-7.943000,-1.667000Z" fill="rgb(54,122,240)" stroke="none" stroke-width="1"/></g><g id="efotuvcz9m1g79" transform="matrix(1 0 0 1 57.98300000000000 81.12200000000000)"><path id="efotuvcz9m1g80" d="M-7.943000,-1.667000C-7.943000,-1.667000,-7.943000,0.326000,-7.943000,0.326000C-7.943000,0.326000,-0.807000,1.666000,5.943000,-0.747000C6.729000,-1.028000,7.381000,-1.334000,7.943000,-1.667000C7.943000,-1.667000,-7.943000,-1.667000,-7.943000,-1.667000Z" fill="rgb(54,122,240)" stroke="none" stroke-width="1"/></g><g id="efotuvcz9m1g81" transform="matrix(1 0 0 1 59.64200000000000 68.99500000000000)"><path id="efotuvcz9m1g82" d="M-9.602000,-1.495000C-9.602000,-1.495000,-9.602000,1.495000,-9.602000,1.495000C-9.602000,1.495000,9.495000,1.495000,9.495000,1.495000C9.520000,0.580000,9.550000,-0.415000,9.602000,-1.495000C9.602000,-1.495000,-9.602000,-1.495000,-9.602000,-1.495000Z" fill="rgb(54,122,240)" stroke="none" stroke-width="1"/></g><g id="efotuvcz9m1g83" transform="matrix(1 0 0 1 20.28300000000000 68.99500000000000)"><path id="efotuvcz9m1g84" d="M9.602000,1.495000C9.602000,1.495000,9.602000,-1.495000,9.602000,-1.495000C9.602000,-1.495000,-9.602000,-1.495000,-9.602000,-1.495000C-9.550000,-0.415000,-9.520000,0.580000,-9.495000,1.495000C-9.495000,1.495000,9.602000,1.495000,9.602000,1.495000Z" fill="rgb(54,122,240)" stroke="none" stroke-width="1"/></g><g id="efotuvcz9m1g85" transform="matrix(1 0 0 1 59.67300000000000 33.13000000000000)"><path id="efotuvcz9m1g86" d="M-14.605000,-1.495000C-14.605000,-1.495000,-12.515000,1.495000,-12.515000,1.495000C-12.515000,1.495000,14.605000,1.495000,14.605000,1.495000C14.186000,0.519000,13.731000,-0.482000,13.258000,-1.495000C13.258000,-1.495000,-14.605000,-1.495000,-14.605000,-1.495000Z" fill="rgb(54,122,240)" stroke="none" stroke-width="1"/></g><g id="efotuvcz9m1g87" transform="matrix(1 0 0 1 60.60100000000000 57.04000000000000)"><path id="efotuvcz9m1g88" d="M-10.561000,-1.494000C-10.561000,-1.494000,-10.561000,1.494000,-10.561000,1.494000C-10.561000,1.494000,9.706000,1.494000,9.706000,1.494000C9.960000,0.326000,10.246000,-0.643000,10.561000,-1.494000C10.561000,-1.494000,-10.561000,-1.494000,-10.561000,-1.494000Z" fill="rgb(54,122,240)" stroke="none" stroke-width="1"/></g><g id="efotuvcz9m1g89" transform="matrix(1 0 0 1 62.29400000000000 51.06300000000000)"><path id="efotuvcz9m1g90" d="M-12.254000,-1.495000C-12.254000,-1.495000,-12.254000,1.495000,-12.254000,1.495000C-12.254000,1.495000,10.323000,1.495000,10.323000,1.495000C10.903000,0.535000,11.546000,-0.387000,12.254000,-1.495000C12.254000,-1.495000,-12.254000,-1.495000,-12.254000,-1.495000Z" fill="rgb(54,122,240)" stroke="none" stroke-width="1"/></g><g id="efotuvcz9m1g91" transform="matrix(1 0 0 1 62.82300000000000 39.10800000000000)"><path id="efotuvcz9m1g92" d="M-13.575000,-1.495000C-13.575000,-1.495000,-12.783000,-0.363000,-12.783000,-0.363000C-12.783000,-0.363000,-12.783000,1.495000,-12.783000,1.495000C-12.783000,1.495000,13.575000,1.495000,13.575000,1.495000C13.339000,0.548000,13.025000,-0.452000,12.646000,-1.495000C12.646000,-1.495000,-13.575000,-1.495000,-13.575000,-1.495000Z" fill="rgb(54,122,240)" stroke="none" stroke-width="1"/></g></g><g id="efotuvcz9m1g93" transform="matrix(1 0 0 1 40.01000000000000 41.14000000000000)" opacity="0.5"><path id="efotuvcz9m1g94" d="M17.132000,-20.462999C17.132000,-20.462999,-17.132999,-20.462999,-17.132999,-20.462999C-17.132999,-20.462999,-20.077000,-12.832000,-20.077000,-5.200000C-20.077000,0.838000,-20.068001,14.828000,-10.124000,20.412001C-10.124000,20.412001,-10.124000,-2.395000,-10.124000,-2.395000C-10.124000,-2.395000,10.029000,-2.395000,10.029000,-2.395000C10.029000,-2.395000,10.029000,20.462999,10.029000,20.462999C20.066000,14.915000,20.077000,0.856000,20.077000,-5.200000C20.077000,-12.832000,17.132000,-20.462999,17.132000,-20.462999Z" fill="rgb(5,29,39)" stroke="none" stroke-width="1"/></g></g><g id="efotuvcz9m1g95" transform="matrix(1 0 0 1 48.26290000000000 71.00890000000000)"><g id="efotuvcz9m1g96" transform="matrix(1 0 0 1 1.79500000000000 1.48600000000000)"><path id="efotuvcz9m1g97" d="M1.236000,0.001000C1.236000,0.684000,0.682000,1.236000,0,1.236000C-0.682000,1.236000,-1.236000,0.684000,-1.236000,0.001000C-1.236000,-0.682000,-0.682000,-1.236000,0,-1.236000C0.682000,-1.236000,1.236000,-0.682000,1.236000,0.001000Z" fill="rgb(255,219,94)" stroke="none" stroke-width="1"/></g><g id="efotuvcz9m1g98" transform="matrix(1 0 0 1 1.79500000000000 3.95700000000000)"><path id="efotuvcz9m1g99" d="M1.236000,0.001000C1.236000,0.684000,0.682000,1.236000,0,1.236000C-0.682000,1.236000,-1.236000,0.684000,-1.236000,0.001000C-1.236000,-0.682000,-0.682000,-1.236000,0,-1.236000C0.682000,-1.236000,1.236000,-0.682000,1.236000,0.001000Z" fill="rgb(255,219,94)" stroke="none" stroke-width="1"/></g><g id="efotuvcz9m1g100" transform="matrix(1 0 0 1 1.79500000000000 6.42900000000000)"><path id="efotuvcz9m1g101" d="M1.236000,0C1.236000,0.683000,0.682000,1.236000,0,1.236000C-0.682000,1.236000,-1.236000,0.683000,-1.236000,0C-1.236000,-0.683000,-0.682000,-1.236000,0,-1.236000C0.682000,-1.236000,1.236000,-0.683000,1.236000,0Z" fill="rgb(255,219,94)" stroke="none" stroke-width="1"/></g><g id="efotuvcz9m1g102" transform="matrix(1 0 0 1 1.79500000000000 12.60900000000000)"><path id="efotuvcz9m1g103" d="M1.236000,3.708000C1.236000,4.391000,0.682000,4.943000,0,4.943000C-0.682000,4.943000,-1.236000,4.391000,-1.236000,3.708000C-1.236000,3.025000,-0.682000,-4.943000,0,-4.943000C0.682000,-4.943000,1.236000,3.025000,1.236000,3.708000Z" fill="rgb(255,219,94)" stroke="none" stroke-width="1"/></g><g id="efotuvcz9m1g104" transform="matrix(1 0 0 1 1.79500000000000 31.14800000000000)"><path id="efotuvcz9m1g105" d="M1.545000,4.634000C1.545000,5.488000,0.853000,6.179000,0,6.179000C-0.853000,6.179000,-1.545000,5.488000,-1.545000,4.634000C-1.545000,3.781000,-0.853000,-6.179000,0,-6.179000C0.853000,-6.179000,1.545000,3.781000,1.545000,4.634000Z" fill="rgb(255,219,94)" stroke="none" stroke-width="1"/></g><g id="efotuvcz9m1g106" transform="matrix(1 0 0 1 1.79500000000000 19.05300000000000)"><path id="efotuvcz9m1g107" d="M0,-1.501000C0,-1.501000,-1.236000,0.971000,-1.236000,0.971000C-1.236000,1.500000,1.236000,1.500000,1.236000,0.971000C1.236000,0.971000,0,-1.501000,0,-1.501000Z" fill="rgb(255,219,94)" stroke="none" stroke-width="1"/></g><g id="efotuvcz9m1g108" transform="matrix(1 0 0 1 1.79500000000000 21.52500000000000)"><path id="efotuvcz9m1g109" d="M0,-1.501000C0,-1.501000,-1.236000,0.971000,-1.236000,0.971000C-1.236000,1.500000,1.236000,1.500000,1.236000,0.971000C1.236000,0.971000,0,-1.501000,0,-1.501000Z" fill="rgb(255,219,94)" stroke="none" stroke-width="1"/></g><g id="efotuvcz9m1g110" transform="matrix(1 0 0 1 1.79500000000000 23.99600000000000)"><path id="efotuvcz9m1g111" d="M0,-1.501000C0,-1.501000,-1.236000,0.973000,-1.236000,0.973000C-1.236000,1.501000,1.236000,1.501000,1.236000,0.973000C1.236000,0.973000,0,-1.501000,0,-1.501000Z" fill="rgb(255,219,94)" stroke="none" stroke-width="1"/></g></g><g id="efotuvcz9m1g112" transform="matrix(1 0 0 1 44.55490000000000 70.18964953645880)"><g id="efotuvcz9m1g113" transform="matrix(1 0 0 1 1.79500000000000 1.48600000000000)"><path id="efotuvcz9m1g114" d="M1.236000,0.001000C1.236000,0.684000,0.683000,1.236000,0,1.236000C-0.682000,1.236000,-1.236000,0.684000,-1.236000,0.001000C-1.236000,-0.682000,-0.682000,-1.236000,0,-1.236000C0.683000,-1.236000,1.236000,-0.682000,1.236000,0.001000Z" fill="rgb(255,219,94)" stroke="none" stroke-width="1"/></g><g id="efotuvcz9m1g115" transform="matrix(1 0 0 1 1.79500000000000 3.95700000000000)"><path id="efotuvcz9m1g116" d="M1.236000,0.001000C1.236000,0.684000,0.683000,1.236000,0,1.236000C-0.682000,1.236000,-1.236000,0.684000,-1.236000,0.001000C-1.236000,-0.682000,-0.682000,-1.236000,0,-1.236000C0.683000,-1.236000,1.236000,-0.682000,1.236000,0.001000Z" fill="rgb(255,219,94)" stroke="none" stroke-width="1"/></g><g id="efotuvcz9m1g117" transform="matrix(1 0 0 1 1.79500000000000 6.42900000000000)"><path id="efotuvcz9m1g118" d="M1.236000,0C1.236000,0.683000,0.683000,1.236000,0,1.236000C-0.682000,1.236000,-1.236000,0.683000,-1.236000,0C-1.236000,-0.683000,-0.682000,-1.236000,0,-1.236000C0.683000,-1.236000,1.236000,-0.683000,1.236000,0Z" fill="rgb(255,219,94)" stroke="none" stroke-width="1"/></g><g id="efotuvcz9m1g119" transform="matrix(1 0 0 1 1.79500000000000 12.60900000000000)"><path id="efotuvcz9m1g120" d="M1.236000,3.708000C1.236000,4.391000,0.683000,4.943000,0,4.943000C-0.682000,4.943000,-1.236000,4.391000,-1.236000,3.708000C-1.236000,3.025000,-0.682000,-4.943000,0,-4.943000C0.683000,-4.943000,1.236000,3.025000,1.236000,3.708000Z" fill="rgb(255,219,94)" stroke="none" stroke-width="1"/></g><g id="efotuvcz9m1g121" transform="matrix(1 0 0 1 1.79500000000000 31.14800000000000)"><path id="efotuvcz9m1g122" d="M1.545000,4.634000C1.545000,5.488000,0.854000,6.179000,0,6.179000C-0.853000,6.179000,-1.545000,5.488000,-1.545000,4.634000C-1.545000,3.781000,-0.853000,-6.179000,0,-6.179000C0.854000,-6.179000,1.545000,3.781000,1.545000,4.634000Z" fill="rgb(255,219,94)" stroke="none" stroke-width="1"/></g><g id="efotuvcz9m1g123" transform="matrix(1 0 0 1 1.79500000000000 19.05300000000000)"><path id="efotuvcz9m1g124" d="M0,-1.501000C0,-1.501000,-1.236000,0.971000,-1.236000,0.971000C-1.236000,1.500000,1.236000,1.500000,1.236000,0.971000C1.236000,0.971000,0,-1.501000,0,-1.501000Z" fill="rgb(255,219,94)" stroke="none" stroke-width="1"/></g><g id="efotuvcz9m1g125" transform="matrix(1 0 0 1 1.79500000000000 21.52500000000000)"><path id="efotuvcz9m1g126" d="M0,-1.501000C0,-1.501000,-1.236000,0.971000,-1.236000,0.971000C-1.236000,1.500000,1.236000,1.500000,1.236000,0.971000C1.236000,0.971000,0,-1.501000,0,-1.501000Z" fill="rgb(255,219,94)" stroke="none" stroke-width="1"/></g><g id="efotuvcz9m1g127" transform="matrix(1 0 0 1 1.79500000000000 23.99600000000000)"><path id="efotuvcz9m1g128" d="M0,-1.501000C0,-1.501000,-1.236000,0.973000,-1.236000,0.973000C-1.236000,1.501000,1.236000,1.501000,1.236000,0.973000C1.236000,0.973000,0,-1.501000,0,-1.501000Z" fill="rgb(255,219,94)" stroke="none" stroke-width="1"/></g></g><g id="efotuvcz9m1g129" transform="matrix(1 0 0 1 40.97623952520259 71.04257028659096)"><g id="efotuvcz9m1g130" transform="matrix(1 0 0 1 1.79500000000000 1.48600000000000)"><path id="efotuvcz9m1g131" d="M1.236000,0.001000C1.236000,0.684000,0.683000,1.236000,0,1.236000C-0.682000,1.236000,-1.236000,0.684000,-1.236000,0.001000C-1.236000,-0.682000,-0.682000,-1.236000,0,-1.236000C0.683000,-1.236000,1.236000,-0.682000,1.236000,0.001000Z" fill="rgb(255,219,94)" stroke="none" stroke-width="1"/></g><g id="efotuvcz9m1g132" transform="matrix(1 0 0 1 1.79500000000000 3.95700000000000)"><path id="efotuvcz9m1g133" d="M1.236000,0.001000C1.236000,0.684000,0.683000,1.236000,0,1.236000C-0.682000,1.236000,-1.236000,0.684000,-1.236000,0.001000C-1.236000,-0.682000,-0.682000,-1.236000,0,-1.236000C0.683000,-1.236000,1.236000,-0.682000,1.236000,0.001000Z" fill="rgb(255,219,94)" stroke="none" stroke-width="1"/></g><g id="efotuvcz9m1g134" transform="matrix(1 0 0 1 1.79500000000000 6.42900000000000)"><path id="efotuvcz9m1g135" d="M1.236000,0C1.236000,0.683000,0.683000,1.236000,0,1.236000C-0.682000,1.236000,-1.236000,0.683000,-1.236000,0C-1.236000,-0.683000,-0.682000,-1.236000,0,-1.236000C0.683000,-1.236000,1.236000,-0.683000,1.236000,0Z" fill="rgb(255,219,94)" stroke="none" stroke-width="1"/></g><g id="efotuvcz9m1g136" transform="matrix(1 0 0 1 1.79500000000000 12.60900000000000)"><path id="efotuvcz9m1g137" d="M1.236000,3.708000C1.236000,4.391000,0.683000,4.943000,0,4.943000C-0.682000,4.943000,-1.236000,4.391000,-1.236000,3.708000C-1.236000,3.025000,-0.682000,-4.943000,0,-4.943000C0.683000,-4.943000,1.236000,3.025000,1.236000,3.708000Z" fill="rgb(255,219,94)" stroke="none" stroke-width="1"/></g><g id="efotuvcz9m1g138" transform="matrix(1 0 0 1 1.79500000000000 31.14800000000000)"><path id="efotuvcz9m1g139" d="M1.545000,4.634000C1.545000,5.488000,0.853000,6.179000,0,6.179000C-0.853000,6.179000,-1.545000,5.488000,-1.545000,4.634000C-1.545000,3.781000,-0.853000,-6.179000,0,-6.179000C0.853000,-6.179000,1.545000,3.781000,1.545000,4.634000Z" fill="rgb(255,219,94)" stroke="none" stroke-width="1"/></g><g id="efotuvcz9m1g140" transform="matrix(1 0 0 1 1.79500000000000 19.05300000000000)"><path id="efotuvcz9m1g141" d="M0,-1.501000C0,-1.501000,-1.236000,0.971000,-1.236000,0.971000C-1.236000,1.500000,1.236000,1.500000,1.236000,0.971000C1.236000,0.971000,0,-1.501000,0,-1.501000Z" fill="rgb(255,219,94)" stroke="none" stroke-width="1"/></g><g id="efotuvcz9m1g142" transform="matrix(1 0 0 1 1.79500000000000 21.52500000000000)"><path id="efotuvcz9m1g143" d="M0,-1.501000C0,-1.501000,-1.236000,0.971000,-1.236000,0.971000C-1.236000,1.500000,1.236000,1.500000,1.236000,0.971000C1.236000,0.971000,0,-1.501000,0,-1.501000Z" fill="rgb(255,219,94)" stroke="none" stroke-width="1"/></g><g id="efotuvcz9m1g144" transform="matrix(1 0 0 1 1.79500000000000 23.99600000000000)"><path id="efotuvcz9m1g145" d="M0,-1.501000C0,-1.501000,-1.236000,0.973000,-1.236000,0.973000C-1.236000,1.501000,1.236000,1.501000,1.236000,0.973000C1.236000,0.973000,0,-1.501000,0,-1.501000Z" fill="rgb(255,219,94)" stroke="none" stroke-width="1"/></g></g><g id="efotuvcz9m1g146" transform="matrix(1 0 0 1 40.38190000000000 62.54490000000000)"><g id="efotuvcz9m1g147" transform="matrix(1 0 0 1 5.96800000000000 4.48200000000000)"><path id="efotuvcz9m1g148" d="M-0.001000,-4.232000C-0.001000,-4.232000,-5.719000,4.232000,-5.719000,4.232000C-5.719000,4.232000,5.719000,4.232000,5.719000,4.232000C5.719000,4.232000,-0.001000,-4.232000,-0.001000,-4.232000Z" fill="rgb(255,219,94)" stroke="none" stroke-width="1"/></g></g><g id="efotuvcz9m1g149" transform="matrix(1 0 0 1 44.53490000000000 61.41690000000000)"><g id="efotuvcz9m1g150" transform="matrix(1 0 0 1 26.15700000000000 23.96700000000000)"><path id="efotuvcz9m1g151" d="M24.503000,23.716999C24.167000,23.716999,23.830999,23.584000,23.582001,23.320999C23.582001,23.320999,-15.999000,-18.158001,-15.999000,-18.158001C-18.111000,-20.268000,-21.216000,-21.002001,-24.079000,-20.047001C-24.746000,-19.823999,-25.461000,-20.184999,-25.684000,-20.849001C-25.906000,-21.514999,-25.547001,-22.233999,-24.882000,-22.455999C-21.101000,-23.716999,-16.999001,-22.749001,-14.180000,-19.929001C-14.180000,-19.929001,25.423000,21.572001,25.423000,21.572001C25.906000,22.080999,25.886999,22.885000,25.378000,23.367001C25.132000,23.601000,24.816999,23.716999,24.503000,23.716999Z" fill="rgb(255,219,94)" stroke="none" stroke-width="1"/></g></g><g id="efotuvcz9m1g152" transform="matrix(1 0 0 1 38.68090000000000 59.06190000000000)"><g id="efotuvcz9m1g153" transform="matrix(1 0 0 1 29.69600000000000 25.42400000000000)"><path id="efotuvcz9m1g154" d="M-28.167000,25.135000C-28.490000,25.096001,-28.798000,24.933001,-29.014000,24.656000C-29.447001,24.105000,-29.349001,23.306999,-28.796000,22.874001C-28.796000,22.874001,7.130000,-5.215000,7.130000,-5.215000C9.320000,-6.929000,11.946000,-7.898000,14.723000,-8.021000C14.723000,-8.021000,19.742001,-8.243000,19.742001,-8.243000C20.819000,-8.291000,21.836000,-8.667000,22.684999,-9.331000C22.684999,-9.331000,23.238001,-9.764000,23.238001,-9.764000C26.083000,-11.993000,26.584000,-16.121000,24.357000,-18.966999C22.128000,-21.811001,18,-22.313000,15.156000,-20.084999C15.156000,-20.084999,13.965000,-19.152000,13.965000,-19.152000C13.170000,-18.528000,12.664000,-17.634001,12.540000,-16.632999C12.333000,-14.959000,11.488000,-13.465000,10.161000,-12.426000C10.161000,-12.426000,9.139000,-11.627000,9.139000,-11.627000C8.587000,-11.194000,7.790000,-11.292000,7.357000,-11.844000C6.925000,-12.395000,7.023000,-13.193000,7.575000,-13.626000C7.575000,-13.626000,8.594000,-14.424000,8.594000,-14.424000C9.389000,-15.046000,9.896000,-15.941000,10.020000,-16.943001C10.227000,-18.615999,11.071000,-20.111000,12.398000,-21.152000C12.398000,-21.152000,13.590000,-22.083000,13.590000,-22.083000C17.538000,-25.173000,23.264000,-24.480000,26.355000,-20.532000C29.445999,-16.584999,28.749001,-10.857000,24.802999,-7.766000C24.802999,-7.766000,24.249001,-7.333000,24.249001,-7.333000C22.982000,-6.340000,21.462000,-5.778000,19.854000,-5.708000C19.854000,-5.708000,14.835000,-5.484000,14.835000,-5.484000C12.589000,-5.386000,10.465000,-4.600000,8.695000,-3.215000C8.695000,-3.215000,-27.232000,24.874001,-27.232000,24.874001C-27.507999,25.091000,-27.844999,25.174000,-28.167000,25.135000Z" fill="rgb(255,219,94)" stroke="none" stroke-width="1"/></g></g><g id="efotuvcz9m1g155" transform="matrix(1 0 0 1 48.29790000000000 10.61070000000000)"><g id="efotuvcz9m1g156" transform="matrix(1 0 0 1 21.70300000000000 38.94800000000000)"><path id="efotuvcz9m1g157" d="M-0.001000,-16.936001C-0.001000,-16.936001,-16.936001,-16.936001,-16.936001,-16.936001C-16.936001,-16.936001,-15.727000,-10.958000,-15.727000,-4.981000C-15.727000,0.997000,-15.727000,16.936001,-0.001000,16.936001C15.726000,16.936001,15.727000,0.997000,15.727000,-4.981000C15.727000,-10.958000,16.936001,-16.936001,16.936001,-16.936001C16.936001,-16.936001,-0.001000,-16.936001,-0.001000,-16.936001Z" transform="matrix(1 0 0 1 -0.43004415658229 -0.01926481213393)" fill="rgb(255,219,94)" stroke="none" stroke-width="1"/></g><g id="efotuvcz9m1g158" transform="matrix(1 0 0 1 12.54300000000000 31.48000000000000)"><path id="efotuvcz9m1g159" d="M1.577000,-1.498000C1.520000,-1.498000,1.466000,-1.483000,1.409000,-1.481000C1.345000,-1.483000,1.294000,-1.498000,1.228000,-1.498000C-0.560000,-1.498000,-2.326000,-0.585000,-3.288000,0.004000C-3.839000,0.115000,-5.110000,0.266000,-5.785000,-0.501000C-5.785000,-0.501000,-5.785000,0.495000,-5.785000,0.495000C-5.785000,0.495000,-4.031000,0.495000,-4.031000,0.495000C-4.031000,0.495000,-1.367000,1.498000,1.432000,1.361000C2.953000,1.437000,4.565000,1.265000,5.785000,0.495000C5.785000,0.495000,4.072000,-1.498000,1.577000,-1.498000Z" fill="rgb(253,148,49)" stroke="none" stroke-width="1"/><g id="efotuvcz9m1g160" opacity="0"><path id="efotuvcz9m1g161" d="M1.577000,-1.498000C1.520000,-1.498000,1.466000,-1.483000,1.409000,-1.481000C1.345000,-1.483000,1.294000,-1.498000,1.228000,-1.498000C-0.560000,-1.498000,-2.326000,-0.585000,-3.288000,0.004000C-3.839000,0.115000,-5.110000,0.266000,-5.785000,-0.501000C-5.785000,-0.501000,-5.785000,0.495000,-5.785000,0.495000C-5.785000,0.495000,-4.031000,0.495000,-4.031000,0.495000C-4.031000,0.495000,-1.367000,1.498000,1.432000,1.361000C2.953000,1.437000,4.565000,1.265000,5.785000,0.495000C5.785000,0.495000,4.072000,-1.498000,1.577000,-1.498000Z" fill="rgb(255,255,255)" stroke="none" stroke-width="1"/></g></g><g id="efotuvcz9m1g162" transform="matrix(1 0 0 1 30.90500000000000 31.47600000000000)"><path id="efotuvcz9m1g163" d="M3.245000,0.008000C2.284000,-0.581000,0.517000,-1.494000,-1.271000,-1.494000C-1.337000,-1.494000,-1.389000,-1.479000,-1.452000,-1.477000C-1.509000,-1.479000,-1.566000,-1.494000,-1.622000,-1.494000C-4.116000,-1.494000,-5.740000,0.499000,-5.740000,0.499000C-4.527000,1.265000,-2.940000,1.439000,-1.443000,1.367000C1.345000,1.494000,3.988000,0.499000,3.988000,0.499000C3.988000,0.499000,5.740000,0.499000,5.740000,0.499000C5.740000,0.499000,5.740000,-0.497000,5.740000,-0.497000C5.065000,0.270000,3.797000,0.119000,3.245000,0.008000Z" fill="rgb(253,148,49)" stroke="none" stroke-width="1"/><g id="efotuvcz9m1g164" opacity="0"><path id="efotuvcz9m1g165" d="M3.245000,0.008000C2.284000,-0.581000,0.517000,-1.494000,-1.271000,-1.494000C-1.337000,-1.494000,-1.389000,-1.479000,-1.452000,-1.477000C-1.509000,-1.479000,-1.566000,-1.494000,-1.622000,-1.494000C-4.116000,-1.494000,-5.740000,0.499000,-5.740000,0.499000C-4.527000,1.265000,-2.940000,1.439000,-1.443000,1.367000C1.345000,1.494000,3.988000,0.499000,3.988000,0.499000C3.988000,0.499000,5.740000,0.499000,5.740000,0.499000C5.740000,0.499000,5.740000,-0.497000,5.740000,-0.497000C5.065000,0.270000,3.797000,0.119000,3.245000,0.008000Z" fill="rgb(255,255,255)" stroke="none" stroke-width="1"/></g></g><g id="efotuvcz9m1g166" transform="matrix(1 0 0 1 21.70200000000000 67.27000000000000)"><path id="efotuvcz9m1g167" d="M-4.981000,-12.525000C-4.981000,-12.525000,-3.333000,9.190000,-3.333000,9.190000C-3.190000,11.074000,-1.741000,12.525000,0,12.525000C1.740000,12.525000,3.190000,11.074000,3.333000,9.190000C3.333000,9.190000,4.981000,-12.525000,4.981000,-12.525000C1.660000,-11.471000,-1.660000,-11.471000,-4.981000,-12.525000Z" fill="rgb(253,146,46)" stroke="none" stroke-width="1"/></g><g id="efotuvcz9m1g168" transform="matrix(1 0 0 1 0 -0.00000400000000)"><g id="efotuvcz9m1g169" transform="matrix(1 0 0 1 12.41700000000000 26.52200000000000)"><path id="efotuvcz9m1g170" d="M4.851000,0.461000C4.851000,0.461000,-1.617000,-1.383000,-3.234000,-0.461000C-4.851000,0.461000,-5.659000,1.383000,-5.659000,1.383000C-5.659000,1.383000,-4.041000,0.461000,-2.424000,0.461000C-0.808000,0.461000,4.851000,1.383000,4.851000,1.383000C4.851000,1.383000,5.659000,1.383000,4.851000,0.461000Z" fill="rgb(253,146,46)" stroke="none" stroke-width="1"/></g><g id="efotuvcz9m1g171" transform="matrix(1 0 0 1 30.98700000000000 26.52200000000000)"><path id="efotuvcz9m1g172" d="M-4.850000,0.461000C-4.850000,0.461000,1.617000,-1.383000,3.234000,-0.461000C4.850000,0.461000,5.659000,1.383000,5.659000,1.383000C5.659000,1.383000,4.043000,0.461000,2.425000,0.461000C0.809000,0.461000,-4.850000,1.383000,-4.850000,1.383000C-4.850000,1.383000,-5.659000,1.383000,-4.850000,0.461000Z" fill="rgb(253,146,46)" stroke="none" stroke-width="1"/></g></g><g id="efotuvcz9m1g173"><g id="efotuvcz9m1g174" transform="matrix(1 0 0 1 21.68400000000000 13.02700000000000)"><path id="efotuvcz9m1g175" d="M-21.434000,-4.249000C-18.976000,-1.545000,-16.305000,12.777000,-16.305000,12.777000C-5.380000,9.484000,5.502000,9.497000,16.341999,12.777000C16.341999,12.777000,18.987000,-1.397000,21.434000,-4.203000C7.090000,-12.771000,-7.200000,-12.776000,-21.434000,-4.249000Z" fill="rgb(54,122,240)" stroke="none" stroke-width="1"/></g><g id="efotuvcz9m1g176" transform="matrix(1 0 0 1 7.26900000000000 15.39500000000000)"><path id="efotuvcz9m1g177" d="M-3.036000,-8.756000C-0.642000,-2.763000,0.157000,2.510000,1.085000,9.602000C1.735000,9.442000,2.385000,9.293000,3.036000,9.156000C2.092000,1.957000,1.266000,-3.415000,-1.226000,-9.602000C-1.829000,-9.339000,-2.433000,-9.050000,-3.036000,-8.756000Z" fill="rgb(253,146,46)" stroke="none" stroke-width="1"/></g><g id="efotuvcz9m1g178" transform="matrix(1 0 0 1 12.43900000000000 13.91100000000000)"><path id="efotuvcz9m1g179" d="M-2.734000,-9.515000C-0.925000,-3.829000,0.378000,3.463000,0.751000,10.105000C1.412000,10.001000,2.073000,9.909000,2.734000,9.829000C2.346000,3.018000,1.034000,-4.291000,-0.827000,-10.105000C-1.463000,-9.928000,-2.098000,-9.726000,-2.734000,-9.515000Z" fill="rgb(253,146,46)" stroke="none" stroke-width="1"/></g><g id="efotuvcz9m1g180" transform="matrix(1 0 0 1 17.14700000000000 13.11400000000000)"><path id="efotuvcz9m1g181" d="M-1.962000,-10.124000C-0.976000,-3.508000,-0.327000,3.372000,-0.026000,10.426000C0.637000,10.370000,1.299000,10.326000,1.962000,10.294000C1.658000,3.184000,1.003000,-3.753000,0.007000,-10.426000C-0.650000,-10.344000,-1.306000,-10.242000,-1.962000,-10.124000Z" fill="rgb(253,146,46)" stroke="none" stroke-width="1"/></g><g id="efotuvcz9m1g182" transform="matrix(1 0 0 1 36.12500000000000 15.42000000000000)"><path id="efotuvcz9m1g183" d="M1.215000,-9.574000C-1.260000,-3.410000,-2.085000,1.951000,-3.025000,9.128000C-2.375000,9.265000,-1.723000,9.414000,-1.074000,9.574000C-0.149000,2.505000,0.650000,-2.756000,3.025000,-8.725000C2.422000,-9.019000,1.818000,-9.310000,1.215000,-9.574000Z" fill="rgb(253,146,46)" stroke="none" stroke-width="1"/></g><g id="efotuvcz9m1g184" transform="matrix(1 0 0 1 30.95700000000000 13.92900000000000)"><path id="efotuvcz9m1g185" d="M0.820000,-10.083000C-1.033000,-4.276000,-2.339000,3.012000,-2.726000,9.807000C-2.065000,9.886000,-1.404000,9.979000,-0.743000,10.083000C-0.371000,3.461000,0.925000,-3.808000,2.726000,-9.484000C2.091000,-9.698000,1.456000,-9.903000,0.820000,-10.083000Z" fill="rgb(253,146,46)" stroke="none" stroke-width="1"/></g><g id="efotuvcz9m1g186" transform="matrix(1 0 0 1 26.25400000000000 13.12400000000000)"><path id="efotuvcz9m1g187" d="M-0.008000,-10.414000C-1.001000,-3.748000,-1.656000,3.181000,-1.960000,10.283000C-1.297000,10.315000,-0.634000,10.358000,0.029000,10.414000C0.329000,3.373000,0.976000,-3.497000,1.960000,-10.102000C1.304000,-10.222000,0.648000,-10.330000,-0.008000,-10.414000Z" fill="rgb(253,146,46)" stroke="none" stroke-width="1"/></g><g id="efotuvcz9m1g188" transform="matrix(1 0 0 1 21.70200000000000 12.88200000000000)"><path id="efotuvcz9m1g189" d="M-0.996000,-10.459000C-0.996000,-10.459000,-0.996000,10.476000,-0.996000,10.476000C-0.332000,10.463000,0.332000,10.463000,0.996000,10.475000C0.996000,10.475000,0.996000,-10.452000,0.996000,-10.452000C0.332000,-10.472000,-0.332000,-10.476000,-0.996000,-10.459000Z" fill="rgb(253,146,46)" stroke="none" stroke-width="1"/></g></g><g id="efotuvcz9m1g190" transform="matrix(1 0 0 1 21.70300000000000 23.09800000000000)"><path id="efotuvcz9m1g191" d="M-16.362000,3.663000C-16.362000,3.663000,-17.511999,-0.154000,-17.511999,-0.154000C-5.869000,-3.663000,5.915000,-3.661000,17.511999,-0.152000C17.511999,-0.152000,16.358000,3.661000,16.358000,3.661000C5.524000,0.384000,-5.484000,0.384000,-16.362000,3.663000Z" fill="rgb(255,219,94)" stroke="none" stroke-width="1"/></g><g id="efotuvcz9m1g192" transform="matrix(1 0 0 1 21.70200000000000 17.39000000000000)"><path id="efotuvcz9m1g193" d="M3,-1C3,0.657000,1.657000,5,0,5C-1.657000,5,-3,0.657000,-3,-1C-3,-2.657000,-1.657000,-5,0,-5C1.657000,-5,3,-2.657000,3,-1Z" fill="rgb(255,219,94)" stroke="none" stroke-width="1"/></g></g><g id="efotuvcz9m1g194" transform="matrix(0.53001000000000 0 0 0.53001000000000 69.06000000000000 57.39850000000000)" opacity="0"><g id="efotuvcz9m1g195"><path id="efotuvcz9m1g196" d="M-11.952000,-27.636999C-11.952000,-27.636999,-14.313000,-21.045000,-14.313000,-21.045000C-14.313000,-21.045000,-10.316000,-26.759001,-10.316000,-26.759001C-10.316000,-26.759001,-9.542000,-26.593000,-9.542000,-26.593000C-9.542000,-26.593000,-8.580000,-16.771999,-8.580000,-16.771999C-8.580000,-16.771999,-7.462000,-26.556999,-7.462000,-26.556999C-7.462000,-26.556999,-6.956000,-26.535000,-6.956000,-26.535000C-6.956000,-26.535000,-3.584000,-19.789000,-3.584000,-19.789000C-3.584000,-19.789000,-4.764000,-27.101999,-4.764000,-27.101999C-4.764000,-27.101999,-3.980000,-27.820000,-3.980000,-27.820000C-3.980000,-27.820000,-11.952000,-27.636999,-11.952000,-27.636999Z" fill="rgb(255,255,255)" stroke="none" stroke-width="1"/></g></g><g id="efotuvcz9m1g197" transform="matrix(0.53001000000000 0 0 0.53001000000000 82.59660000000000 56.92570000000000)" opacity="0"><g id="efotuvcz9m1g198"><path id="efotuvcz9m1g199" d="M-11.952000,-27.636999C-11.952000,-27.636999,-13.584000,-20.997000,-13.584000,-20.997000C-13.584000,-20.997000,-10.316000,-26.759001,-10.316000,-26.759001C-10.316000,-26.759001,-9.153000,-26.642000,-9.153000,-26.642000C-9.153000,-26.642000,-7.462000,-17.063999,-7.462000,-17.063999C-7.462000,-17.063999,-7.219000,-26.606001,-7.219000,-26.606001C-7.219000,-26.606001,-5.935000,-26.632000,-5.935000,-26.632000C-5.935000,-26.632000,-3.584000,-19.789000,-3.584000,-19.789000C-3.584000,-19.789000,-4.764000,-27.101999,-4.764000,-27.101999C-4.764000,-27.101999,-3.980000,-27.820000,-3.980000,-27.820000C-3.980000,-27.820000,-11.952000,-27.636999,-11.952000,-27.636999Z" fill="rgb(255,255,255)" stroke="none" stroke-width="1"/></g></g><g id="efotuvcz9m1g200" transform="matrix(1 0 0 1 39.26200000000000 104.68600000000001)" opacity="0"><g id="efotuvcz9m1g201" transform="matrix(1 0 0 1 10.94700000000000 9.24800000000000)"><path id="efotuvcz9m1g202" d="M-10.598000,-8.148000C-10.698000,-8.499000,-10.498000,-8.749000,-10.148000,-8.749000C-10.148000,-8.749000,-7.223000,-8.749000,-7.223000,-8.749000C-7.024000,-8.749000,-6.823000,-8.573000,-6.773000,-8.398000C-6.773000,-8.398000,-4.624000,0.076000,-4.624000,0.076000C-4.624000,0.076000,-4.523000,0.076000,-4.523000,0.076000C-4.523000,0.076000,-0.650000,-8.723000,-0.650000,-8.723000C-0.575000,-8.874000,-0.425000,-8.999000,-0.225000,-8.999000C-0.225000,-8.999000,0.225000,-8.999000,0.225000,-8.999000C0.449000,-8.999000,0.599000,-8.874000,0.650000,-8.723000C0.650000,-8.723000,4.525000,0.076000,4.525000,0.076000C4.525000,0.076000,4.624000,0.076000,4.624000,0.076000C4.624000,0.076000,6.773000,-8.398000,6.773000,-8.398000C6.823000,-8.573000,7.023000,-8.749000,7.223000,-8.749000C7.223000,-8.749000,10.148000,-8.749000,10.148000,-8.749000C10.498000,-8.749000,10.698000,-8.499000,10.598000,-8.148000C10.598000,-8.148000,5.874000,8.648000,5.874000,8.648000C5.824000,8.847000,5.624000,8.999000,5.424000,8.999000C5.424000,8.999000,5.025000,8.999000,5.025000,8.999000C4.849000,8.999000,4.673000,8.874000,4.598000,8.723000C4.598000,8.723000,0.025000,-1.499000,0.025000,-1.499000C0.025000,-1.499000,-0.049000,-1.499000,-0.049000,-1.499000C-0.049000,-1.499000,-4.598000,8.723000,-4.598000,8.723000C-4.673000,8.874000,-4.848000,8.999000,-5.023000,8.999000C-5.023000,8.999000,-5.423000,8.999000,-5.423000,8.999000C-5.623000,8.999000,-5.824000,8.847000,-5.874000,8.648000C-5.874000,8.648000,-10.598000,-8.148000,-10.598000,-8.148000Z" fill="rgb(255,255,255)" stroke="none" stroke-width="1"/></g><g id="efotuvcz9m1g203" transform="matrix(1 0 0 1 26.19200000000000 9.24800000000000)"><path id="efotuvcz9m1g204" d="M-1.975000,-8.273000C-1.975000,-8.523000,-1.749000,-8.749000,-1.499000,-8.749000C-1.499000,-8.749000,1.499000,-8.749000,1.499000,-8.749000C1.749000,-8.749000,1.975000,-8.523000,1.975000,-8.273000C1.975000,-8.273000,1.975000,8.273000,1.975000,8.273000C1.975000,8.523000,1.749000,8.749000,1.499000,8.749000C1.499000,8.749000,-1.499000,8.749000,-1.499000,8.749000C-1.749000,8.749000,-1.975000,8.523000,-1.975000,8.273000C-1.975000,8.273000,-1.975000,-8.273000,-1.975000,-8.273000Z" fill="rgb(255,255,255)" stroke="none" stroke-width="1"/></g><g id="efotuvcz9m1g205" transform="matrix(1 0 0 1 37.64300000000000 9.24800000000000)"><path id="efotuvcz9m1g206" d="M-5.174000,-8.273000C-5.174000,-8.523000,-4.975000,-8.749000,-4.699000,-8.749000C-4.699000,-8.749000,-1.725000,-8.749000,-1.725000,-8.749000C-1.475000,-8.749000,-1.250000,-8.523000,-1.250000,-8.273000C-1.250000,-8.273000,-1.250000,5.074000,-1.250000,5.074000C-1.250000,5.074000,4.698000,5.074000,4.698000,5.074000C4.972000,5.074000,5.174000,5.299000,5.174000,5.549000C5.174000,5.549000,5.174000,8.273000,5.174000,8.273000C5.174000,8.523000,4.972000,8.749000,4.698000,8.749000C4.698000,8.749000,-4.699000,8.749000,-4.699000,8.749000C-4.975000,8.749000,-5.174000,8.523000,-5.174000,8.273000C-5.174000,8.273000,-5.174000,-8.273000,-5.174000,-8.273000Z" fill="rgb(255,255,255)" stroke="none" stroke-width="1"/></g><g id="efotuvcz9m1g207" transform="matrix(1 0 0 1 52.90000000000000 9.24800000000000)"><path id="efotuvcz9m1g208" d="M-7.661000,-8.272000C-7.661000,-8.522000,-7.461000,-8.748000,-7.211000,-8.748000C-7.211000,-8.748000,-1.113000,-8.748000,-1.113000,-8.748000C3.711000,-8.748000,7.661000,-4.823000,7.661000,-0.024000C7.661000,4.824000,3.711000,8.748000,-1.113000,8.748000C-1.113000,8.748000,-7.211000,8.748000,-7.211000,8.748000C-7.461000,8.748000,-7.661000,8.524000,-7.661000,8.274000C-7.661000,8.274000,-7.661000,-8.272000,-7.661000,-8.272000ZM-1.363000,5.049000C1.462000,5.049000,3.513000,2.824000,3.513000,-0.024000C3.513000,-2.849000,1.462000,-5.073000,-1.363000,-5.073000C-1.363000,-5.073000,-3.760000,-5.073000,-3.760000,-5.073000C-3.760000,-5.073000,-3.760000,5.049000,-3.760000,5.049000C-3.760000,5.049000,-1.363000,5.049000,-1.363000,5.049000Z" fill="rgb(255,255,255)" stroke="none" stroke-width="1"/></g></g><g id="efotuvcz9m1g209" transform="matrix(-0.68958100000000 0.02408400000000 -0.02408400000000 -0.68958100000000 151.83687236500020 -22.06147161499996)" opacity="0"><g id="efotuvcz9m1g210"><path id="efotuvcz9m1g211" d="M59.625000,-53.375000C59.625000,-53.375000,59.993000,-47.981998,61.613998,-46.098000C63.076000,-44.398998,68.875000,-44.250000,68.875000,-44.250000C68.875000,-44.250000,63.460999,-43.130001,61.941002,-41.695000C60.460999,-40.297001,60.250000,-34.750000,60.250000,-34.750000C60.250000,-34.750000,60.019001,-40.208000,58.091000,-41.624001C55.936001,-43.208000,50.625000,-43.750000,50.625000,-43.750000C50.625000,-43.750000,55.304001,-43.499001,57.633999,-45.488998C59.783001,-47.325001,59.625000,-53.375000,59.625000,-53.375000Z" fill="rgb(255,255,255)" stroke="none" stroke-width="1"/></g></g><g id="efotuvcz9m1g212" transform="matrix(-0.84294100000000 0.03344000000000 -0.03344000000000 -0.84294100000000 150.36000000000001 1.35501000000000)" opacity="0.0560612"><g id="efotuvcz9m1g213"><path id="efotuvcz9m1g214" d="M59.625000,-53.375000C59.625000,-53.375000,59.993000,-47.981998,61.613998,-46.098000C63.076000,-44.398998,68.875000,-44.250000,68.875000,-44.250000C68.875000,-44.250000,63.460999,-43.130001,61.941002,-41.695000C60.460999,-40.297001,60.250000,-34.750000,60.250000,-34.750000C60.250000,-34.750000,60.019001,-40.208000,58.091000,-41.624001C55.936001,-43.208000,50.625000,-43.750000,50.625000,-43.750000C50.625000,-43.750000,55.304001,-43.499001,57.633999,-45.488998C59.783001,-47.325001,59.625000,-53.375000,59.625000,-53.375000Z" fill="rgb(255,255,255)" stroke="none" stroke-width="1"/></g></g></g><script><![CDATA[!function(t,n){"object"==typeof exports&&"undefined"!=typeof module?module.exports=n():"function"==typeof define&&define.amd?define(n):(t=t||self).__SVGATOR_PLAYER__=n()}(this,(function(){"use strict";function t(n){return(t="function"==typeof Symbol&&"symbol"==typeof Symbol.iterator?function(t){return typeof t}:function(t){return t&&"function"==typeof Symbol&&t.constructor===Symbol&&t!==Symbol.prototype?"symbol":typeof t})(n)}function n(t,n){if(!(t instanceof n))throw new TypeError("Cannot call a class as a function")}function r(t,n){for(var r=0;r<n.length;r++){var e=n[r];e.enumerable=e.enumerable||!1,e.configurable=!0,"value"in e&&(e.writable=!0),Object.defineProperty(t,e.key,e)}}function e(t,n,e){return n&&r(t.prototype,n),e&&r(t,e),t}var i=Math.abs;function u(t){return t}function o(t,n,r){var e=1-r;return 3*r*e*(t*e+n*r)+r*r*r}function a(){var t=arguments.length>0&&void 0!==arguments[0]?arguments[0]:0,n=arguments.length>1&&void 0!==arguments[1]?arguments[1]:0,r=arguments.length>2&&void 0!==arguments[2]?arguments[2]:1,e=arguments.length>3&&void 0!==arguments[3]?arguments[3]:1;return t<0||t>1||r<0||r>1?null:i(t-n)<=1e-5&&i(r-e)<=1e-5?u:function(u){if(u<=0)return t>0?u*n/t:0===n&&r>0?u*e/r:0;if(u>=1)return r<1?1+(u-1)*(e-1)/(r-1):1===r&&t<1?1+(u-1)*(n-1)/(t-1):1;for(var a,l=0,f=1;l<f;){var s=o(t,r,a=(l+f)/2);if(i(u-s)<1e-5)break;s<u?l=a:f=a}return o(n,e,a)}}function l(){return 1}function f(t){return 1===t?1:0}function s(){var t=arguments.length>0&&void 0!==arguments[0]?arguments[0]:1,n=arguments.length>1&&void 0!==arguments[1]?arguments[1]:0;if(1===t){if(0===n)return f;if(1===n)return l}var r=1/t;return function(t){return t>=1?1:(t+=n*r)-t%r}}function c(t){var n=arguments.length>1&&void 0!==arguments[1]?arguments[1]:2;if(Number.isInteger(t))return t;var r=Math.pow(10,n);return Math.round(t*r)/r}var v=Math.PI/180;function h(t,n,r){return t>=.5?r:n}function y(t,n,r){return 0===t||n===r?n:t*(r-n)+n}function d(t,n,r){var e=y(t,n,r);return e<=0?0:e}function g(t,n,r){return 0===t?n:1===t?r:{x:y(t,n.x,r.x),y:y(t,n.y,r.y)}}function m(t,n,r){return 0===t?n:1===t?r:{x:d(t,n.x,r.x),y:d(t,n.y,r.y)}}function p(t,n,r){var e=function(t,n,r){return Math.round(y(t,n,r))}(t,n,r);return e<=0?0:e>=255?255:e}function b(t,n,r){return 0===t?n:1===t?r:{r:p(t,n.r,r.r),g:p(t,n.g,r.g),b:p(t,n.b,r.b),a:y(t,null==n.a?1:n.a,null==r.a?1:r.a)}}function w(t,n,r){if(0===t)return n;if(1===t)return r;var e=n.length;if(e!==r.length)return h(t,n,r);for(var i=[],u=0;u<e;u++)i.push(b(t,n[u],r[u]));return i}function A(t,n,r){var e=n.length;if(e!==r.length)return h(t,n,r);for(var i=new Array(e),u=0;u<e;u++)i[u]=y(t,n[u],r[u]);return i}function x(t,n){for(var r=[],e=0;e<t;e++)r.push(n);return r}function k(t,n){if(--n<=0)return t;var r=(t=Object.assign([],t)).length;do{for(var e=0;e<r;e++)t.push(t[e])}while(--n>0);return t}var S=/\.0+$/g;function _(t){return Number.isInteger(t)?t+"":t.toFixed(6).replace(S,"")}function M(t){var n=arguments.length>1&&void 0!==arguments[1]?arguments[1]:" ";return t&&t.length?t.map(_).join(n):""}function I(t){return _(t.x)+","+_(t.y)}function E(t){return t?null==t.a||t.a>=1?"rgb("+t.r+","+t.g+","+t.b+")":"rgba("+t.r+","+t.g+","+t.b+","+t.a+")":"transparent"}var F={f:null,i:m,u:function(t,n){return function(r){var e=n(r);t.setAttribute("rx",_(e.x)),t.setAttribute("ry",_(e.y))}}},B={f:null,i:function(t,n,r){return 0===t?n:1===t?r:{width:d(t,n.width,r.width),height:d(t,n.height,r.height)}},u:function(t,n){return function(r){var e=n(r);t.setAttribute("width",_(e.width)),t.setAttribute("height",_(e.height))}}},j=Math.sin,q=Math.cos,P=Math.acos,O=Math.asin,z=Math.tan,L=Math.atan2,C=Math.PI/180,R=180/Math.PI,T=Math.sqrt,V=function(){function t(){var r=arguments.length>0&&void 0!==arguments[0]?arguments[0]:1,e=arguments.length>1&&void 0!==arguments[1]?arguments[1]:0,i=arguments.length>2&&void 0!==arguments[2]?arguments[2]:0,u=arguments.length>3&&void 0!==arguments[3]?arguments[3]:1,o=arguments.length>4&&void 0!==arguments[4]?arguments[4]:0,a=arguments.length>5&&void 0!==arguments[5]?arguments[5]:0;n(this,t),this.m=[r,e,i,u,o,a],this.i=null,this.w=null,this.s=null}return e(t,[{key:"point",value:function(t,n){var r=this.m;return{x:r[0]*t+r[2]*n+r[4],y:r[1]*t+r[3]*n+r[5]}}},{key:"translateSelf",value:function(){var t=arguments.length>0&&void 0!==arguments[0]?arguments[0]:0,n=arguments.length>1&&void 0!==arguments[1]?arguments[1]:0;if(!t&&!n)return this;var r=this.m;return r[4]+=r[0]*t+r[2]*n,r[5]+=r[1]*t+r[3]*n,this.w=this.s=this.i=null,this}},{key:"rotateSelf",value:function(){var t=arguments.length>0&&void 0!==arguments[0]?arguments[0]:0;if(t%=360){var n=j(t*=C),r=q(t),e=this.m,i=e[0],u=e[1];e[0]=i*r+e[2]*n,e[1]=u*r+e[3]*n,e[2]=e[2]*r-i*n,e[3]=e[3]*r-u*n,this.w=this.s=this.i=null}return this}},{key:"scaleSelf",value:function(){var t=arguments.length>0&&void 0!==arguments[0]?arguments[0]:1,n=arguments.length>1&&void 0!==arguments[1]?arguments[1]:1;if(1!==t||1!==n){var r=this.m;r[0]*=t,r[1]*=t,r[2]*=n,r[3]*=n,this.w=this.s=this.i=null}return this}},{key:"skewSelf",value:function(t,n){if(n%=360,(t%=360)||n){var r=this.m,e=r[0],i=r[1],u=r[2],o=r[3];t&&(t=z(t*C),r[2]+=e*t,r[3]+=i*t),n&&(n=z(n*C),r[0]+=u*n,r[1]+=o*n),this.w=this.s=this.i=null}return this}},{key:"resetSelf",value:function(){var t=arguments.length>0&&void 0!==arguments[0]?arguments[0]:1,n=arguments.length>1&&void 0!==arguments[1]?arguments[1]:0,r=arguments.length>2&&void 0!==arguments[2]?arguments[2]:0,e=arguments.length>3&&void 0!==arguments[3]?arguments[3]:1,i=arguments.length>4&&void 0!==arguments[4]?arguments[4]:0,u=arguments.length>5&&void 0!==arguments[5]?arguments[5]:0,o=this.m;return o[0]=t,o[1]=n,o[2]=r,o[3]=e,o[4]=i,o[5]=u,this.w=this.s=this.i=null,this}},{key:"recomposeSelf",value:function(){var t=arguments.length>0&&void 0!==arguments[0]?arguments[0]:null,n=arguments.length>1&&void 0!==arguments[1]?arguments[1]:null,r=arguments.length>2&&void 0!==arguments[2]?arguments[2]:null,e=arguments.length>3&&void 0!==arguments[3]?arguments[3]:null,i=arguments.length>4&&void 0!==arguments[4]?arguments[4]:null;return this.isIdentity||this.resetSelf(),t&&(t.x||t.y)&&this.translateSelf(t.x,t.y),n&&this.rotateSelf(n),r&&(r.x&&this.skewSelf(r.x,0),r.y&&this.skewSelf(0,r.y)),!e||1===e.x&&1===e.y||this.scaleSelf(e.x,e.y),i&&(i.x||i.y)&&this.translateSelf(i.x,i.y),this}},{key:"decompose",value:function(){var t=arguments.length>0&&void 0!==arguments[0]?arguments[0]:0,n=arguments.length>1&&void 0!==arguments[1]?arguments[1]:0,r=this.m,e=r[0]*r[0]+r[1]*r[1],i=[[r[0],r[1]],[r[2],r[3]]],u=T(e);if(0===u)return{origin:{x:r[4],y:r[5]},translate:{x:t,y:n},scale:{x:0,y:0},skew:{x:0,y:0},rotate:0};i[0][0]/=u,i[0][1]/=u;var o=r[0]*r[3]-r[1]*r[2]<0;o&&(u=-u);var a=i[0][0]*i[1][0]+i[0][1]*i[1][1];i[1][0]-=i[0][0]*a,i[1][1]-=i[0][1]*a;var l=T(i[1][0]*i[1][0]+i[1][1]*i[1][1]);if(0===l)return{origin:{x:r[4],y:r[5]},translate:{x:t,y:n},scale:{x:u,y:0},skew:{x:0,y:0},rotate:0};i[1][0]/=l,i[1][1]/=l,a/=l;var f=0;return i[1][1]<0?(f=P(i[1][1])*R,i[0][1]<0&&(f=360-f)):f=O(i[0][1])*R,o&&(f=-f),a=L(a,T(i[0][0]*i[0][0]+i[0][1]*i[0][1]))*R,{origin:{x:r[4],y:r[5]},translate:{x:t,y:n},scale:{x:u,y:l},skew:{x:a,y:0},rotate:f}}},{key:"toString",value:function(){return null===this.s&&(this.s="matrix("+this.m.map(N).join(" ")+")"),this.s}},{key:"determinant",get:function(){var t=this.m;return t[0]*t[3]-t[1]*t[2]}},{key:"isIdentity",get:function(){if(null===this.i){var t=this.m;this.i=1===t[0]&&0===t[1]&&0===t[2]&&1===t[3]&&0===t[4]&&0===t[5]}return this.i}}]),t}(),D=/\.0+$/;function N(t){return Number.isInteger(t)?t:t.toFixed(14).replace(D,"")}Object.freeze({M:2,L:2,Z:0,H:1,V:1,C:6,Q:4,T:2,S:4,A:7});function G(t,n,r){return t+(n-t)*r}function $(t,n,r){var e=arguments.length>3&&void 0!==arguments[3]&&arguments[3],i={x:G(t.x,n.x,r),y:G(t.y,n.y,r)};return e&&(i.a=H(t,n)),i}function H(t,n){return Math.atan2(n.y-t.y,n.x-t.x)}function Q(t,n,r,e){var i=1-e;return i*i*t+2*i*e*n+e*e*r}function U(t,n,r,e){return 2*(1-e)*(n-t)+2*e*(r-n)}function Y(t,n,r,e){var i=arguments.length>4&&void 0!==arguments[4]&&arguments[4],u={x:Q(t.x,n.x,r.x,e),y:Q(t.y,n.y,r.y,e)};return i&&(u.a=Z(t,n,r,e)),u}function Z(t,n,r,e){return Math.atan2(U(t.y,n.y,r.y,e),U(t.x,n.x,r.x,e))}function J(t,n,r,e,i){var u=i*i;return i*u*(e-t+3*(n-r))+3*u*(t+r-2*n)+3*i*(n-t)+t}function K(t,n,r,e,i){var u=1-i;return 3*(u*u*(n-t)+2*u*i*(r-n)+i*i*(e-r))}function W(t,n,r,e,i){var u=arguments.length>5&&void 0!==arguments[5]&&arguments[5],o={x:J(t.x,n.x,r.x,e.x,i),y:J(t.y,n.y,r.y,e.y,i)};return u&&(o.a=X(t,n,r,e,i)),o}function X(t,n,r,e,i){return Math.atan2(K(t.y,n.y,r.y,e.y,i),K(t.x,n.x,r.x,e.x,i))}function tt(t,n,r){var e=arguments.length>3&&void 0!==arguments[3]&&arguments[3];if(rt(n)){if(et(r))return Y(n,r.start,r,t,e)}else if(rt(r)){if(n.end)return Y(n,n.end,r,t,e)}else{if(n.end)return r.start?W(n,n.end,r.start,r,t,e):Y(n,n.end,r,t,e);if(r.start)return Y(n,r.start,r,t,e)}return $(n,r,t,e)}function nt(t,n,r){var e=tt(t,n,r,!0);return e.a=function(t){var n=arguments.length>1&&void 0!==arguments[1]&&arguments[1];return n?t+Math.PI:t}(e.a)/v,e}function rt(t){return!t.type||"corner"===t.type}function et(t){return null!=t.start&&!rt(t)}var it=new V;var ut={f:function(t){return t?t.join(" "):""},i:function(n,r,e){if(0===n)return r;if(1===n)return e;var i=r.length;if(i!==e.length)return h(n,r,e);for(var u,o=new Array(i),a=0;a<i;a++){if((u=t(r[a]))!==t(e[a]))return h(n,r,e);if("number"===u)o[a]=y(n,r[a],e[a]);else{if(r[a]!==e[a])return h(n,r,e);o[a]=r[a]}}return o}},ot={f:null,i:A,u:function(t,n){return function(r){var e=n(r);t.setAttribute("x1",_(e[0])),t.setAttribute("y1",_(e[1])),t.setAttribute("x2",_(e[2])),t.setAttribute("y2",_(e[3]))}}},at={f:_,i:y},lt={f:_,i:function(t,n,r){var e=y(t,n,r);return e<=0?0:e>=1?1:e}},ft={f:M,i:function(t,n,r){var e,i,u,o=n.length,a=r.length;if(o!==a)if(0===o)n=x(o=a,0);else if(0===a)a=o,r=x(o,0);else{var l=(u=(e=o)*(i=a)/function(t,n){for(var r;n;)r=n,n=t%n,t=r;return t||1}(e,i))<0?-u:u;n=k(n,Math.floor(l/o)),r=k(r,Math.floor(l/a)),o=a=l}for(var f=[],s=0;s<o;s++)f.push(c(d(t,n[s],r[s]),6));return f}};function st(t,n,r,e,i,u,o,a){return n=function(t,n,r){for(var e,i,u,o=t.length-1,a={},l=0;l<=o;l++)(e=t[l]).e&&(e.e=n(e.e)),e.v&&"g"===(i=e.v).t&&i.r&&(u=r.getElementById(i.r))&&(a[i.r]=u.querySelectorAll("stop"));return a}(t,e,a),function(e){var i,u=r(e,t,ct);return u?"c"===u.t?E(u.v):"g"===u.t?(n[u.r]&&function(t,n){for(var r=0,e=t.length;r<e;r++)t[r].setAttribute("stop-color",E(n[r]))}(n[u.r],u.v),(i=u.r)?"url(#"+i+")":"none"):"none":"none"}}function ct(t,n,r){if(0===t)return n;if(1===t)return r;if(n&&r){var e=n.t;if(e===r.t)switch(n.t){case"c":return{t:e,v:b(t,n.v,r.v)};case"g":if(n.r===r.r)return{t:e,v:w(t,n.v,r.v),r:n.r}}}return h(t,n,r)}var vt={blur:m,brightness:d,contrast:d,"drop-shadow":function(t,n,r){return 0===t?n:1===t?r:{blur:m(t,n.blur,r.blur),offset:g(t,n.offset,r.offset),color:b(t,n.color,r.color)}},grayscale:d,"hue-rotate":y,invert:d,opacity:d,saturate:d,sepia:d};function ht(t,n,r){if(0===t)return n;if(1===t)return r;var e=n.length;if(e!==r.length)return h(t,n,r);for(var i,u=[],o=0;o<e;o++){if(n[o].type!==r[o].type)return n;if(!(i=vt[n[o].type]))return h(t,n,r);u.push({type:n.type,value:i(t,n[o].value,r[o].value)})}return u}var yt={blur:function(t){return t?function(n){t.setAttribute("stdDeviation",I(n))}:null},brightness:function(t,n,r){return(t=gt(r,n))?function(n){n=_(n),t.map((function(t){return t.setAttribute("slope",n)}))}:null},contrast:function(t,n,r){return(t=gt(r,n))?function(n){var r=_((1-n)/2);n=_(n),t.map((function(t){t.setAttribute("slope",n),t.setAttribute("intercept",r)}))}:null},"drop-shadow":function(t,n,r){var e=r.getElementById(n+"-blur");if(!e)return null;var i=r.getElementById(n+"-offset");if(!i)return null;var u=r.getElementById(n+"-flood");return u?function(t){e.setAttribute("stdDeviation",I(t.blur)),i.setAttribute("dx",_(t.offset.x)),i.setAttribute("dy",_(t.offset.y)),u.setAttribute("flood-color",E(t.color))}:null},grayscale:function(t){return t?function(n){t.setAttribute("values",M(function(t){return[.2126+.7874*(t=1-t),.7152-.7152*t,.0722-.0722*t,0,0,.2126-.2126*t,.7152+.2848*t,.0722-.0722*t,0,0,.2126-.2126*t,.7152-.7152*t,.0722+.9278*t,0,0,0,0,0,1,0]}(n)))}:null},"hue-rotate":function(t){return t?function(n){return t.setAttribute("values",_(n))}:null},invert:function(t,n,r){return(t=gt(r,n))?function(n){n=_(n)+" "+_(1-n),t.map((function(t){return t.setAttribute("tableValues",n)}))}:null},opacity:function(t,n,r){return(t=r.getElementById(n+"-A"))?function(n){return t.setAttribute("tableValues","0 "+_(n))}:null},saturate:function(t){return t?function(n){return t.setAttribute("values",_(n))}:null},sepia:function(t){return t?function(n){return t.setAttribute("values",M(function(t){return[.393+.607*(t=1-t),.769-.769*t,.189-.189*t,0,0,.349-.349*t,.686+.314*t,.168-.168*t,0,0,.272-.272*t,.534-.534*t,.131+.869*t,0,0,0,0,0,1,0]}(n)))}:null}};var dt=["R","G","B"];function gt(t,n){var r=dt.map((function(r){return t.getElementById(n+"-"+r)||null}));return-1!==r.indexOf(null)?null:r}var mt={fill:st,"fill-opacity":lt,stroke:st,"stroke-opacity":lt,"stroke-width":at,"stroke-dashoffset":{f:_,i:y},"stroke-dasharray":ft,opacity:lt,transform:function(n,r,e,i){if(!(n=function(n,r){if(!n||"object"!==t(n))return null;var e=!1;for(var i in n)n.hasOwnProperty(i)&&(n[i]&&n[i].length?(n[i].forEach((function(t){t.e&&(t.e=r(t.e))})),e=!0):delete n[i]);return e?n:null}(n,i)))return null;var u=function(t,i,u){var o=arguments.length>3&&void 0!==arguments[3]?arguments[3]:null;return n[t]?e(i,n[t],u):r&&r[t]?r[t]:o};return r&&r.a&&n.o?function(t){var r=e(t,n.o,nt);return it.recomposeSelf(r,u("r",t,y,0)+r.a,u("k",t,g),u("s",t,g),u("t",t,g)).toString()}:function(t){return it.recomposeSelf(u("o",t,tt,null),u("r",t,y,0),u("k",t,g),u("s",t,g),u("t",t,g)).toString()}},"#filter":function(t,n,r,e,i,u,o,a){if(!n.items||!t||!t.length)return null;var l=function(t,n){var r=(t=t.map((function(t){return t&&yt[t[0]]?(n.getElementById(t[1]),yt[t[0]](n.getElementById(t[1]),t[1],n)):null}))).length;return function(n){for(var e=0;e<r;e++)t[e]&&t[e](n[e].value)}}(n.items,a);return l?(t=function(t,n){return t.map((function(t){return t.e=n(t.e),t}))}(t,e),function(n){l(r(n,t,ht))}):null},"#line":ot,points:{f:M,i:A},d:ut,r:at,"#size":B,"#radius":F,_:function(t,n){if(Array.isArray(t))for(var r=0;r<t.length;r++)this[t[r]]=n;else this[t]=n}},pt=function(){function t(r){n(this,t),this.list=r,this.length=r.length}return e(t,[{key:"setAttribute",value:function(t,n){for(var r=this.list,e=0;e<this.length;e++)r[e].setAttribute(t,n)}},{key:"removeAttribute",value:function(t){for(var n=this.list,r=0;r<this.length;r++)n[r].removeAttribute(t)}},{key:"style",value:function(t,n){for(var r=this.list,e=0;e<this.length;e++)r[e].style[t]=n}}]),t}(),bt=/-./g,wt=function(t,n){return n.toUpperCase()};function At(t){return"function"==typeof t?t:h}function xt(t){return t?"function"==typeof t?t:Array.isArray(t)?function(t){var n=arguments.length>1&&void 0!==arguments[1]?arguments[1]:u;if(!Array.isArray(t))return n;switch(t.length){case 1:return s(t[0])||n;case 2:return s(t[0],t[1])||n;case 4:return a(t[0],t[1],t[2],t[3])||n}return n}(t,null):function(t,n){var r=arguments.length>2&&void 0!==arguments[2]?arguments[2]:u;switch(t){case"linear":return u;case"steps":return s(n.steps||1,n.jump||0)||r;case"bezier":case"cubic-bezier":return a(n.x1||0,n.y1||0,n.x2||0,n.y2||0)||r}return r}(t.type,t.value,null):null}function kt(t,n,r){var e=arguments.length>3&&void 0!==arguments[3]&&arguments[3],i=n.length-1;if(t<=n[0].t)return e?[0,0,n[0].v]:n[0].v;if(t>=n[i].t)return e?[i,1,n[i].v]:n[i].v;var u,o=n[0],a=null;for(u=1;u<=i;u++){if(!(t>n[u].t)){a=n[u];break}o=n[u]}return null==a?e?[i,1,n[i].v]:n[i].v:o.t===a.t?e?[u,1,a.v]:a.v:(t=(t-o.t)/(a.t-o.t),o.e&&(t=o.e(t)),e?[u,t,r(t,o.v,a.v)]:r(t,o.v,a.v))}function St(t,n){var r=arguments.length>2&&void 0!==arguments[2]?arguments[2]:null;return t&&t.length?"function"!=typeof n?null:("function"!=typeof r&&(r=null),function(e){var i=kt(e,t,n);return null!=i&&r&&(i=r(i)),i}):null}function _t(t,n){return t.t-n.t}function Mt(n,r,e,i,u){var o,a="@"===e[0],l="#"===e[0],f=mt[e],s=h;switch(a?(o=e.substr(1),e=o.replace(bt,wt)):l&&(e=e.substr(1)),t(f)){case"function":if(s=f(i,u,kt,xt,e,a,r,n),l)return s;break;case"string":s=St(i,At(f));break;case"object":if((s=St(i,At(f.i),f.f))&&"function"==typeof f.u)return f.u(r,s,e,a,n)}return s?function(t,n,r){var e=arguments.length>3&&void 0!==arguments[3]&&arguments[3];if(e)return t instanceof pt?function(e){return t.style(n,r(e))}:function(e){return t.style[n]=r(e)};if(Array.isArray(n)){var i=n.length;return function(e){var u=r(e);if(null==u)for(var o=0;o<i;o++)t[o].removeAttribute(n);else for(var a=0;a<i;a++)t[a].setAttribute(n,u)}}return function(e){var i=r(e);null==i?t.removeAttribute(n):t.setAttribute(n,i)}}(r,e,s,a):null}function It(n,r,e,i){if(!i||"object"!==t(i))return null;var u=null,o=null;return Array.isArray(i)?o=function(t){if(!t||!t.length)return null;for(var n=0;n<t.length;n++)t[n].e&&(t[n].e=xt(t[n].e));return t.sort(_t)}(i):(o=i.keys,u=i.data||null),o?Mt(n,r,e,o,u):null}function Et(t,n,r){if(!r)return null;var e=[];for(var i in r)if(r.hasOwnProperty(i)){var u=It(t,n,i,r[i]);u&&e.push(u)}return e.length?e:null}function Ft(t,n){if(!n.duration||n.duration<0)return null;var r=function(t,n){if(!n)return null;var r=[];if(Array.isArray(n))for(var e=n.length,i=0;i<e;i++){var u=n[i];if(2===u.length){var o=null;if("string"==typeof u[0])o=t.getElementById(u[0]);else if(Array.isArray(u[0])){o=[];for(var a=0;a<u[0].length;a++)if("string"==typeof u[0][a]){var l=t.getElementById(u[0][a]);l&&o.push(l)}o=o.length?1===o.length?o[0]:new pt(o):null}if(o){var f=Et(t,o,u[1]);f&&(r=r.concat(f))}}}else for(var s in n)if(n.hasOwnProperty(s)){var c=t.getElementById(s);if(c){var v=Et(t,c,n[s]);v&&(r=r.concat(v))}}return r.length?r:null}(t,n.elements);return r?function(t,n){var r=arguments.length>2&&void 0!==arguments[2]?arguments[2]:1/0,e=arguments.length>3&&void 0!==arguments[3]?arguments[3]:1,i=arguments.length>4&&void 0!==arguments[4]&&arguments[4],u=arguments.length>5&&void 0!==arguments[5]?arguments[5]:1,o=t.length,a=e>0?n:0;i&&r%2==0&&(a=n-a);var l=null;return function(f,s){var c=f%n,v=1+(f-c)/n;s*=e,i&&v%2==0&&(s=-s);var h=!1;if(v>r)c=a,h=!0,-1===u&&(c=e>0?0:n);else if(s<0&&(c=n-c),c===l)return!1;l=c;for(var y=0;y<o;y++)t[y](c);return h}}(r,n.duration,n.iterations||1/0,n.direction||1,!!n.alternate,n.fill||1):null}var Bt=function(){function t(r){var e=arguments.length>1&&void 0!==arguments[1]?arguments[1]:{};n(this,t),this._id=0,this._running=!1,this._animations=r,this.direction=e.direction||1,this.speed=e.speed||1,this.fps=e.fps||100,this.offset=e.offset||0}return e(t,[{key:"_start",value:function(){var t=this,n=arguments.length>0&&void 0!==arguments[0]?arguments[0]:0,r=-1/0,e=null,i={},u=function u(o){t._running=!0,null==e&&(e=o);var a=Math.round((o-e+n)*t.speed),l=t.fps?1e3/t.fps:0;if(a>r+l){t.offset=a,r=a;for(var f=t._animations,s=f.length,c=0,v=0;v<s;v++)i[v]?c++:(i[v]=f[v](a,t.direction),i[v]&&c++);if(c===s)return void t._stop()}t._id=window.requestAnimationFrame(u)};this._id=window.requestAnimationFrame(u)}},{key:"_stop",value:function(){this._id&&window.cancelAnimationFrame(this._id),this._running=!1}},{key:"play",value:function(){this._running||this._start(this.offset)}},{key:"stop",value:function(){this._stop(),this.offset=0;var t=this.direction,n=this._animations;requestAnimationFrame((function(){for(var r=0;r<n.length;r++)n[r](0,t)}))}},{key:"restart",value:function(){this._stop(),this.offset=0,this._start()}},{key:"pause",value:function(){this._stop()}},{key:"reverse",value:function(){this.direction=-this.direction}}],[{key:"build",value:function(n){if(!(n=function(t){if(!t||!t.root||!Array.isArray(t.animations))return null;var n=window.document.getElementById(t.root);if(!n)return null;var r=t.animations.map((function(t){return Ft(n,t)})).filter((function(t){return!!t}));return r.length?{element:n,animations:r,options:t.options||void 0}:null}(n)))return null;var r=n.element,e=n.options||{},i=new t(n.animations,n.options);return function(t,n,r){var e=arguments.length>3&&void 0!==arguments[3]?arguments[3]:null;if("click"===r){var i=function r(){n.removeEventListener("click",r),t.play()};return void n.addEventListener("click",i)}if("hover"===r)return n.addEventListener("mouseenter",(function(){return t.play()})),void n.addEventListener("mouseleave","freeze"===e?function(){return t.pause()}:function(){return t.stop()});t.play()}(i,r,e.start,e.hover),i}}]),t}();return function(){for(var t=0,n=["ms","moz","webkit","o"],r=0;r<n.length&&!window.requestAnimationFrame;++r)window.requestAnimationFrame=window[n[r]+"RequestAnimationFrame"],window.cancelAnimationFrame=window[n[r]+"CancelAnimationFrame"]||window[n[r]+"CancelRequestAnimationFrame"];window.requestAnimationFrame||(window.requestAnimationFrame=function(n){var r=Date.now(),e=Math.max(0,16-(r-t)),i=window.setTimeout((function(){n(r+e)}),e);return t=r+e,i},window.cancelAnimationFrame=window.clearTimeout)}(),Bt}));
__SVGATOR_PLAYER__.build({"root":"efotuvcz9m1g1","animations":[{"duration":600,"direction":1,"iterations":1,"fill":1,"alternate":false,"elements":{"efotuvcz9m1g5":{"opacity":[{"t":0,"v":0},{"t":100,"v":1},{"t":600,"v":1}]},"efotuvcz9m1g8":{"opacity":[{"t":0,"v":0},{"t":100,"v":1},{"t":600,"v":1}]},"efotuvcz9m1g11":{"opacity":[{"t":0,"v":0},{"t":100,"v":1},{"t":600,"v":1}]},"efotuvcz9m1g14":{"opacity":[{"t":0,"v":0},{"t":100,"v":1},{"t":600,"v":1}]},"efotuvcz9m1g24":{"transform":{"data":{"o":{"x":70.0009,"y":92.46727497500001,"type":"corner"},"t":{"x":-45.0811,"y":-34.19237497500001}},"keys":{"s":[{"t":0,"v":{"x":1,"y":1}},{"t":200,"v":{"x":1.072055445803451,"y":1.0899722174307176}},{"t":600,"v":{"x":1,"y":1}}]}}},"efotuvcz9m1g27":{"transform":{"data":{"o":{"x":77.90625,"y":108.3358999,"type":"corner"},"t":{"x":-7.90625,"y":-38.335999900000004}},"keys":{"s":[{"t":0,"v":{"x":1,"y":1}},{"t":200,"v":{"x":1.072055445803451,"y":1.0899722174307176}},{"t":600,"v":{"x":1,"y":1}}]}}},"efotuvcz9m1g30":{"transform":{"data":{"o":{"x":70.0009,"y":67.0269,"type":"corner"},"t":{"x":-40.010000000000005,"y":-55.081199999999995}},"keys":{"s":[{"t":0,"v":{"x":1,"y":1}},{"t":200,"v":{"x":1.072055445803451,"y":1.0899722174307176}},{"t":600,"v":{"x":1,"y":1}}]}}},"efotuvcz9m1g95":{"transform":{"data":{"o":{"x":49.92390034,"y":71.25889987,"type":"corner"},"t":{"x":-1.661000340000001,"y":-0.24999986999999635}},"keys":{"r":[{"t":0,"v":0},{"t":200,"v":-12.601212060009548},{"t":600,"v":0}],"s":[{"t":0,"v":{"x":1,"y":1}},{"t":200,"v":{"x":1.072055445803451,"y":1.0899722174307176}},{"t":600,"v":{"x":1,"y":1}}]}}},"efotuvcz9m1g112":{"transform":{"data":{"o":{"x":46.349900000000005,"y":70.79035603,"type":"corner"},"t":{"x":-1.7950000000000017,"y":-0.600706493541202}},"keys":{"r":[{"t":0,"v":0},{"t":200,"v":-13.594993138793928},{"t":600,"v":0}],"s":[{"t":0,"v":{"x":1,"y":1}},{"t":200,"v":{"x":1.072055445803451,"y":1.0899722174307176}},{"t":600,"v":{"x":1,"y":1}}]}}},"efotuvcz9m1g129":{"transform":{"data":{"o":{"x":42.771239525,"y":71.416800105,"type":"corner"},"t":{"x":-1.794999999797404,"y":-0.3742298184090399}},"keys":{"r":[{"t":0,"v":0},{"t":200,"v":-4.859268642774524},{"t":600,"v":0}],"s":[{"t":0,"v":{"x":1,"y":1}},{"t":200,"v":{"x":1.072055445803451,"y":1.0899722174307176}},{"t":600,"v":{"x":1,"y":1}}]}}},"efotuvcz9m1g146":{"transform":{"data":{"o":{"x":46.3499,"y":67.0269,"type":"corner"},"t":{"x":-5.967999999999996,"y":-4.481999999999999}},"keys":{"s":[{"t":0,"v":{"x":1,"y":1}},{"t":200,"v":{"x":1.072055445803451,"y":1.0899722174307176}},{"t":600,"v":{"x":1,"y":1}}]}}},"efotuvcz9m1g149":{"transform":{"data":{"o":{"x":69.9529,"y":85.74245580499999,"type":"corner"},"t":{"x":-25.418,"y":-24.325555804999993}},"keys":{"s":[{"t":0,"v":{"x":1,"y":1}},{"t":200,"v":{"x":1.072055445803451,"y":1.0899722174307176}},{"t":600,"v":{"x":1,"y":1}}]}}},"efotuvcz9m1g152":{"transform":{"data":{"o":{"x":38.6809,"y":59.0619,"type":"corner"}},"keys":{"s":[{"t":0,"v":{"x":1,"y":1}},{"t":200,"v":{"x":1.072055445803451,"y":1.0899722174307176}},{"t":600,"v":{"x":1,"y":1}}]}}},"efotuvcz9m1g155":{"transform":{"data":{"o":{"x":69.9529,"y":51.0537,"type":"corner"},"t":{"x":-21.655,"y":-40.443}},"keys":{"s":[{"t":0,"v":{"x":1,"y":1}},{"t":200,"v":{"x":1.072055445803451,"y":1.0899722174307176}},{"t":600,"v":{"x":1,"y":1}}]}}},"efotuvcz9m1g160":{"opacity":[{"t":0,"v":0},{"t":200,"v":1},{"t":400,"v":1},{"t":600,"v":0}]},"efotuvcz9m1g164":{"opacity":[{"t":0,"v":0},{"t":200,"v":1},{"t":400,"v":1},{"t":600,"v":0}]},"efotuvcz9m1g194":{"transform":{"data":{"o":{"x":64.317205555,"y":45.58139729,"type":"corner"},"t":{"x":8.948499924529731,"y":22.295999528310794}},"keys":{"s":[{"t":0,"v":{"x":0.53001,"y":0.53001}},{"t":200,"v":{"x":0.5682001068302872,"y":0.5776961749604547}},{"t":600,"v":{"x":0.53001,"y":0.53001}}]}},"opacity":[{"t":0,"v":0},{"t":200,"v":1},{"t":400,"v":1},{"t":600,"v":0}]},"efotuvcz9m1g197":{"transform":{"data":{"o":{"x":78.04699423,"y":45.031215875,"type":"corner"},"t":{"x":8.583999867927021,"y":22.44199944340673}},"keys":{"s":[{"t":0,"v":{"x":0.53001,"y":0.53001}},{"t":200,"v":{"x":0.5682001068302872,"y":0.5776961749604547}},{"t":600,"v":{"x":0.53001,"y":0.53001}}]}},"opacity":[{"t":0,"v":0},{"t":200,"v":1},{"t":400,"v":1},{"t":600,"v":0}]},"efotuvcz9m1g200":{"opacity":[{"t":0,"v":0},{"t":100,"v":1},{"t":600,"v":1}]},"efotuvcz9m1g209":{"transform":{"data":{"r":177.999726073411,"s":{"x":0.6900014453731239,"y":0.6900014453731239}},"keys":{"o":[{"t":0,"v":{"x":151.8368723650002,"y":-22.06147161499996,"type":"corner"}},{"t":100,"v":{"x":163.62438662500023,"y":-22.008471734999958,"type":"corner"}},{"t":200,"v":{"x":170.1410955000002,"y":-7.301981814999959,"type":"corner"}},{"t":400,"v":{"x":169.9493866450002,"y":26.89052896500008,"type":"corner"}},{"t":600,"v":{"x":170.6900954950003,"y":49.946528580000034,"type":"corner"}}]}},"opacity":[{"t":0,"v":0},{"t":200,"v":1},{"t":400,"v":1},{"t":600,"v":0}]}}}],"options":{"start":"load","hover":"freeze"}})]]></script></svg>