<svg xmlns="http://www.w3.org/2000/svg" viewBox="0 0 140 140" width="140" height="140" preserveAspectRatio="xMidYMid meet" style="width: 100%; height: 100%; transform: translate3d(0px, 0px, 0px);"><defs><clipPath id="__lottie_element_35481"><rect width="140" height="140" x="0" y="0"></rect></clipPath></defs><g clip-path="url(#__lottie_element_35481)"><g transform="matrix(1,0,0,1,34.75,33.60000228881836)" opacity="1" style="display: block;"><g opacity="1" transform="matrix(1,0,0,1,35.25,36.547000885009766)"><path fill="rgb(135,91,244)" fill-opacity="1" d=" M0,-36.297000885009766 C0,-36.297000885009766 -35,-8.567999839782715 -35,-8.567999839782715 C-35,-8.567999839782715 -21.631000518798828,36.297000885009766 -21.631000518798828,36.297000885009766 C-21.631000518798828,36.297000885009766 21.631000518798828,36.297000885009766 21.631000518798828,36.297000885009766 C21.631000518798828,36.297000885009766 35,-8.567999839782715 35,-8.567999839782715 C35,-8.567999839782715 0,-36.297000885009766 0,-36.297000885009766z"></path></g></g><g transform="matrix(0.9875699877738953,0,0,0.9875699877738953,70,70.00199890136719)" opacity="1" style="display: none;"><g opacity="1" transform="matrix(1,0,0,1,0,0)"><path fill="rgb(186,158,255)" fill-opacity="1" d=" M19.496000289916992,16.256999969482422 C19.496000289916992,16.256999969482422 19.52899932861328,15.998000144958496 19.27899932861328,15.998000144958496 C15.187999725341797,22.274999618530273 12.694000244140625,25.520999908447266 12.694000244140625,25.520999908447266 C12.694000244140625,25.520999908447266 10.956999778747559,27.643999099731445 10.956999778747559,27.643999099731445 C10.956999778747559,27.643999099731445 16.128000259399414,27.632999420166016 16.128000259399414,27.632999420166016 C16.128000259399414,27.632999420166016 19.31599998474121,16.492000579833984 19.31599998474121,16.492000579833984 C19.31599998474121,16.492000579833984 19.496000289916992,16.256999969482422 19.496000289916992,16.256999969482422z"></path></g></g><g transform="matrix(1,0,0,1,27.75,27.75100326538086)" opacity="1" style="display: block;"><g opacity="1" transform="matrix(1,0,0,1,22.7189998626709,20.05699920654297)"><path fill="rgb(156,115,255)" fill-opacity="1" d=" M19.5310001373291,-2.4739999771118164 C22.4689998626709,-7.48799991607666 21.910999298095703,-13.41100025177002 19.5310001373291,-19.80699920654297 C19.5310001373291,-19.80699920654297 -22.4689998626709,13.526000022888184 -22.4689998626709,13.526000022888184 C-17.121000289916992,18.535999298095703 -11.515999794006348,19.80699920654297 -5.669000148773193,17.525999069213867 C-5.669000148773193,17.525999069213867 19.5310001373291,-2.4739999771118164 19.5310001373291,-2.4739999771118164z"></path></g></g><g transform="matrix(1,0,0,1,43.349998474121094,97.0830078125)" opacity="1" style="display: block;"><g opacity="1" transform="matrix(1,0,0,1,26.649999618530273,7.584000110626221)"><path fill="rgb(95,48,204)" fill-opacity="1" d=" M-15.600000381469727,-7.333000183105469 C-23.27199935913086,-5.752999782562256 -25.972999572753906,-0.13500000536441803 -26.399999618530273,7.333000183105469 C-26.399999618530273,7.333000183105469 26.399999618530273,7.333000183105469 26.399999618530273,7.333000183105469 C25.364999771118164,0.04100000113248825 22.599000930786133,-5.625999927520752 15.600000381469727,-7.333000183105469 C15.600000381469727,-7.333000183105469 -15.600000381469727,-7.333000183105469 -15.600000381469727,-7.333000183105469z"></path></g></g><g transform="matrix(1,0,0,1,85.3489990234375,58.423004150390625)" opacity="1" style="display: block;"><g opacity="1" transform="matrix(1,0,0,1,13.451000213623047,26.913999557495117)"><path fill="rgb(115,69,223)" fill-opacity="1" d=" M-3.5999999046325684,-20.003000259399414 C-0.41999998688697815,-26.14699935913086 5.5920000076293945,-26.663999557495117 13.201000213623047,-24.003000259399414 C13.201000213623047,-24.003000259399414 -2.4000000953674316,26.663999557495117 -2.4000000953674316,26.663999557495117 C-2.4000000953674316,26.663999557495117 -13.201000213623047,11.996999740600586 -13.201000213623047,11.996999740600586 C-13.201000213623047,11.996999740600586 -3.5999999046325684,-20.003000259399414 -3.5999999046325684,-20.003000259399414z"></path></g></g><g transform="matrix(1,0,0,1,27.75,61.083003997802734)" opacity="1" style="display: block;"><g opacity="1" transform="matrix(1,0,0,1,13.449999809265137,25.583999633789062)"><path fill="rgb(125,80,235)" fill-opacity="1" d=" M2.4000000953674316,25.33300018310547 C2.4000000953674316,25.33300018310547 13.199999809265137,10.666999816894531 13.199999809265137,10.666999816894531 C13.199999809265137,10.666999816894531 3.5999999046325684,-21.33300018310547 3.5999999046325684,-21.33300018310547 C3.5999999046325684,-21.33300018310547 -13.199999809265137,-25.33300018310547 -13.199999809265137,-25.33300018310547 C-13.199999809265137,-25.33300018310547 2.4000000953674316,25.33300018310547 2.4000000953674316,25.33300018310547z"></path></g></g><g transform="matrix(1,0,0,1,69.75,27.750003814697266)" opacity="1" style="display: block;"><g opacity="1" transform="matrix(1,0,0,1,21.25,18.91699981689453)"><path fill="rgb(162,124,255)" fill-opacity="1" d=" M4.199999809265137,18.66699981689453 C4.199999809265137,18.66699981689453 21,14.666999816894531 21,14.666999816894531 C21,14.666999816894531 -21,-18.66699981689453 -21,-18.66699981689453 C-21,-18.66699981689453 -21,-1.3329999446868896 -21,-1.3329999446868896 C-21,-1.3329999446868896 4.199999809265137,18.66699981689453 4.199999809265137,18.66699981689453z"></path></g></g><g transform="matrix(1,0,0,1,70,70)" opacity="1" style="display: block;"><g opacity="1" transform="matrix(1,0,0,1,0,0)"><path fill="rgb(177,145,255)" fill-opacity="1" d=" M0,-41.875 C0,-41.875 0,-24.125 0,-24.125 C0,-24.125 21,-8.25 21,-8.375 C15.375,-17.375 12.625,-32 12.625,-32 C12.625,-32 0,-41.875 0,-41.875z"></path></g></g><g transform="matrix(1,0,0,1,70,70)" opacity="1" style="display: block;"><g opacity="1" transform="matrix(1,0,0,1,0,0)"><path fill="rgb(186,158,255)" fill-opacity="1" d=" M0.125,-42 C0.125,-42 0.125,-24.375 0.125,-24.375 C0.125,-24.375 9.625,-17.25 9.625,-17.25 C9.625,-17.25 6,-25.5 8.125,-35.5 C8.125,-35.625 0.125,-42 0.125,-42z"></path></g></g><g transform="matrix(-0.7119659781455994,0.02486240118741989,-0.02486240118741989,-0.7119659781455994,111.38447570800781,-4.536170959472656)" opacity="3.612889202031511e-8" style="display: block;"><g opacity="1" transform="matrix(1,0,0,1,0,0)"><path fill="rgb(255,255,255)" fill-opacity="1" d=" M59.625,-53.375 C59.625,-53.375 59.99300003051758,-47.981998443603516 61.61399841308594,-46.097999572753906 C63.07600021362305,-44.39899826049805 68.875,-44.25 68.875,-44.25 C68.875,-44.25 63.46099853515625,-43.130001068115234 61.941001892089844,-41.69499969482422 C60.46099853515625,-40.297000885009766 60.25,-34.75 60.25,-34.75 C60.25,-34.75 60.01900100708008,-40.20800018310547 58.090999603271484,-41.624000549316406 C55.93600082397461,-43.20800018310547 50.625,-43.75 50.625,-43.75 C50.625,-43.75 55.30400085449219,-43.499000549316406 57.63399887084961,-45.48899841308594 C59.78300094604492,-47.32500076293945 59.625,-53.375 59.625,-53.375z"></path></g></g></g></svg>