 <svg
      xmlns="http://www.w3.org/2000/svg"
      viewBox="0 0 140 140"
      width="140"
      height="140"
      style="width: 100%; height: 100%; transform: translate3d(0px, 0px, 0px);"
      preserveAspectRatio="xMidYMid meet"
    >
      <defs>
        <clipPath id="__lottie_element_6183">
          <rect width="140" height="140" x="0" y="0" />
        </clipPath>
      </defs>
      <g clipPath="url(#__lottie_element_6183)">
        <g
          style="display: block;"
          transform="matrix(1,0,0,1,40.39099884033203,37.5469970703125)"
          opacity="1"
        >
          <g
            opacity="1"
            transform="matrix(1,0,0,1,29.652000427246094,29.652000427246094)"
          >
            <path
              fill="rgb(251,39,75)"
              fillOpacity="1"
              d=" M0,29.402000427246094 C-19.05900001525879,25.084999084472656 -29.054000854492188,15.39900016784668 -29.402000427246094,0.0010000000474974513 C-26.966999053955078,-13.958999633789062 -18.408000946044922,-24.461000442504883 0,-29.402000427246094 C15.277000427246094,-27.604000091552734 24.68899917602539,-17.235000610351562 29.402000427246094,0.0010000000474974513 C27.253999710083008,15.692999839782715 16.83099937438965,25.013999938964844 0,29.402000427246094z"
            />
          </g>
        </g>
        <g style="display: none;" transform="matrix(1,0,0,1,70,70)" opacity="1">
          <g opacity="1" transform="matrix(1,0,0,1,0,0)">
            <path
              fill="rgb(255,115,139)"
              fillOpacity="1"
              d=" M21.75,-5.25 C21.75,-5.25 17,4.125 17,4.125 C17,4.125 8.125,13.25 8.125,13.25 C8.125,13.25 0,21.125 0,21.125 C0,21.125 1.375,19.875 1.375,19.875 C1.375,19.875 24.25,-3 24.25,-3 C24.25,-3 21.75,-5.25 21.75,-5.25z"
            />
          </g>
        </g>
        <g
          style="display: block;"
          transform="matrix(1,0,0,1,63.079002380371094,61.88899612426758)"
          opacity="1"
        >
          <g
            opacity="1"
            transform="matrix(1,0,0,1,26.086000442504883,26.68000030517578)"
          >
            <path
              fill="rgb(222,21,56)"
              fillOpacity="1"
              d=" M25.834999084472656,-18.56999969482422 C18.97599983215332,-24.79199981689453 12.152999877929688,-26.43000030517578 5.381999969482422,-21.29800033569336 C5.381999969482422,-21.29800033569336 -19.165000915527344,3.247999906539917 -19.165000915527344,3.247999906539917 C-25.836000442504883,9.800000190734863 -24.233999252319336,17.809999465942383 -19.165000915527344,26.43000030517578 C-19.165000915527344,26.43000030517578 25.834999084472656,-18.56999969482422 25.834999084472656,-18.56999969482422z"
            />
          </g>
        </g>
        <g
          style="display: block;"
          transform="matrix(1,0,0,1,24.749000549316406,24.749996185302734)"
          opacity="1"
        >
          <g
            opacity="1"
            transform="matrix(1,0,0,1,25.274999618530273,24.916000366210938)"
          >
            <path
              fill="rgb(255,60,95)"
              fillOpacity="1"
              d=" M-25.024999618530273,20.333999633789062 C-25.024999618530273,20.333999633789062 19.975000381469727,-24.666000366210938 19.975000381469727,-24.666000366210938 C23.8700008392334,-17.770000457763672 25.025999069213867,-11.567999839782715 19.975000381469727,-6.938000202178955 C19.975000381469727,-6.938000202178955 -4.570000171661377,17.606000900268555 -4.570000171661377,17.606000900268555 C-9.315999984741211,24.666000366210938 -16.743000030517578,23.767000198364258 -25.024999618530273,20.333999633789062z"
            />
          </g>
        </g>
        <g
          style="display: block;"
          transform="matrix(1,0,0,1,70,69.99899291992188)"
          opacity="1"
        >
          <g opacity="1" transform="matrix(1,0,0,1,0,0)">
            <path
              fill="rgb(255,92,120)"
              fillOpacity="1"
              d=" M0,-45 C0,-45 -16.773000717163086,-28.12299919128418 -16.75,-28 C-16.125,-24.625 -16.086999893188477,-23.7189998626709 -16.097999572753906,-20.591999053955078 C-16.125,-13.25 -17.25,-10 -17.25,-10 C-17.25,-10 0,-26.75 0,-26.75 C0,-26.75 0,-45 0,-45z"
            />
          </g>
        </g>
        <g
          style="display: block;"
          transform="matrix(1,0,0,1,70,69.99899291992188)"
          opacity="1"
        >
          <g opacity="1" transform="matrix(1,0,0,1,0,0)">
            <path
              fill="rgb(255,115,139)"
              fillOpacity="1"
              d=" M0,-45 C0,-45 -7.125,-38.5 -7.125,-38.375 C-7.125,-33.875 -7.438000202178955,-31.64900016784668 -8.097999572753906,-28.591999053955078 C-9.892000198364258,-20.2810001373291 -13.5,-14 -13.5,-14 C-13.5,-14 0,-26.75 0,-26.75 C0,-26.75 0,-45 0,-45z"
            />
          </g>
        </g>
        <g
          style="display: block;"
          transform="matrix(1,0,0,1,69.75,24.74899673461914)"
          opacity="1"
        >
          <g opacity="1" transform="matrix(1,0,0,1,22.75,22.75)">
            <path
              fill="rgb(255,83,113)"
              fillOpacity="1"
              d=" M-22.5,-22.5 C-22.5,-22.5 -22.5,-4.7729997634887695 -22.5,-4.7729997634887695 C-22.5,-4.7729997634887695 2.0460000038146973,19.773000717163086 2.0460000038146973,19.773000717163086 C2.0460000038146973,19.773000717163086 22.5,22.5 22.5,22.5 C22.5,22.5 -22.5,-22.5 -22.5,-22.5z"
            />
          </g>
        </g>
        <g
          style="display: block;"
          transform="matrix(1,0,0,1,24.748998641967773,67.0219955444336)"
          opacity="1"
        >
          <g opacity="1" transform="matrix(1,0,0,1,22.75,24.11400032043457)">
            <path
              fill="rgb(200,14,45)"
              fillOpacity="1"
              d=" M-2.0450000762939453,-23.863000869750977 C-2.0450000762939453,-23.863000869750977 -22.5,-21.13599967956543 -22.5,-21.13599967956543 C-22.5,-21.13599967956543 22.5,23.863000869750977 22.5,23.863000869750977 C22.5,23.863000869750977 22.5,0.6819999814033508 22.5,0.6819999814033508 C22.5,0.6819999814033508 -2.0450000762939453,-23.863000869750977 -2.0450000762939453,-23.863000869750977z"
            />
          </g>
        </g>
        <g
          style="display: none;"
          transform="matrix(-0.7115088701248169,0.026995904743671417,-0.026995904743671417,-0.7115088701248169,156.27044677734375,37.02859115600586)"
          opacity="0.03978102366725736"
        >
          <g opacity="1" transform="matrix(1,0,0,1,0,0)">
            <path
              fill="rgb(255,255,255)"
              fillOpacity="1"
              d=" M59.625,-53.375 C59.625,-53.375 59.99300003051758,-47.981998443603516 61.61399841308594,-46.097999572753906 C63.07600021362305,-44.39899826049805 68.875,-44.25 68.875,-44.25 C68.875,-44.25 63.46099853515625,-43.130001068115234 61.941001892089844,-41.69499969482422 C60.46099853515625,-40.297000885009766 60.25,-34.75 60.25,-34.75 C60.25,-34.75 60.01900100708008,-40.20800018310547 58.090999603271484,-41.624000549316406 C55.93600082397461,-43.20800018310547 50.625,-43.75 50.625,-43.75 C50.625,-43.75 55.30400085449219,-43.499000549316406 57.63399887084961,-45.48899841308594 C59.78300094604492,-47.32500076293945 59.625,-53.375 59.625,-53.375z"
            />
          </g>
        </g>
      </g>
    </svg>