<svg xmlns="http://www.w3.org/2000/svg" viewBox="0 0 140 140" width="140" height="140" preserveAspectRatio="xMidYMid meet" style="width: 100%; height: 100%; transform: translate3d(0px, 0px, 0px);"><defs><clipPath id="__lottie_element_34567"><rect width="140" height="140" x="0" y="0"></rect></clipPath></defs><g clip-path="url(#__lottie_element_34567)"><g transform="matrix(1.190000057220459,0,0,1.190000057220459,42.92749786376953,31.082429885864258)" opacity="1" style="display: block;"><g opacity="1" transform="matrix(1,0,0,1,22.75,20.427000045776367)"><path fill="rgb(253,208,46)" fill-opacity="1" d=" M0,20.177000045776367 C14.845999717712402,16.075000762939453 21.840999603271484,5.050000190734863 22.5,-11.565999984741211 C7.5,-20.177000045776367 -7.5,-20.177000045776367 -22.5,-11.565999984741211 C-22.030000686645508,3.515000104904175 -15.298999786376953,14.58899974822998 0,20.177000045776367z"></path></g></g><g transform="matrix(1.0000046491622925,0,0,1.0000046491622925,70,70.00019073486328)" opacity="1" style="display: none;"><g opacity="1" transform="matrix(1,0,0,1,0,0)"><path fill="rgb(255,229,135)" fill-opacity="1" d=" M22.5,-26 C22.5,-26 22.375,-26 22.375,-26 C22.375,-26 14.015000343322754,-14.845999717712402 10.387999534606934,-9.743000030517578 C6.75,-4.625 0,5 0,5 C0,5 0,5 0,5 C0,5 8.5,-6.989999771118164 8.5,-6.989999771118164 C8.5,-6.989999771118164 22.5,-26 22.5,-26z"></path></g></g><g transform="matrix(1.0000046491622925,0,0,1.0000046491622925,58.021175384521484,32.4652099609375)" opacity="1" style="display: block;"><g opacity="1" transform="matrix(1,0,0,1,28.614999771118164,37.5359992980957)"><path fill="rgb(252,179,43)" fill-opacity="1" d=" M28.364999771118164,-37.2859992980957 C17.2549991607666,-35.66400146484375 7.6529998779296875,-33.14400100708008 5.864999771118164,-25.972000122070312 C5.864999771118164,-25.972000122070312 -16.635000228881836,5.770999908447266 -16.635000228881836,5.770999908447266 C-28.36400032043457,13.36299991607666 -23.509000778198242,25.072999954223633 -16.635000228881836,37.2859992980957 C-16.635000228881836,37.2859992980957 28.364999771118164,-37.2859992980957 28.364999771118164,-37.2859992980957z"></path></g></g><g transform="matrix(1.0000046491622925,0,0,1.0000046491622925,24.749372482299805,32.4652099609375)" opacity="1" style="display: block;"><g opacity="1" transform="matrix(1,0,0,1,22.75,37.5359992980957)"><path fill="rgb(253,192,46)" fill-opacity="1" d=" M22.5,5.770999908447266 C22.5,5.770999908447266 22.5,37.2859992980957 22.5,37.2859992980957 C22.5,37.2859992980957 -22.5,-37.2859992980957 -22.5,-37.2859992980957 C-11.5649995803833,-36.577999114990234 -3.681999921798706,-33.14799880981445 0,-25.972000122070312 C0,-25.972000122070312 22.5,5.770999908447266 22.5,5.770999908447266z"></path></g></g><g transform="matrix(1.0000046491622925,0,0,1.0000046491622925,24.749786376953125,32.4653434753418)" opacity="1" style="display: block;"><g opacity="1" transform="matrix(1,0,0,1,45.25,5.9070000648498535)"><path fill="rgb(255,219,94)" fill-opacity="1" d=" M-45,-5.6570000648498535 C-45,-5.6570000648498535 -22.5,5.6570000648498535 -22.5,5.6570000648498535 C-22.5,5.6570000648498535 22.5,5.6570000648498535 22.5,5.6570000648498535 C22.5,5.6570000648498535 45,-5.6570000648498535 45,-5.6570000648498535 C45,-5.6570000648498535 -45,-5.6570000648498535 -45,-5.6570000648498535z"></path></g></g><g transform="matrix(1.0000046491622925,0,0,1.0000046491622925,70,70.00151824951172)" opacity="1" style="display: block;"><g opacity="1" transform="matrix(1,0,0,1,0,0)"><path fill="rgb(255,229,135)" fill-opacity="1" d=" M44.5,-37.75 C44.5,-37.75 1.5,-37 1.5,-37 C1.5,-37 -0.8100000023841858,-32.96500015258789 -2.611999988555908,-31.323999404907227 C-5.973999977111816,-28.26300048828125 -10,-26.25 -10,-26.25 C-10,-26.25 22,-26 22,-26 C22,-26 44.5,-37.75 44.5,-37.75z"></path></g></g><g transform="matrix(1.0000046491622925,0,0,1.0000046491622925,70,70.00151824951172)" opacity="1" style="display: block;"><g opacity="1" transform="matrix(1,0,0,1,0,0)"><path fill="rgb(255,240,184)" fill-opacity="1" d=" M44.5,-37 C44.5,-37 28.75,-37 28.75,-37 C28.75,-37 26.302000045776367,-34.87200164794922 20.275999069213867,-32.18600082397461 C14.25,-29.5 2.75,-26.25 2.75,-26.25 C2.75,-26.25 22.5,-25.75 22.5,-25.75 C22.5,-25.75 44.5,-37 44.5,-37z"></path></g></g><g transform="matrix(-0.8475961685180664,0.03235175088047981,-0.03235175088047981,-0.8475961685180664,164.1557159423828,-6.530101776123047)" opacity="0.04205933481423415" style="display: none;"><g opacity="1" transform="matrix(1,0,0,1,0,0)"><path fill="rgb(255,255,255)" fill-opacity="1" d=" M59.625,-53.375 C59.625,-53.375 59.99300003051758,-47.981998443603516 61.61399841308594,-46.097999572753906 C63.07600021362305,-44.39899826049805 68.875,-44.25 68.875,-44.25 C68.875,-44.25 63.46099853515625,-43.130001068115234 61.941001892089844,-41.69499969482422 C60.46099853515625,-40.297000885009766 60.25,-34.75 60.25,-34.75 C60.25,-34.75 60.01900100708008,-40.20800018310547 58.090999603271484,-41.624000549316406 C55.93600082397461,-43.20800018310547 50.625,-43.75 50.625,-43.75 C50.625,-43.75 55.30400085449219,-43.499000549316406 57.63399887084961,-45.48899841308594 C59.78300094604492,-47.32500076293945 59.625,-53.375 59.625,-53.375z"></path></g></g></g></svg>