<?xml version="1.0" ?><!DOCTYPE svg  PUBLIC '-//W3C//DTD SVG 1.1//EN'  'http://www.w3.org/Graphics/SVG/1.1/DTD/svg11.dtd'><svg enable-background="new 0 0 489.597 524.424" height="524.424" id="レイヤー_1" overflow="visible" version="1.1" viewBox="0 0 489.597 524.424" width="489.597" xml:space="preserve" xmlns="http://www.w3.org/2000/svg" xmlns:xlink="http://www.w3.org/1999/xlink"><g id="会話2_x28_噴出し_xFF09_"><path d="M93.008,111.089h211.46c19.4,0,35.127,16.308,35.127,36.424v118.856c0,20.115-15.727,36.424-35.127,36.424   h-54.67l26.41,73.03l-87.382-73.03H93.008c-19.399,0-35.126-16.309-35.126-36.424V147.513   C57.882,127.397,73.609,111.089,93.008,111.089z" opacity="0.39"/><g><path d="M427.83,279.377H243.509c-16.909,0-30.617,13.64-30.617,30.466v99.416    c0,16.825,13.708,30.465,30.617,30.465h47.655l-23.021,61.085l76.168-61.085h83.52c16.91,0,30.619-13.64,30.619-30.465v-99.416    C458.449,293.017,444.74,279.377,427.83,279.377z" opacity="0.39"/><g><path d="M416.128,249.097H221.934     c-17.816,0-32.258,14.442-32.258,32.258v105.264c0,17.815,14.442,32.258,32.258,32.258h50.206l-24.254,64.678l80.248-64.678     h87.994c17.816,0,32.258-14.442,32.258-32.258V281.355C448.386,263.539,433.945,249.097,416.128,249.097z" fill="#FFFFFF" stroke="#878787" stroke-linejoin="round" stroke-width="16"/><line fill="#FFFFFF" stroke="#878787" stroke-linejoin="round" stroke-width="16" x1="411.199" x2="230.092" y1="291.137" y2="291.137"/><line fill="#FFFFFF" stroke="#878787" stroke-linejoin="round" stroke-width="16" x1="411.199" x2="230.092" y1="318.673" y2="318.673"/><line fill="#FFFFFF" stroke="#878787" stroke-linejoin="round" stroke-width="16" x1="411.199" x2="230.092" y1="347.73" y2="347.73"/><line fill="#FFFFFF" stroke="#878787" stroke-linejoin="round" stroke-width="16" x1="411.199" x2="230.092" y1="375.266" y2="375.266"/></g></g><g><path d="M90.358,66.174h244.39    c22.42,0,40.596,18.176,40.596,40.596V239.24c0,22.422-18.176,40.597-40.596,40.597h-63.184l30.523,81.396l-100.99-81.396H90.358    c-22.421,0-40.596-18.175-40.596-40.597V106.77C49.762,84.35,67.937,66.174,90.358,66.174z" fill="#FFFFFF" stroke="#000000" stroke-linejoin="round" stroke-width="18"/><line fill="none" stroke="#000000" stroke-linejoin="round" stroke-width="18" x1="96.564" x2="324.48" y1="119.081" y2="119.081"/><line fill="none" stroke="#000000" stroke-linejoin="round" stroke-width="18" x1="96.564" x2="324.48" y1="153.734" y2="153.734"/><line fill="none" stroke="#000000" stroke-linejoin="round" stroke-width="18" x1="96.564" x2="324.48" y1="190.302" y2="190.302"/><line fill="none" stroke="#000000" stroke-linejoin="round" stroke-width="18" x1="96.564" x2="324.48" y1="224.955" y2="224.955"/></g></g></svg>